<svg xmlns="http://www.w3.org/2000/svg" width="839.06" height="252.28"><path d="M160.6 251.352H89.605c-48.193 0-87.401-39.208-87.401-87.401s39.208-87.402 87.401-87.402H160.6c13.442 0 24.339 10.897 24.339 24.339s-10.897 24.338-24.339 24.338H89.605c-21.352 0-38.723 17.372-38.723 38.724s17.371 38.723 38.723 38.723H160.6c13.442 0 24.339 10.896 24.339 24.339 0 13.444-10.897 24.34-24.339 24.34zm652.083 0h-70.995c-48.193 0-87.401-39.208-87.401-87.401s39.208-87.402 87.401-87.402h70.995c13.442 0 24.339 10.897 24.339 24.339s-10.896 24.338-24.339 24.338h-70.995c-21.352 0-38.723 17.372-38.723 38.724s17.371 38.723 38.723 38.723h70.995c13.442 0 24.339 10.896 24.339 24.339 0 13.444-10.896 24.34-24.339 24.34zm-284.327-.361c-13.442 0-24.339-10.896-24.339-24.339v-70.995c0-21.352-17.371-38.723-38.722-38.723-21.352 0-38.723 17.371-38.723 38.723v70.995c0 13.442-10.898 24.339-24.339 24.339s-24.339-10.896-24.339-24.339v-70.995c0-48.193 39.208-87.401 87.402-87.401 48.193 0 87.4 39.208 87.4 87.401v70.995c-.002 13.442-10.898 24.339-24.34 24.339zm-291.315.361c-13.442 0-24.339-10.896-24.339-24.339V24.339C212.703 10.897 223.6 0 237.041 0s24.339 10.897 24.339 24.339v202.674c0 13.443-10.897 24.339-24.339 24.339zm86.59 0c-13.442 0-24.339-10.896-24.339-24.339V103.225c0-13.442 10.897-24.339 24.339-24.339s24.339 10.897 24.339 24.339v123.788c0 13.443-10.897 24.339-24.339 24.339zm283.039 0c-13.442 0-24.339-10.896-24.339-24.339V103.225c0-13.442 10.896-24.339 24.339-24.339 13.442 0 24.339 10.897 24.339 24.339v123.788c-.001 13.443-10.897 24.339-24.339 24.339zM623.235 41.74a19.659 19.659 0 0 0-16.622-9.09 19.657 19.657 0 0 0-16.621 9.09l-8.791 13.714a12.408 12.408 0 0 0-1.947 7.6 12.42 12.42 0 0 0 2.967 7.265 12.418 12.418 0 0 0 6.715 4.061c2.636.602 5.338.345 7.813-.743l.166-.074a24.563 24.563 0 0 1 19.56.074 12.421 12.421 0 0 0 7.811.744 12.413 12.413 0 0 0 6.716-4.061 12.402 12.402 0 0 0 2.969-7.264 12.418 12.418 0 0 0-1.946-7.602l-8.79-13.714zm-39.666-2.998c2.615-1.004 4.602-3.112 5.594-5.935.945-2.686.867-5.718-.218-8.539-1.086-2.819-3.062-5.12-5.564-6.48-2.628-1.428-5.515-1.661-8.126-.654-5.253 2.02-7.664 8.511-5.373 14.474 1.83 4.746 6.097 7.741 10.412 7.741a9.067 9.067 0 0 0 3.275-.607zm17.057-10.744c6.567 0 11.909-6.087 11.909-13.569 0-7.484-5.343-13.572-11.909-13.572-6.566 0-11.908 6.088-11.908 13.572 0 7.482 5.342 13.569 11.908 13.569zm20.568 3.333a9.721 9.721 0 0 0 3.068.495c4.789 0 9.456-3.486 11.237-8.842 1.026-3.084.958-6.344-.19-9.18-1.201-2.969-3.428-5.124-6.269-6.069-2.842-.945-5.916-.551-8.656 1.108-2.617 1.585-4.623 4.156-5.647 7.24-2.162 6.505.735 13.345 6.457 15.248zm25.08-1.583l-.002-.002c-4.529-3.345-11.301-1.895-15.099 3.234-3.794 5.132-3.201 12.031 1.321 15.378 1.649 1.222 3.598 1.806 5.592 1.806 3.476 0 7.092-1.774 9.509-5.036 3.794-5.132 3.202-12.031-1.321-15.38zM299.152 55.454a12.406 12.406 0 0 0-1.946 7.602 12.415 12.415 0 0 0 2.969 7.264 12.413 12.413 0 0 0 6.716 4.061 12.421 12.421 0 0 0 7.811-.744 24.567 24.567 0 0 1 19.56-.074l.166.074a12.413 12.413 0 0 0 7.813.743 12.418 12.418 0 0 0 6.715-4.061 12.417 12.417 0 0 0 2.967-7.265 12.408 12.408 0 0 0-1.947-7.6l-8.791-13.714a19.657 19.657 0 0 0-16.621-9.09 19.66 19.66 0 0 0-16.622 9.09l-8.79 13.714zm48.458-16.712a9.084 9.084 0 0 0 3.274.607c4.315 0 8.582-2.996 10.412-7.741 2.291-5.963-.12-12.454-5.373-14.474-2.611-1.006-5.498-.774-8.126.654-2.502 1.36-4.477 3.661-5.564 6.48-1.086 2.821-1.163 5.853-.218 8.539.993 2.823 2.98 4.931 5.595 5.935zm-17.058-10.744c6.566 0 11.908-6.087 11.908-13.569 0-7.484-5.342-13.572-11.908-13.572-6.567 0-11.909 6.088-11.909 13.572 0 7.482 5.342 13.569 11.909 13.569zm-20.568 3.333c5.723-1.903 8.619-8.743 6.457-15.248-1.024-3.084-3.03-5.655-5.647-7.24-2.74-1.659-5.813-2.053-8.656-1.108-2.842.945-5.068 3.1-6.269 6.069-1.148 2.836-1.216 6.097-.19 9.18 1.781 5.357 6.448 8.842 11.237 8.842a9.66 9.66 0 0 0 3.068-.495zm-25.08-1.583c-4.522 3.349-5.115 10.248-1.322 15.38 2.417 3.262 6.034 5.036 9.509 5.036 1.994 0 3.943-.584 5.592-1.806 4.522-3.348 5.115-10.247 1.321-15.378-3.797-5.129-10.57-6.579-15.099-3.234l-.001.002zm0 0" fill="#fff"/></svg>