<svg width="278" height="207" fill="none" xmlns="http://www.w3.org/2000/svg"><path d="M17.98 114.342L.433 104.183l51.486-29.72 1.852 1.065v3.61l-2.245 1.335v12.02l2.152 1.242-35.7 20.607z" fill="#9FAF84"/><path d="M20.069 103.862V93.207l-3 1.738-3-1.738v10.645c-.155.548.114 1.117.848 1.541 1.19.693 3.124.693 4.314 0 .724-.414 1.003-.993.838-1.531z" fill="#6B634E"/><path d="M20.069 103.862V93.207l-3 1.738v10.965c.786 0 1.562-.175 2.162-.517.724-.414 1.003-.993.838-1.531z" fill="#4C4638"/><path d="M17.13 85.18a10.562 10.562 0 0 0-8.43 4.189c-.383.507-.414 1.107-.704 1.676-.3.6-.858 1.158-1.044 1.81a10.83 10.83 0 0 0-.393 2.255c-.01.218-.383.57-.383.797 0 .227.372.31.383.538.072.372.196.745.382 1.107.104.196 1.149.062 1.283.248.186.258-.517.848-.259 1.096.445.435.994.849 1.645 1.221.942.548 1.438.962 2.576 1.262 1.386.362 3.455.538 4.945.538V85.179z" fill="#7AA05C"/><path d="M27.703 96.445c.01-.217.031-.445.031-.672 0-.228-.02-.445-.03-.673-.052-.89.3-1.49.03-2.317-.258-.797-1.117-1.82-1.541-2.514-.248-.414-.631-.476-.931-.848-.207-.259-.32-.838-.548-1.076a10.56 10.56 0 0 0-7.573-3.186V94.5l-.6.31.6 2.462-.372.983.372 1.749-.983 1.272.983.641c1.5 0 2.886.114 4.273-.258.279-.073.672-.445.941-.528.828-.269-.02-1.324.683-1.728.31-.175 2.224.352 2.482.156a7.559 7.559 0 0 0 1.149-1.045c.258-.3-.083-.848.083-1.17.186-.371.879-.516.951-.9z" fill="#577750"/><path d="M22.148 92.348c-.662 1.107-3.082 1.79-3.082 1.79s-1.852-.859-2.866-.931c-.734-.052-1.459.165-2.141-.02-.528-.146-1.51.02-1.51.02s-.383-.755-.57-.859c-.744-.434-1.644-1.469-1.644-1.469l.144-.724s-.651-.848-.527-1.345c.217-.848.89-1.665 2.027-2.317 2.804-1.624 7.355-1.624 10.159 0 1.117.641 1.79 1.448 2.017 2.286.155.58.104 1.17-.165 1.728-.3.672-1.293.93-1.842 1.841z" fill="#91C15D"/><path d="M19.665 88.955V79.78l-2.586 1.5-2.586-1.5v9.176c-.135.466.103.962.724 1.324 1.024.59 2.69.59 3.724 0 .62-.351.859-.848.724-1.324z" fill="#6B634E"/><path d="M19.666 88.955V79.78l-2.587 1.5v9.456c.673 0 1.345-.145 1.862-.445.621-.362.859-.859.725-1.335z" fill="#4C4638"/><path d="M17.131 72.858a9.079 9.079 0 0 0-6.838 3.093c-.258.3-.32.89-.548 1.221-.28.424-.714.58-.92 1.045-.146.32-.508.672-.611 1.014-.093.28.062.558 0 .848-.093.435.434.776.403 1.242-.01.186-.62.486-.62.682 0 .197.02.383.03.58.063.34.032 1.158.218 1.49.134.248.455.02.662.258.32.383 1.086.424 1.572.755.176.114-.01.548.176.652.207.124.786 0 1.004.103.465.217.6.652 1.117.807 1.355.424 2.865.641 4.365.641V72.86h-.01z" fill="#7AA05C"/><path d="M26.235 82.572c.01-.186-.528-.31-.528-.496 0-.197.538-.455.527-.652a8.89 8.89 0 0 0-.175-1.283c-.094-.476.02-1.49-.156-1.934-.134-.362-.537-.145-.713-.486-.321-.6-.766-.694-1.2-1.2-.249-.29-.455-1.035-.735-1.294a9.071 9.071 0 0 0-6.134-2.369v7.821l-.259 1.17.259 1.313v1.169l-.983.755.983 2.203c1.665 0 3.32-.258 4.79-.775.6-.218 1.085-.725 1.603-1.025.63-.362 1.23-.507 1.645-.93.238-.249.651-.31.817-.57.248-.403.186-1.003.259-1.417z" fill="#577750"/><path d="M18.9 72.166v-6.404l-1.81 1.045-1.81-1.045v6.404c-.094.33.072.672.506.93.714.414 1.883.414 2.597 0 .445-.248.61-.6.517-.93z" fill="#7F7453"/><path d="M18.9 72.166v-6.404l-1.81 1.045v6.59c.465 0 .941-.104 1.293-.31.445-.239.61-.59.517-.921z" fill="#594F35"/><path d="M18.9 72.166v-6.404l-1.81 1.045-1.81-1.045v6.404c-.094.33.072.672.506.93.714.414 1.883.414 2.597 0 .445-.248.61-.6.517-.93z" fill="#7F7453"/><path d="M18.9 72.166v-6.404l-1.81 1.045v6.59c.465 0 .941-.104 1.293-.31.445-.239.61-.59.517-.921z" fill="#594F35"/><path d="M21.455 79.045c-.89.517-1.986.838-3.145.972a8.896 8.896 0 0 1-.538.052c-1.19.073-3.455.02-3.455.02s-1.138-.775-1.614-1.044c-.506-.29-.91-.62-1.2-.983-.31-.372-.155-1.096-.155-1.096s-.455-.342-.455-.476c.01-.91.61-1.81 1.81-2.504 2.421-1.396 6.342-1.396 8.752 0 .776.445.766 1.656.766 1.656s1.034.465 1.044.755c.021.3-.03.6-.144.89a2.856 2.856 0 0 1-.694 1.023c-.258.26-.59.507-.972.735z" fill="#91C15D"/><path d="M18.9 75.258v-6.403L17.09 69.9l-1.81-1.045v6.403c-.094.332.072.673.506.931.714.414 1.883.414 2.597 0 .445-.258.61-.61.517-.93z" fill="#6B634E"/><path d="M18.9 75.258v-6.403L17.09 69.9v6.59c.465 0 .941-.104 1.293-.31.445-.25.61-.6.517-.922z" fill="#4C4638"/><path d="M17.131 64.024c-.786 0-1.562-.258-2.255 0-.341.124-.62.672-.931.859a6.384 6.384 0 0 0-1.562 1.272c-.207.238-.445 1.635-.445 1.635s-.548-.176-.704.206a6.177 6.177 0 0 0-.455 2.007c-.01.135-.196.28-.196.425 0 .134.196.382.196.382s.083.321.145.476c.145.352 1.273.662 1.273.662s.03.849.413 1.066c.259.145.549.6.838.714.486.207.983.04 1.531.155.693.145 1.428.217 2.152.217V64.024z" fill="#7AA05C"/><path d="M23.483 70.8c.01-.134-.507-.31-.507-.445 0-.134.507-.362.507-.362s.196-1.655-.3-2.09c-2.4-2.14-1.428-2.058-2.452-2.761-.569-.393-1.883-.88-1.883-.88s-.827.207-1.117.166c-.29-.042-.31-.393-.6-.393v2.141l-.3 1.541.3 1.604-.186.672.186 1.138-.714 1.024.714.176v1.759c.817 0 1.531 0 2.286-.683.352-.32 1.428 0 1.428 0s.548-.248.807-.393c1.065-.62 1.676-1.407 1.83-2.214z" fill="#577750"/><path d="M45.682 90.497V79.852l-3 1.738-3-1.738v10.645c-.155.548.114 1.117.849 1.541 1.19.693 3.124.693 4.313 0 .725-.413 1.004-.993.838-1.541z" fill="#6B634E"/><path d="M45.683 90.497V79.852l-3 1.738v10.965c.786 0 1.562-.175 2.162-.517.724-.413 1.003-.993.838-1.541z" fill="#4C4638"/><path d="M42.745 71.814a10.562 10.562 0 0 0-8.431 4.19c-.383.506-.414 1.106-.704 1.675-.3.6-.858 1.16-1.045 1.81-.207.725-.341 1.48-.382 2.256-.01.217-.383.569-.383.797 0 .227.372.31.383.537.072.373.196.745.382 1.107.104.197 1.149.063 1.283.249.186.258-.517.838-.258 1.096a8.09 8.09 0 0 0 1.644 1.22c.942.55 1.438.963 2.576 1.263 1.386.362 3.455.538 4.945.538V71.814h-.01z" fill="#7AA05C"/><path d="M53.317 83.09c.01-.217.031-.445.031-.672 0-.228-.02-.445-.03-.673-.053-.89.3-1.49.03-2.317-.258-.797-1.117-1.82-1.541-2.514-.248-.414-.631-.476-.931-.848-.207-.259-.32-.838-.548-1.076a10.561 10.561 0 0 0-7.573-3.186v9.341l-.6.31.6 2.463-.372.982.372 1.748-.993 1.283.983.642c1.5 0 2.886.114 4.272-.259.28-.072.673-.445.931-.527.828-.27-.02-1.325.683-1.728.31-.176 2.224.352 2.483.155a7.553 7.553 0 0 0 1.148-1.045c.259-.3-.083-.848.083-1.169.207-.382.9-.527.972-.91z" fill="#577750"/><path d="M47.762 78.993c-.662 1.107-3.083 1.79-3.083 1.79s-1.852-.859-2.865-.931c-.735-.052-1.46.165-2.142-.02-.527-.146-1.51.02-1.51.02s-.383-.755-.57-.859c-.744-.434-1.644-1.469-1.644-1.469l.145-.724s-.652-.848-.528-1.345c.218-.848.89-1.665 2.028-2.317 2.803-1.624 7.355-1.624 10.158 0 1.118.641 1.79 1.448 2.018 2.286.155.58.103 1.17-.166 1.728-.3.672-1.293.93-1.841 1.841z" fill="#91C15D"/><path d="M45.28 75.6v-9.176l-2.587 1.5-2.586-1.5V75.6c-.135.466.103.962.724 1.324 1.024.59 2.69.59 3.724 0 .62-.362.859-.858.724-1.324z" fill="#6B634E"/><path d="M45.28 75.6v-9.176l-2.587 1.5v9.455c.672 0 1.345-.144 1.862-.444.62-.373.859-.87.724-1.335z" fill="#4C4638"/><path d="M42.745 59.493a9.079 9.079 0 0 0-6.838 3.093c-.259.3-.321.89-.549 1.221-.279.424-.713.58-.92 1.045-.145.32-.507.672-.61 1.014-.094.279.061.558 0 .848-.094.434.434.776.403 1.241-.01.186-.62.486-.62.683 0 .197.02.383.03.58.062.34.031 1.158.217 1.489.135.248.456.02.662.259.321.372 1.087.424 1.573.755.176.114-.01.548.176.651.207.125.786 0 1.003.104.466.217.6.652 1.117.807 1.356.424 2.866.641 4.366.641v-14.43h-.01z" fill="#7AA05C"/><path d="M51.848 69.207c.01-.186-.528-.31-.528-.496 0-.197.538-.456.528-.652a8.893 8.893 0 0 0-.176-1.283c-.093-.476.02-1.49-.155-1.934-.135-.362-.538-.145-.714-.487-.32-.6-.765-.693-1.2-1.2-.248-.29-.455-1.034-.734-1.293a9.08 9.08 0 0 0-6.135-2.38v7.822l-.258 1.169.258 1.313v1.17l-.983.754.983 2.204c1.666 0 3.32-.259 4.79-.776.6-.217 1.086-.724 1.603-1.024.631-.362 1.231-.507 1.645-.931.238-.248.652-.31.817-.57.249-.392.187-.992.259-1.406z" fill="#577750"/><path d="M44.514 58.81v-6.403l-1.81 1.045-1.811-1.045v6.404c-.093.33.072.672.507.93.714.415 1.883.415 2.596 0 .445-.258.61-.6.518-.93z" fill="#7F7453"/><path d="M44.514 58.81v-6.403l-1.81 1.045v6.59c.465 0 .94-.104 1.292-.31.445-.249.61-.59.518-.921z" fill="#594F35"/><path d="M44.514 58.81v-6.403l-1.81 1.045-1.811-1.045v6.404c-.093.33.072.672.507.93.714.415 1.883.415 2.596 0 .445-.258.61-.6.518-.93z" fill="#7F7453"/><path d="M44.514 58.81v-6.403l-1.81 1.045v6.59c.465 0 .94-.104 1.292-.31.445-.249.61-.59.518-.921z" fill="#594F35"/><path d="M47.069 65.68c-.89.516-1.986.837-3.145.972a9.78 9.78 0 0 1-.538.051c-1.19.073-3.455.021-3.455.021s-1.138-.776-1.614-1.045c-.507-.29-.91-.62-1.2-.983-.31-.372-.155-1.096-.155-1.096s-.455-.341-.455-.476c.01-.91.61-1.81 1.81-2.503 2.42-1.397 6.341-1.397 8.752 0 .775.444.765 1.655.765 1.655s1.035.465 1.045.755c.02.3-.031.6-.145.89a2.857 2.857 0 0 1-.693 1.024 4.28 4.28 0 0 1-.972.734z" fill="#91C15D"/><path d="M44.514 61.893V55.49l-1.81 1.045-1.811-1.045v6.403c-.093.331.072.673.507.931.714.414 1.883.414 2.596 0 .445-.258.61-.6.518-.93z" fill="#6B634E"/><path d="M44.514 61.893V55.49l-1.81 1.045v6.59c.465 0 .94-.104 1.292-.311.445-.248.61-.59.518-.92z" fill="#4C4638"/><path d="M42.745 50.67c-.776 0-1.563-.26-2.256 0-.341.123-.62.672-.93.858a6.382 6.382 0 0 0-1.563 1.272c-.207.238-.445 1.635-.445 1.635s-.548-.176-.703.207a6.176 6.176 0 0 0-.455 2.006c-.01.135-.197.28-.197.425 0 .134.197.382.197.382s.083.321.145.476c.145.352 1.272.662 1.272.662s.031.849.414 1.066c.259.145.548.6.838.714.486.207.983.041 1.53.155a10.62 10.62 0 0 0 2.153.217V50.669z" fill="#7AA05C"/><path d="M49.096 57.445c.01-.134-.507-.31-.507-.445 0-.134.507-.362.507-.362s.197-1.655-.3-2.09c-2.4-2.14-1.427-2.058-2.451-2.761-.57-.393-1.883-.88-1.883-.88s-.828.207-1.118.166c-.29-.042-.31-.393-.6-.393v2.141l-.3 1.541.3 1.604-.186.672.187 1.138-.714 1.024.714.176v1.759c.817 0 1.53 0 2.286-.683.352-.32 1.427 0 1.427 0s.549-.248.807-.393c1.066-.62 1.676-1.407 1.831-2.214z" fill="#577750"/><path d="M117.931 56.66l-99.952 57.682 159.59 92.121 99.952-57.683-159.59-92.12z" fill="#B8CCCE"/><path d="M105.165 147.404v-5.566H93.931l-4.82 5.473 16.054.093zm4.821 12.062l4.821-22.19 8.524-4.914 28.51 16.397v10.707h-41.855zm167.555-10.707l-74.172-42.828-25.511 71.028h50.825l48.858-28.2z" fill="#BBBDBF"/><path d="M79.79 120.445l11.44-6.631V45.208l-11.44 6.63v68.607z" fill="#AFAAA1"/><path d="M79.79 120.487l-26.018-14.99V36.89L79.79 51.88v68.607z" fill="#E2EBED"/><path d="M86.555 55.997L84.3 54.663l-4.77 2.72L53.773 42.54l-2.245 1.334L79.51 60.021l.02-.01.022.01 7.003-4.024z" fill="#fff"/><path d="M86.555 55.997L84.3 54.663l-4.77 2.72h4.625l2.4-1.386z" fill="#BBBDBF"/><path d="M79.552 72.042L51.527 55.894v-12.01L79.552 60.02v12.02z" fill="#81A9C1"/><path d="M79.552 72.042l7.003-4.035v-12.01l-7.004 4.035v12.01z" fill="#5793AA"/><path d="M58.53 59.938l-.972-.548V47.4l.973.549v11.99zm7.004 4.035l-.972-.548v-11.99l.972.559v11.979zm7.004 4.034l-.973-.558v-11.99l.973.559v11.99zm7.014 4.035l-.973-.559v-11.99l.973.56v11.989zm6.03-3.507l.973-.548v-11.99l-.973.548v11.99z" fill="#BBBDBF"/><path d="M86.555 74.338L84.3 73.004l-4.77 2.72L53.773 60.88l-2.245 1.334L79.51 78.373l.02-.01.022.01 7.003-4.035z" fill="#fff"/><path d="M86.555 74.338L84.3 73.004l-4.77 2.72h4.625l2.4-1.386z" fill="#BBBDBF"/><path d="M79.552 90.383L51.527 74.235v-12.01l28.025 16.148v12.01z" fill="#81A9C1"/><path d="M79.552 90.394l7.003-4.045v-12.01l-7.004 4.044v12.01z" fill="#5793AA"/><path d="M58.53 78.28l-.972-.549v-11.99l.973.549v11.99zm7.004 4.045l-.972-.56V69.788l.972.548v11.99zm7.004 4.024l-.973-.548V73.81l.973.548v11.99zm7.014 4.034l-.973-.548v-11.99l.973.549v11.99zm6.03-3.507l.973-.548v-11.99l-.973.549v11.99z" fill="#BBBDBF"/><path d="M86.555 92.608L84.3 91.273l-4.77 2.72L53.773 79.14l-2.245 1.334L79.51 96.632l.02-.01.022.01 7.003-4.024z" fill="#fff"/><path d="M86.555 92.607L84.3 91.273l-4.77 2.72h4.625l2.4-1.386z" fill="#BBBDBF"/><path d="M79.552 108.642L51.527 92.494v-12.01l28.025 16.148v12.01z" fill="#81A9C1"/><path d="M79.552 108.652l7.003-4.034v-12.01l-7.004 4.034v12.01z" fill="#5793AA"/><path d="M58.53 96.549l-.972-.559V84l.973.56v11.989zm7.004 4.034l-.972-.548v-11.99l.972.549v11.989zm7.004 4.025l-.973-.549v-11.99l.973.55v11.989zm7.014 4.034l-.973-.548v-11.99l.973.548v11.99zm6.03-3.497l.973-.558v-11.98l-.973.549v11.989z" fill="#BBBDBF"/><path d="M163.282 155.452l-72.051-41.638V45.207l72.051 41.638v68.607z" fill="#E2EBED"/><path d="M147.807 146.524l-24.476-14.162 13.117-7.593v-21.683l1.076-.62V98.99l10.283 10.365v37.169z" fill="#BBBDBF"/><path d="M123.331 132.362l13.117 7.583v-15.166l-13.117 7.583z" fill="#77878C"/><path d="M134.255 126.041v12.642l2.193 1.262v-15.166l-2.193 1.262z" fill="#fff"/><path d="M134.255 126.041v12.642l2.193 1.262v-15.166l-2.193 1.262z" fill="#A6A8AB"/><path d="M99.03 55.014l-2.254 1.335 56.017 32.317.021-.01.01.01 2.296-1.314-56.09-32.338z" fill="#fff"/><path d="M96.776 56.359v14.814l56.048 32.307V88.666L96.776 56.359z" fill="#81A9C1"/><path d="M103.789 75.177l-.972-.56v-14.74l.972.548v14.752zm7.004 4.023l-.972-.558V63.91l.972.548V79.2zm7.003 4.014l-.972-.548v-14.73l.972.558v14.72zm7.004 4.045l-.973-.559V71.97l.973.558v14.73zm7.013 4.065l-.972-.548V76.035l.972.548v14.741zm7.004 4.025l-.973-.559V80.07l.973.558v14.72zm7.004 4.086l-.973-.559V84.104l.973.548v14.783zm-44.308-11.928l-10.282 5.97V41.968l10.282 10.366v4.107l-2.255 1.303V72.6l2.255 1.293v13.614z" fill="#BBBDBF"/><path d="M177.858 176.959l53.473-30.858V77.494l-53.473 30.858v68.607z" fill="#AFAAA1"/><path d="M177.859 176.959l-26.018-14.979V93.373l26.018 14.979v68.607z" fill="#E2EBED"/><path d="M198.869 122.949l-2.255-1.335-18.776 10.842-25.759-14.845-2.255 1.324 27.993 16.159.021-.011.01.011 21.021-12.145z" fill="#fff"/><path d="M198.869 122.949l-2.255-1.335-18.776 10.842h4.614l16.417-9.507z" fill="#BBBDBF"/><path d="M177.848 147.104l-28.024-16.148v-12.011l28.024 16.149v12.01z" fill="#81A9C1"/><path d="M177.848 147.114l21.021-12.155v-12.01l-21.021 12.155v12.01z" fill="#5793AA"/><path d="M156.838 135.011l-.973-.559v-11.979l.973.548v11.99zm7.003 4.034l-.972-.548v-11.99l.972.549v11.989zm7.004 4.025l-.973-.549v-11.989l.973.548v11.99zm7.003 4.034l-.972-.548v-11.99l.972.548v11.99zm6.041-3.497l.973-.558v-11.98l-.973.549v11.989zm7.004-4.055l.972-.558v-11.99l-.972.559v11.989zm7.003-4.045l.973-.558v-11.98l-.973.549v11.989z" fill="#BBBDBF"/><path d="M198.869 141.208l-2.255-1.335-18.776 10.841-25.759-14.844-2.255 1.334 27.993 16.148.021-.01.01.01 21.021-12.144z" fill="#fff"/><path d="M198.869 141.208l-2.255-1.335-18.776 10.841h4.614l16.417-9.506z" fill="#BBBDBF"/><path d="M177.848 165.363l-28.024-16.138v-12.011l28.024 16.138v12.011z" fill="#81A9C1"/><path d="M177.848 165.373l21.021-12.155v-12.01l-21.021 12.155v12.01z" fill="#5793AA"/><path d="M156.838 153.269l-.973-.548v-11.99l.973.549v11.989zm7.003 4.035l-.972-.548v-11.99l.972.548v11.99zm7.004 4.024l-.973-.548v-11.99l.973.559v11.979zm7.003 4.035l-.972-.549v-11.989l.972.558v11.98zm6.041-3.497l.973-.548v-11.99l-.973.548v11.99zm7.004-4.055l.972-.559v-11.979l-.972.548v11.99zm7.003-4.045l.973-.548v-11.99l-.973.548v11.99z" fill="#BBBDBF"/><path d="M198.869 104.608l-2.255-1.335-18.776 10.831-25.759-14.845-2.255 1.335 27.993 16.158.021-.01.01.01 21.021-12.144z" fill="#fff"/><path d="M198.869 104.607l-2.255-1.334-18.776 10.831h4.614l16.417-9.497z" fill="#BBBDBF"/><path d="M177.848 128.763l-28.024-16.149v-12.01l28.024 16.148v12.011z" fill="#81A9C1"/><path d="M177.848 128.773l21.021-12.155v-12.011l-21.021 12.156v12.01z" fill="#5793AA"/><path d="M156.838 116.659l-.973-.548v-11.99l.973.548v11.99zm7.003 4.045l-.972-.559v-11.979l.972.548v11.99zm7.004 4.024l-.973-.548v-11.99l.973.549v11.989zm7.003 4.035l-.972-.549v-11.989l.972.548v11.99zm6.041-3.507l.973-.549v-11.989l-.973.558v11.98zm7.004-4.055l.972-.549v-11.989l-.972.548v11.99zm7.003-4.045l.973-.549v-11.989l-.973.548v11.99z" fill="#BBBDBF"/><path d="M228.579 87.456l-2.245-1.335-21.031 12.166 2.266 1.313 21.01-12.144z" fill="#fff"/><path d="M228.579 87.456l-2.245-1.335-21.031 12.166 2.266 1.313 21.01-12.144z" fill="#BBBDBF"/><path d="M207.569 111.611l21.01-12.145v-12.01L207.569 99.6v12.011zm0 0l-2.266-1.304v-12.02l2.266 1.313v12.011z" fill="#5793AA"/><path d="M207.569 111.611l-.973-.559v-11.98l.973.549v11.99zm6.031-3.507l.972-.548v-11.99l-.972.548v11.99zm7.003-4.055l.973-.549V91.51l-.973.549v11.99zm7.004-4.045l.972-.549v-11.99l-.972.55v11.989z" fill="#BBBDBF"/><path d="M228.579 105.745l-2.245-1.334-21.031 12.176 2.266 1.303 21.01-12.145z" fill="#fff"/><path d="M228.579 105.745l-2.245-1.334-21.031 12.176 2.266 1.303 21.01-12.145z" fill="#BBBDBF"/><path d="M207.569 129.911l21.01-12.156v-12.01l-21.01 12.155v12.011zm0 0l-2.266-1.314v-12.011l2.266 1.314v12.011z" fill="#5793AA"/><path d="M207.569 129.9l-.973-.548v-11.99l.973.549V129.9zm6.031-3.496l.972-.559v-11.99l-.972.559v11.99zm7.003-4.066l.973-.548V109.8l-.973.549v11.989zm7.004-4.045l.972-.548v-11.99l-.972.559v11.979z" fill="#BBBDBF"/><path d="M228.579 124.087l-2.245-1.335-21.031 12.176 2.266 1.304 21.01-12.145z" fill="#fff"/><path d="M228.579 124.087l-2.245-1.335-21.031 12.176 2.266 1.304 21.01-12.145z" fill="#BBBDBF"/><path d="M207.569 148.252l21.01-12.155v-12.01l-21.01 12.155v12.01zm0 0l-2.266-1.313v-12.011l2.266 1.314v12.01z" fill="#5793AA"/><path d="M207.569 148.242l-.973-.548v-11.99l.973.548v11.99zm6.031-3.497l.972-.548v-11.989l-.972.548v11.989zm7.003-4.055l.973-.558v-11.99l-.973.559v11.989zm7.004-4.045l.972-.558v-11.98l-.972.549v11.989z" fill="#BBBDBF"/><path d="M114.807 156.683l-4.821 2.783v-19.365l4.821-2.825v19.407zM93.93 144.487l-4.82 2.824v-19.293l4.82 2.793v13.676z" fill="#AFAAA1"/><path d="M84.29 98.814v45.673l4.82 2.824v-19.293l16.055 9.341v19.324l4.821 2.783v-45.817L84.289 98.814z" fill="#E2EBED"/><path d="M109.986 113.649v26.452l26.462-15.352V98.297l-26.462 15.352zm-.393-21.549l-19.759 11.463v-3.466l19.759-11.462v3.466z" fill="#AFAAA1"/><path d="M109.593 92.1l19.769 11.463v-3.466l-19.769-11.462v3.466z" fill="#E2EBED"/><path d="M137.524 102.445l-27.538 15.963v-3.466l27.538-15.962v3.465z" fill="#C15D67"/><path d="M82.055 102.28l27.931 16.128v-3.466L82.055 98.815v3.465z" fill="#E09090"/><path d="M109.593 82.821L82.055 98.804l27.931 16.138 27.538-15.983-27.931-16.138zM92.1 98.794l17.503-10.159 17.886 10.335-17.503 10.158L92.1 98.794zm10.541 25.469c0 4.22-2.959 5.927-6.61 3.817-3.652-2.11-6.61-7.241-6.61-11.452 0-4.22 2.958-5.927 6.61-3.817 3.641 2.1 6.61 7.231 6.61 11.452z" fill="#fff"/><path d="M100.903 121.335l-3.207-1.852v-3.714l-3.341-1.924v3.704l-3.217-1.852v3.859l3.217 1.851v3.714l3.341 1.924v-3.714l3.207 1.862v-3.858z" fill="#007C8A"/><path d="M107.503 9.466l-45.9 26.68v-3.477L107.503 6v3.466z" fill="#AFAAA1"/><path d="M107.441 9.435L59.369 37.19l20.42 11.731 11.452-6.63L168.9 87.155l-11.442 6.538 20.4 11.751 47.887-27.651L107.441 9.435z" fill="#B8CCCE"/><path d="M51.527 36.156l28.262 16.23v-3.465L51.527 32.69v3.466z" fill="#E09090"/><path d="M107.503 9.466L223.51 76.738v-3.465L107.503 6v3.466z" fill="#E2EBED"/><path d="M171.145 86.11l-11.4 6.528v-3.465l11.4-6.528v3.466z" fill="#AFAAA1"/><path d="M177.858 105.445v3.476l55.707-32.162v-3.486l-55.707 32.172z" fill="#C15D67"/><path d="M91.241 42.29v3.486l66.766 38.576 3.031-1.738L91.241 42.29z" fill="#E09090"/><path d="M79.79 48.921v3.486l11.451-6.63V42.29L79.79 48.921z" fill="#C15D67"/><path d="M107.441.404L51.527 32.69l3.042 1.748 25.23 14.493 11.442-6.63 69.807 40.334-3.031 1.738-8.421 4.81 3.042 1.748 25.231 14.525 55.707-32.163L107.441.403zm60.662 83.969l3.031-1.738-63.765-36.848-16.138-9.321-7.324 4.241-4.138 2.4-9.114-5.234-6.041-3.466-3.032-1.738 45.859-26.462 109.997 63.548 6.082 3.507L220.5 75l-42.642 24.621-15.113-8.7-3.042-1.748 8.4-4.8z" fill="#fff"/><path d="M152.617 90.91l-3.031-1.737v3.465h.01l-.01.01 28.272 16.273v-3.476l-25.241-14.534z" fill="#E09090"/><path d="M117.972 29.773c-1.407.807-3.248 1.22-5.079 1.22H108.9l-1.097-7.086s3.248-1.22 5.08-1.22c1.841 0 3.682.403 5.089 1.22 2.804 1.614 2.804 4.242 0 5.866z" fill="#BBBDBF"/><path d="M104.027 29.825c1.345.776 3.104 1.169 4.873 1.169 1.758 0 3.527-.393 4.872-1.17 1.345-.775 2.017-1.79 2.017-2.813v-3.673H102.02v3.673c-.01 1.024.662 2.038 2.007 2.814z" fill="#DFE5EA"/><path d="M108.889 30.994c1.759 0 3.528-.393 4.873-1.17 1.345-.775 2.017-1.79 2.017-2.813v-3.673h-6.89v7.656z" fill="#C9C8C1"/><path d="M113.762 26.007c-2.69 1.552-7.045 1.552-9.735 0-2.689-1.552-2.689-4.065 0-5.617 2.69-1.552 7.045-1.552 9.735 0 2.689 1.541 2.689 4.065 0 5.617z" fill="#fff"/><path d="M111.786 24.859c-1.593.92-4.179.92-5.783 0-1.593-.92-1.593-2.41 0-3.341 1.593-.921 4.179-.921 5.783 0 1.593.93 1.593 2.42 0 3.341z" fill="#C9C8C1"/><path d="M139.231 41.99c-1.407.807-3.248 1.22-5.079 1.22h-3.993l-1.097-7.086s3.248-1.22 5.079-1.22c1.842 0 3.683.403 5.09 1.22 2.814 1.625 2.814 4.252 0 5.866z" fill="#BBBDBF"/><path d="M125.286 42.042c1.345.776 3.104 1.169 4.872 1.169 1.759 0 3.528-.393 4.873-1.17 1.345-.775 2.017-1.789 2.017-2.813v-3.672h-13.769v3.672c-.01 1.024.662 2.038 2.007 2.814z" fill="#DFE5EA"/><path d="M130.158 43.21c1.759 0 3.528-.392 4.873-1.168 1.345-.776 2.017-1.79 2.017-2.814v-3.672h-6.89v7.655z" fill="#C9C8C1"/><path d="M135.031 38.224c-2.69 1.552-7.045 1.552-9.735 0-2.689-1.551-2.689-4.065 0-5.617 2.69-1.552 7.045-1.552 9.735 0 2.689 1.552 2.689 4.066 0 5.617z" fill="#fff"/><path d="M133.045 37.087c-1.593.92-4.18.92-5.783 0-1.593-.921-1.593-2.41 0-3.342 1.593-.92 4.179-.92 5.783 0 1.603.92 1.603 2.42 0 3.342z" fill="#C9C8C1"/><path d="M181.934 66.642c-1.407.807-3.248 1.22-5.079 1.22h-3.993l-1.097-7.086s3.249-1.22 5.08-1.22c1.841 0 3.682.403 5.089 1.22 2.804 1.614 2.804 4.242 0 5.866z" fill="#BBBDBF"/><path d="M167.989 66.694c1.345.776 3.104 1.169 4.873 1.169 1.758 0 3.527-.393 4.872-1.17 1.345-.775 2.017-1.789 2.017-2.813v-3.672h-13.768v3.672c-.011 1.014.662 2.038 2.006 2.814z" fill="#DFE5EA"/><path d="M172.852 67.852c1.758 0 3.527-.393 4.872-1.169 1.345-.776 2.017-1.79 2.017-2.813v-3.662h-6.889v7.644z" fill="#C9C8C1"/><path d="M177.724 62.866c-2.69 1.552-7.045 1.552-9.735 0-2.689-1.552-2.689-4.066 0-5.617 2.69-1.552 7.045-1.552 9.735 0 2.69 1.551 2.69 4.065 0 5.617z" fill="#fff"/><path d="M175.748 61.728c-1.593.92-4.179.92-5.783 0-1.593-.92-1.593-2.41 0-3.341 1.593-.92 4.18-.92 5.783 0 1.593.92 1.593 2.42 0 3.341z" fill="#C9C8C1"/><path d="M203.193 78.86c-1.407.806-3.248 1.22-5.079 1.22h-3.994l-1.096-7.086s3.248-1.221 5.079-1.221c1.842 0 3.683.403 5.09 1.22 2.814 1.614 2.814 4.242 0 5.866z" fill="#BBBDBF"/><path d="M189.248 78.911c1.345.776 3.103 1.169 4.872 1.169 1.759 0 3.528-.393 4.873-1.169 1.345-.776 2.017-1.79 2.017-2.814v-3.672h-13.769v3.672c-.01 1.024.662 2.038 2.007 2.814z" fill="#DFE5EA"/><path d="M194.12 80.07c1.759 0 3.528-.393 4.873-1.17 1.345-.775 2.017-1.789 2.017-2.813v-3.672h-6.89v7.655z" fill="#C9C8C1"/><path d="M198.982 75.083c-2.689 1.552-7.044 1.552-9.734 0-2.69-1.551-2.69-4.065 0-5.617 2.69-1.552 7.045-1.552 9.734 0 2.69 1.552 2.69 4.066 0 5.617z" fill="#fff"/><path d="M197.007 73.945c-1.593.921-4.18.921-5.783 0-1.604-.92-1.593-2.41 0-3.34 1.593-.922 4.179-.922 5.783 0 1.593.93 1.593 2.42 0 3.34z" fill="#C9C8C1"/></svg>