<svg xmlns="http://www.w3.org/2000/svg" width="1000" height="275"><path d="M0 216.844L37.024 176c14.123 16.033 29.774 25.193 45.041 25.193 21.374 0 33.205-8.395 33.205-39.695V56.915H61.583L90.518.43h90.402v166.41c0 49.621-25.193 90.843-96.567 90.843-27.481 0-61.069-9.922-84.353-40.839zm180.92 5.341l37.407-45.036c18.699 14.119 40.839 24.045 63.357 24.045 19.848 0 27.481-6.49 27.481-14.502 0-14.506-12.98-17.56-35.876-27.103l-30.917-12.975c-28.63-10.687-52.292-33.205-52.292-69.086C190.08 35.162 228.248.43 284.738.43c29.391 0 60.687 10.683 84.731 33.205l-32.823 41.222c-17.938-11.836-32.061-17.943-55.728-17.943-14.502 0-24.428 5.346-24.428 16.799 0 11.448 14.123 15.646 38.934 24.806l28.625 11.836c33.205 12.214 52.292 33.588 52.292 67.937 0 41.987-35.115 79.39-99.238 79.39-32.443.001-68.319-11.452-96.183-35.497zM451.077 44.809c0 8.952-.771 13.569-2.309 16.936-1.542 3.272-4.815 6.639-7.894 8.473-4.33 2.783-9.526 4.138-14.336 4.138-1.636 0-20.406 0-23.485-18.769-.287-1.73-.48-3.555-.48-5.492h19.343c0 .677.094 1.354.193 2.125.386 2.887 1.443 6.159 5.294 6.159 2.788 0 4.138-1.439 4.81-3.272.672-1.928.672-4.138.672-5.774V1.788h18.191v43.021zm61.814 28.192h-14.919v-5.68c-1.824 2.605-5.195 7.513-14.82 7.513-18.092 0-19.921-14.622-19.921-21.844V19.589h15.977v29.17c0 5.868 1.251 11.059 8.468 11.059 7.988 0 9.239-5.68 9.239-11.162V19.589h15.977v53.412zm11.58-53.412h14.919v5.68c1.829-2.595 5.195-7.504 14.721-7.504 17.998 0 19.827 14.632 19.827 21.844v33.392h-15.977V43.85c0-5.877-1.251-11.077-8.374-11.077-7.89 0-9.14 5.68-9.14 11.171v29.057H524.47V19.589zm60.855-17.801h15.977v12.121h-15.977V1.788zm0 17.801h15.977v53.412h-15.977V19.589zm25.041 26.565c0-12.986 9.333-28.295 28.775-28.295s28.775 15.309 28.775 28.399c0 13.08-9.333 28.38-28.775 28.38s-28.775-15.3-28.775-28.38v-.104zm15.977.197c0 7.692 5.868 13.372 12.798 13.372s12.798-5.68 12.798-13.466c0-7.805-5.868-13.485-12.798-13.485s-12.798 5.68-12.798 13.485v.094zm50.558-26.762h15.013v5.971c1.537-2.887 4.33-7.796 13.569-7.796v16.071h-.578c-8.181 0-12.032 2.981-12.032 10.485v28.681h-15.972V19.589zM422.495 141.308c0 8.275 5.101 9.723 7.41 9.723 4.33 0 6.93-3.555 6.93-6.827 0-3.761-2.986-4.909-13.955-9.535-5.007-2.012-17.42-7.015-17.42-20.406 0-14.331 12.991-21.929 24.924-21.929 9.817 0 23.678 5.003 23.965 22.126h-17.998c-.386-2.398-.959-6.93-6.545-6.93-3.174 0-6.253 2.219-6.253 5.586 0 3.272 1.923 4.138 14.726 9.911 13.278 5.962 16.649 12.131 16.649 20.406 0 11.359-5.967 22.813-24.83 22.813-18.671 0-26.179-10.983-25.695-24.938h18.092zm40.449-29.828h15.013v5.868c3.465-4.044 8.759-7.692 16.94-7.692 18.957 0 26.081 16.644 26.081 29.057 0 15.403-10.781 28.004-25.987 28.004-9.625 0-14.148-4.617-16.071-6.639v22.625h-15.977V111.48zm42.057 26.659c0-6.253-4.622-13.569-13.376-13.569-3.851 0-7.217 1.542-9.625 4.044-2.309 2.407-3.752 5.868-3.752 9.723 0 3.743 1.443 7.109 3.846 9.516a13.46 13.46 0 0 0 9.53 3.949c8.374 0 13.376-6.827 13.376-13.569v-.094zm38.145 5.576c.672 5.68 6.061 9.441 12.319 9.441 5.101 0 7.796-2.219 9.719-5.012h16.362c-2.6 5.971-6.352 10.588-10.875 13.663-4.429 3.178-9.719 4.815-15.206 4.815-15.304 0-28.295-12.413-28.295-28.286 0-14.923 11.74-28.681 28.004-28.681 8.181 0 15.21 3.169 20.213 8.463 6.738 7.222 8.759 15.779 7.504 25.596h-39.745zm24.059-12.121c-.386-2.501-3.658-8.473-11.933-8.473s-11.548 5.971-11.933 8.473h23.866zm79.046 12.986c-2.887 12.131-13.569 22.042-28.004 22.042-16.169 0-28.587-12.695-28.587-28.587 0-15.685 12.225-28.38 28.201-28.38 14.148 0 25.601 9.328 28.295 22.418h-16.169c-1.735-3.658-4.909-7.504-11.548-7.504-3.757-.188-6.93 1.251-9.239 3.752-2.215 2.501-3.465 5.971-3.465 9.817 0 7.796 5.101 13.569 12.704 13.569 6.639 0 9.813-3.855 11.548-7.128h16.264zm8.793-50.91h15.977v12.13h-15.977V93.67zm0 17.81h15.977v53.412h-15.977V111.48zm83.644 53.412h-15.972v-5.774c-2.887 5.191-9.53 7.598-15.784 7.598-16.94 0-26.852-13.278-26.852-28.577 0-17.519 12.605-28.483 26.852-28.483 8.755 0 13.663 4.232 15.784 7.504v-5.68h15.972v53.412zm-42.631-26.462c0 4.909 3.658 13.372 13.278 13.372 5.68 0 9.145-2.689 11.167-5.962 1.345-2.125 2.022-4.429 2.215-6.836.193-2.407-.292-4.815-1.349-7.024-1.73-3.658-5.388-7.41-12.126-7.41-9.145 0-13.184 7.692-13.184 13.767v.093zm54.315-44.76h15.977v71.222h-15.977V93.67zm27.538 0h15.977v12.13H777.91V93.67zm0 17.81h15.977v53.412H777.91V111.48zm50.257 15.008c-.099-1.147-.292-4.044-5.007-4.044-3.366 0-4.523 2.125-4.523 3.573 0 2.398 3.949 4.034 8.181 5.285 9.046 2.501 18.671 5.2 18.671 16.748 0 11.745-9.911 18.666-21.75 18.666-8.082 0-20.307-3.649-21.75-17.697h15.883c.672 4.909 5.388 4.909 6.061 4.909 2.694 0 5.581-1.542 5.581-4.147 0-3.658-3.945-4.138-14.148-8.078-6.926-2.219-12.699-6.742-12.699-13.955 0-11.077 9.62-18.092 20.688-18.092 7.029 0 19.155 2.783 20.5 16.832h-15.688zm28.511-2.878h-7.894v-12.13h7.894V93.67h15.972v17.81h7.701v12.131h-7.701v41.281h-15.972V123.61zm53.332 2.878c-.099-1.147-.292-4.044-5.007-4.044-3.366 0-4.523 2.125-4.523 3.573 0 2.398 3.949 4.034 8.181 5.285 9.046 2.501 18.671 5.2 18.671 16.748 0 11.745-9.911 18.666-21.75 18.666-8.082 0-20.307-3.649-21.75-17.697h15.883c.672 4.909 5.388 4.909 6.061 4.909 2.694 0 5.581-1.542 5.581-4.147 0-3.658-3.945-4.138-14.148-8.078-6.926-2.219-12.699-6.742-12.699-13.955 0-11.077 9.62-18.092 20.688-18.092 7.029 0 19.155 2.783 20.5 16.832H910.01zM479.08 230.115c-4.138 16.851-18.765 28.013-35.992 28.013-22.329 0-37.534-17.801-37.534-37.059 0-18.186 14.054-36.852 37.341-36.852 22.329 0 34.262 17.218 36.185 28.389h-19.052c-2.022-5.294-7.41-12.413-17.227-12.413-12.225 0-19.056 10.682-19.056 20.782 0 10.776 7.316 21.177 19.15 21.177 11.359 0 15.977-9.535 17.133-12.036h19.052zm6.301-.189c0-12.996 9.333-28.295 28.775-28.295s28.775 15.3 28.775 28.389-9.333 28.399-28.775 28.399-28.775-15.309-28.775-28.399v-.094zm15.976.189c0 7.711 5.868 13.381 12.798 13.381s12.798-5.67 12.798-13.475c0-7.786-5.868-13.466-12.798-13.466s-12.798 5.68-12.798 13.466v.094zm50.558-26.744h15.013v5.962c1.537-2.887 4.33-7.796 13.569-7.796v16.071h-.578c-8.181 0-12.032 2.99-12.032 10.494v28.681h-15.972v-53.412zm35.052 0h15.013v5.868c3.465-4.044 8.759-7.701 16.94-7.701 18.957 0 26.081 16.654 26.081 29.066 0 15.394-10.781 28.004-25.987 28.004-9.624 0-14.148-4.627-16.071-6.639v22.616h-15.977v-71.214zm42.057 26.65c0-6.253-4.622-13.56-13.377-13.56-3.851 0-7.217 1.533-9.625 4.034-2.309 2.407-3.752 5.877-3.752 9.723 0 3.752 1.443 7.118 3.846 9.526a13.46 13.46 0 0 0 9.53 3.949c8.374 0 13.377-6.836 13.377-13.579v-.093zm22.554-.095c0-12.996 9.333-28.295 28.775-28.295s28.775 15.3 28.775 28.389-9.333 28.399-28.775 28.399-28.775-15.309-28.775-28.399v-.094zm15.977.189c0 7.711 5.868 13.381 12.798 13.381s12.798-5.67 12.798-13.475c0-7.786-5.868-13.466-12.798-13.466s-12.798 5.68-12.798 13.466v.094zm50.558-26.744h15.013v5.962c1.537-2.887 4.33-7.796 13.569-7.796v16.071h-.578c-8.181 0-12.032 2.99-12.032 10.494v28.681h-15.972v-53.412zm91.153 53.412h-15.972v-5.774c-2.887 5.191-9.53 7.598-15.784 7.598-16.94 0-26.852-13.278-26.852-28.587 0-17.509 12.605-28.483 26.852-28.483 8.755 0 13.663 4.241 15.784 7.504v-5.67h15.972v53.412zm-42.631-26.471c0 4.909 3.658 13.381 13.278 13.381 5.68 0 9.145-2.699 11.167-5.971 1.345-2.116 2.022-4.429 2.215-6.836.193-2.407-.292-4.815-1.349-7.015-1.73-3.667-5.388-7.41-12.126-7.41-9.145 0-13.184 7.692-13.184 13.757v.094zm57.493-14.82h-7.894v-12.121h7.894v-17.81H840.1v17.81h7.701v12.121H840.1v41.291h-15.972v-41.291zm30.623-29.931h15.977v12.131h-15.977v-12.131zm0 17.81h15.977v53.412h-15.977v-53.412zm25.037 26.555c0-12.996 9.333-28.295 28.775-28.295s28.775 15.3 28.775 28.389-9.333 28.399-28.775 28.399-28.775-15.309-28.775-28.399v-.094zm15.976.189c0 7.711 5.868 13.381 12.798 13.381s12.798-5.67 12.798-13.475c0-7.786-5.868-13.466-12.798-13.466s-12.798 5.68-12.798 13.466v.094zm50.652-26.744h14.919v5.67c1.829-2.595 5.195-7.504 14.721-7.504 17.998 0 19.827 14.622 19.827 21.844v33.401h-15.977v-29.17c0-5.868-1.251-11.059-8.374-11.059-7.89 0-9.14 5.68-9.14 11.153v29.076h-15.977v-53.411z" fill="#fff"/></svg>