<svg width="252" height="248" fill="none" xmlns="http://www.w3.org/2000/svg"><g clip-path="url(#clip0)"><path d="M62.04 178.91c18.082 0 32.74-8.462 32.74-18.9 0-10.438-14.658-18.9-32.74-18.9s-32.74 8.462-32.74 18.9c0 10.438 14.658 18.9 32.74 18.9zm58.21 33.45c18.082 0 32.74-8.462 32.74-18.9 0-10.438-14.658-18.9-32.74-18.9s-32.74 8.462-32.74 18.9c0 10.438 14.658 18.9 32.74 18.9zm61.03 35.25c18.082 0 32.74-8.462 32.74-18.9 0-10.438-14.658-18.9-32.74-18.9s-32.74 8.462-32.74 18.9c0 10.438 14.658 18.9 32.74 18.9z" fill="#B8CCCE"/><path d="M239.155 124.972l1.292 1.842 5.362-3.762-1.293-1.842-5.361 3.762zm1.919-4.097l1.292 1.842 5.362-3.763-1.293-1.841-5.361 3.762z" fill="#FDD762"/><path d="M243.02 116.807l1.292 1.841 5.362-3.761-1.292-1.842-5.362 3.762zm1.884-4.121l1.293 1.842 5.361-3.762-1.292-1.842-5.362 3.762z" fill="#FDD762"/><path d="M24.19 58.36L13.7 52.3 3.21 58.36l10.49 6.05 10.49-6.05z" fill="#D4ECFF"/><path d="M13.7 58.79v-6.82l12.54-7.23v6.82L13.7 58.79z" fill="#E8A200"/><path d="M13.7 51.97L1.17 44.74v6.82l12.53 7.23v-6.82z" fill="#F9BF30"/><path d="M26.24 44.74L13.7 37.5 1.17 44.74l12.53 7.23 12.54-7.23z" fill="#FDD762"/><path d="M22.01 44.74l-8.31-4.8-8.3 4.8 8.3 4.79 8.31-4.79z" fill="#E8A200"/><path d="M13.7 45.64v-6.82l12.54-7.24v6.83L13.7 45.64zm0-6.82L1.17 31.58v6.83l12.53 7.23v-6.82z" fill="#007C8A"/><path d="M26.24 31.58L13.7 24.35 1.17 31.58l12.53 7.24 12.54-7.24zm149.22 51.33c-5.05 0-9.17-4.11-9.17-9.17 0-5.05 4.11-9.17 9.17-9.17 5.05 0 9.17 4.11 9.17 9.17-.01 5.06-4.12 9.17-9.17 9.17zm0-16.33c-3.95 0-7.17 3.21-7.17 7.17 0 3.95 3.21 7.17 7.17 7.17 3.95 0 7.17-3.21 7.17-7.17-.01-3.96-3.22-7.17-7.17-7.17z" fill="#008E71"/><path d="M167.29 86.41a6.63 6.63 0 1 0 0-13.26 6.63 6.63 0 0 0 0 13.26z" fill="#FDD762"/><path d="M7.18 86.014L.464 92.733l1.415 1.414 6.717-6.717-1.414-1.415z" fill="#008E71"/><path d="M1.878 86.014L.463 87.43l6.718 6.717 1.414-1.414-6.717-6.718z" fill="#008E71"/><path d="M14.67 153.56a4.86 4.86 0 1 0 0-9.72 4.86 4.86 0 0 0 0 9.72z" fill="#FDD762"/><path d="M102.29 132.66h-1.56c-1.75-3.43-4.97-6.67-9.66-9.38-14.96-8.64-39.21-8.64-54.17 0-4.69 2.71-7.91 5.95-9.66 9.38h-1.56v6.26c0 5.66 3.74 11.32 11.22 15.64 14.96 8.64 39.21 8.64 54.17 0 7.48-4.32 11.22-9.98 11.22-15.64v-6.26z" fill="#F9BF30"/><path d="M55.68 117.33c-6.88.88-13.43 2.86-18.78 5.95-4.69 2.71-7.91 5.95-9.66 9.38h-1.56v6.26c0 5.66 3.74 11.32 11.22 15.64 5.35 3.09 11.9 5.07 18.78 5.95v-43.18z" fill="#FDD762"/><path d="M91.18 154.49c7.41-4.31 11.12-9.94 11.12-15.58v-6.26h-1.56c-1.49-2.93-4.06-5.71-7.69-8.15h-1.87v29.99z" fill="#E8A200"/><path opacity=".4" d="M100.32 131.94c-.47-.82-1.02-1.62-1.66-2.4v18.8c.64-.79 1.19-1.59 1.66-2.41v-13.99zm-63.42-8.66c-2.08 1.2-3.85 2.51-5.35 3.89v23.51c.52.48 1.07.95 1.66 1.41V126.6h3.13v27.62c.19.11.37.23.56.34.36.21.73.41 1.1.61V126.6h3.13v30.07c.55.24 1.1.46 1.66.68V126.6h3.13v31.82c.55.17 1.1.33 1.66.48v-32.3h3.13v33.06c.55.12 1.1.23 1.66.33V126.6h3.13v33.88c.55.07 1.11.14 1.66.2V126.6h3.13v34.33c.55.03 1.11.05 1.66.07v-34.4h3.13v34.42c.55-.01 1.11-.03 1.66-.05V126.6h3.13v34.16c.56-.05 1.11-.11 1.66-.17V126.6h3.13v33.55c.56-.09 1.11-.2 1.66-.3V126.6h3.13v32.54c.56-.14 1.11-.29 1.66-.45V126.6h3.13v31.07c.56-.2 1.12-.41 1.66-.64V126.6h3.13v29.02c.56-.28 1.12-.58 1.66-.88V126.6h3.13v26.15c.59-.42 1.14-.85 1.66-1.29V126.6h.28a30.812 30.812 0 0 0-4.73-3.32c-3.49-2.01-7.49-3.55-11.75-4.63H48.62c-4.23 1.08-8.23 2.62-11.72 4.63zm-8.48 7.44c-.44.64-.85 1.28-1.18 1.94h-.48v11.47c.43 1.02.98 2.02 1.66 3.01v-16.42z" fill="#E8A200"/><path d="M63.99 154.78c21.158 0 38.31-9.903 38.31-22.12 0-12.216-17.152-22.12-38.31-22.12s-38.31 9.904-38.31 22.12c0 12.217 17.152 22.12 38.31 22.12z" fill="#FDD762"/><path opacity=".2" d="M72.57 136.44c11.01-6.36 13.91-15.62 8.7-23.51-14.37-4.2-32.36-2.84-44.37 4.1-11.01 6.36-13.91 15.62-8.7 23.51 14.37 4.2 32.36 2.84 44.37-4.1z" fill="#fff"/><path opacity=".7" d="M91.07 148.3c-14.96 8.64-39.21 8.64-54.17 0-7.23-4.17-10.95-9.6-11.2-15.07-.26 5.85 3.47 11.75 11.2 16.21 14.96 8.64 39.21 8.64 54.17 0 7.73-4.46 11.45-10.36 11.2-16.21-.24 5.47-3.97 10.9-11.2 15.07z" fill="#fff"/><path d="M63.99 148.36c15.016 0 27.19-7.029 27.19-15.7s-12.174-15.7-27.19-15.7c-15.017 0-27.19 7.029-27.19 15.7s12.173 15.7 27.19 15.7z" fill="#E8A200"/><path d="M44.76 123c10.62-6.13 27.83-6.13 38.45 0 4.99 2.88 7.64 6.61 7.93 10.38.33-4.25-2.31-8.57-7.93-11.82-10.62-6.13-27.83-6.13-38.45 0-5.62 3.25-8.27 7.56-7.93 11.82.29-3.78 2.94-7.5 7.93-10.38z" fill="#F9BF30"/><path d="M77.36 125.25l-2.11.6.6.24-2.06 1.19c-1.68-.82-3.42-1.23-5.22-1.22-1.8.01-3.47.46-5.02 1.36-.62.36-1.13.73-1.52 1.1-.39.37-.66.76-.81 1.16-.15.4-.24.77-.27 1.11-.03.34-.01.74.05 1.21l.24 1.92c.07.55.09 1 .05 1.35-.04.35-.19.71-.46 1.09-.26.38-.66.72-1.21 1.03-.97.56-1.83.62-2.58.19-.57-.33-.72-.74-.44-1.24.28-.5 1.05-1.11 2.29-1.85v-1.44l-1.8.68-2.59-1.1c-1.59.97-2.61 1.89-3.07 2.76l-.3-.33v1.41h.01c.01.97.75 1.92 2.23 2.87l-1.02.59-1.39-.64v1.44l1.25.72 2.44-1.41c1.53.71 3.17 1.04 4.93.98 1.76-.06 3.31-.47 4.65-1.25.67-.39 1.22-.8 1.65-1.23.43-.43.73-.87.92-1.33.18-.46.3-.9.34-1.32.04-.42.04-.88-.01-1.4l-.21-1.86c-.03-.37-.05-.64-.05-.81 0-.17.03-.4.09-.7.06-.3.2-.57.42-.8.22-.23.52-.46.9-.68.4-.23.86-.38 1.38-.44.53-.06.99.01 1.38.23.2.11.35.22.43.33.06.08.07.16.08.24l-2.14.45v1.44l4.34 1.93c.36-.22.67-.43.95-.63.28-.19.57-.43.88-.7.3-.27.55-.53.73-.78.18-.25.32-.53.41-.85.04-.15.06-.29.07-.43v-1.52l-.55.12c-.01-.01-.01-.02-.02-.03-.28-.34-.67-.67-1.16-.99l2.28-1.32v-1.44h.02z" fill="#F9BF30"/><path d="M50.97 139.28l2.42-1.39c-1.65-1.05-2.39-2.11-2.22-3.19.17-1.08 1.29-2.25 3.34-3.51l4.39 1.86c-1.25.74-2.01 1.35-2.29 1.85-.28.49-.14.91.44 1.24.75.44 1.61.37 2.58-.19.54-.31.94-.66 1.21-1.03.26-.38.42-.74.46-1.09.04-.35.02-.8-.05-1.35l-.24-1.92c-.06-.46-.07-.86-.05-1.21.02-.34.11-.71.27-1.11.15-.4.42-.79.81-1.16.39-.37.89-.74 1.52-1.1 1.55-.9 3.23-1.35 5.02-1.36 1.79-.01 3.53.4 5.22 1.22l2.29-1.32 1.27.74-2.28 1.32c.49.32.88.65 1.16.99.28.34.46.66.53.95.07.29.06.6-.03.91-.09.32-.23.6-.41.85-.18.25-.42.51-.73.78-.3.27-.6.51-.88.7-.28.19-.6.4-.95.63l-4.34-1.93c.33-.2.6-.37.81-.5.21-.14.42-.28.64-.45.22-.16.38-.31.47-.43.1-.12.17-.25.21-.38.04-.13.02-.25-.07-.37-.08-.11-.23-.23-.43-.33-.4-.22-.86-.3-1.38-.23-.53.07-.99.21-1.38.44-.38.22-.68.45-.9.68-.22.23-.36.5-.42.8-.06.3-.09.54-.09.7 0 .17.02.44.05.81l.21 1.86c.05.51.05.98.01 1.4-.04.42-.16.86-.34 1.32-.18.46-.49.9-.92 1.33-.43.43-.98.84-1.65 1.23-1.34.78-2.89 1.19-4.65 1.25-1.76.06-3.4-.27-4.93-.98l-2.44 1.41-1.26-.74z" fill="#FDD762"/><path d="M102.29 126.4h-1.56c-1.75-3.43-4.97-6.67-9.66-9.38-14.96-8.64-39.21-8.64-54.17 0-4.69 2.71-7.91 5.95-9.66 9.38h-1.56v6.26c0 5.66 3.74 11.32 11.22 15.64 14.96 8.64 39.21 8.64 54.17 0 7.48-4.32 11.22-9.98 11.22-15.64v-6.26z" fill="#F9BF30"/><path d="M55.68 111.07c-6.88.88-13.43 2.86-18.78 5.95-4.69 2.71-7.91 5.95-9.66 9.38h-1.56v6.26c0 5.66 3.74 11.32 11.22 15.64 5.35 3.09 11.9 5.07 18.78 5.95v-43.18z" fill="#FDD762"/><path d="M91.18 148.23c7.41-4.31 11.12-9.94 11.12-15.58v-6.26h-1.56c-1.49-2.93-4.06-5.71-7.69-8.15h-1.87v29.99z" fill="#E8A200"/><path opacity=".4" d="M100.32 125.68c-.47-.82-1.02-1.62-1.66-2.4v18.8c.64-.79 1.19-1.59 1.66-2.41v-13.99zm-63.42-8.66c-2.08 1.2-3.85 2.51-5.35 3.89v23.51c.52.48 1.07.95 1.66 1.41v-25.48h3.13v27.62c.19.11.37.23.56.34.36.21.73.41 1.1.61v-28.56h3.13v30.07c.55.24 1.1.46 1.66.68v-30.74h3.13v31.82c.55.17 1.1.33 1.66.48v-32.31h3.13v33.06c.55.12 1.1.23 1.66.33v-33.39h3.13v33.88c.55.07 1.11.14 1.66.2v-34.08h3.13v34.33c.55.03 1.11.05 1.66.07v-34.4h3.13v34.42c.55-.01 1.11-.03 1.66-.05v-34.37h3.13v34.16c.56-.05 1.11-.11 1.66-.17v-33.99h3.13v33.55c.56-.09 1.11-.2 1.66-.3v-33.25h3.13v32.54c.56-.14 1.11-.29 1.66-.45v-32.09h3.13v31.07c.56-.2 1.12-.41 1.66-.64v-30.44h3.13v29.02c.56-.28 1.12-.58 1.66-.88v-28.14h3.13v26.15c.59-.42 1.14-.85 1.66-1.29v-24.86h.28a30.812 30.812 0 0 0-4.73-3.32c-3.49-2.01-7.49-3.55-11.75-4.63H48.62c-4.23 1.07-8.23 2.61-11.72 4.62zm-8.48 7.44c-.44.64-.85 1.28-1.18 1.94h-.48v11.47c.43 1.02.98 2.02 1.66 3.01v-16.42z" fill="#E8A200"/><path d="M63.99 148.52c21.158 0 38.31-9.904 38.31-22.12 0-12.217-17.152-22.12-38.31-22.12s-38.31 9.903-38.31 22.12c0 12.216 17.152 22.12 38.31 22.12z" fill="#FDD762"/><path opacity=".2" d="M72.57 130.18c11.01-6.36 13.91-15.62 8.7-23.51-14.37-4.2-32.36-2.84-44.37 4.1-11.01 6.36-13.91 15.62-8.7 23.51 14.37 4.2 32.36 2.84 44.37-4.1z" fill="#fff"/><path opacity=".7" d="M91.07 142.04c-14.96 8.64-39.21 8.64-54.17 0-7.23-4.17-10.95-9.6-11.2-15.07-.26 5.85 3.47 11.75 11.2 16.21 14.96 8.64 39.21 8.64 54.17 0 7.73-4.46 11.45-10.36 11.2-16.21-.24 5.47-3.97 10.9-11.2 15.07z" fill="#fff"/><path d="M63.99 142.1c15.016 0 27.19-7.029 27.19-15.7s-12.174-15.7-27.19-15.7c-15.017 0-27.19 7.029-27.19 15.7s12.173 15.7 27.19 15.7z" fill="#E8A200"/><path d="M44.76 116.74c10.62-6.13 27.83-6.13 38.45 0 4.99 2.88 7.64 6.61 7.93 10.38.33-4.25-2.31-8.57-7.93-11.82-10.62-6.13-27.83-6.13-38.45 0-5.62 3.25-8.27 7.56-7.93 11.82.29-3.78 2.94-7.5 7.93-10.38z" fill="#F9BF30"/><path d="M77.36 118.99l-2.11.6.6.24-2.06 1.19c-1.68-.82-3.42-1.23-5.22-1.22-1.8.01-3.47.46-5.02 1.36-.62.36-1.13.73-1.52 1.1-.39.37-.66.76-.81 1.16-.15.4-.24.77-.27 1.11-.03.34-.01.74.05 1.21l.24 1.92c.07.55.09 1 .05 1.35-.04.35-.19.71-.46 1.09-.26.38-.66.72-1.21 1.03-.97.56-1.83.62-2.58.19-.57-.33-.72-.74-.44-1.24.28-.5 1.05-1.11 2.29-1.85v-1.44l-1.8.68-2.59-1.1c-1.59.97-2.61 1.89-3.07 2.76l-.3-.33v1.41h.01c.01.97.75 1.92 2.23 2.87l-1.02.59-1.39-.64v1.44l1.25.72 2.44-1.41c1.53.71 3.17 1.04 4.93.98 1.76-.06 3.31-.47 4.65-1.25.67-.39 1.22-.8 1.65-1.23.43-.43.73-.87.92-1.33.18-.46.3-.9.34-1.32.04-.42.04-.88-.01-1.4l-.21-1.86c-.03-.37-.05-.64-.05-.81 0-.17.03-.4.09-.7.06-.3.2-.57.42-.8.22-.23.52-.46.9-.68.4-.23.86-.38 1.38-.44.53-.06.99.01 1.38.23.2.11.35.22.43.33.06.08.07.16.08.24l-2.14.45v1.44l4.34 1.93c.36-.22.67-.43.95-.63.28-.19.57-.43.88-.7.3-.27.55-.53.73-.78.18-.25.32-.53.41-.85.04-.15.06-.29.07-.43v-1.52l-.55.12c-.01-.01-.01-.02-.02-.03-.28-.34-.67-.67-1.16-.99l2.28-1.32v-1.44h.02z" fill="#F9BF30"/><path d="M50.97 133.02l2.42-1.39c-1.65-1.05-2.39-2.11-2.22-3.19.17-1.08 1.29-2.25 3.34-3.51l4.39 1.86c-1.25.74-2.01 1.35-2.29 1.85-.28.49-.14.91.44 1.24.75.44 1.61.37 2.58-.19.54-.31.94-.66 1.21-1.03.26-.38.42-.74.46-1.09.04-.35.02-.8-.05-1.35L61 124.3c-.06-.46-.07-.86-.05-1.21.02-.34.11-.71.27-1.11.15-.4.42-.79.81-1.16.39-.37.89-.74 1.52-1.1 1.55-.9 3.23-1.35 5.02-1.36 1.79-.01 3.53.4 5.22 1.22l2.29-1.32 1.27.74-2.28 1.32c.49.32.88.65 1.16.99.28.34.46.66.53.95.07.29.06.6-.03.91-.09.32-.23.6-.41.85-.18.25-.42.51-.73.78-.3.27-.6.51-.88.7-.28.19-.6.4-.95.63l-4.34-1.93c.33-.2.6-.37.81-.5.21-.14.42-.28.64-.45.22-.16.38-.31.47-.43.1-.12.17-.25.21-.38.04-.13.02-.25-.07-.37-.08-.11-.23-.23-.43-.33-.4-.22-.86-.3-1.38-.23-.53.07-.99.21-1.38.44-.38.22-.68.45-.9.68-.22.23-.36.5-.42.8-.06.3-.09.54-.09.7 0 .17.02.44.05.81l.21 1.86c.05.51.05.98.01 1.4-.04.42-.16.86-.34 1.32-.18.46-.49.9-.92 1.33-.43.43-.98.84-1.65 1.23-1.34.78-2.89 1.19-4.65 1.25-1.76.06-3.4-.27-4.93-.98l-2.44 1.41-1.25-.74z" fill="#FDD762"/><path d="M102.29 120.14h-1.56c-1.75-3.43-4.97-6.67-9.66-9.38-14.96-8.64-39.21-8.64-54.17 0-4.69 2.71-7.91 5.95-9.66 9.38h-1.56v6.26c0 5.66 3.74 11.32 11.22 15.64 14.96 8.64 39.21 8.64 54.17 0 7.48-4.32 11.22-9.98 11.22-15.64v-6.26z" fill="#F9BF30"/><path d="M55.68 104.81c-6.88.88-13.43 2.86-18.78 5.95-4.69 2.71-7.91 5.95-9.66 9.38h-1.56v6.26c0 5.66 3.74 11.32 11.22 15.64 5.35 3.09 11.9 5.07 18.78 5.95v-43.18z" fill="#FDD762"/><path d="M91.18 141.97c7.41-4.31 11.12-9.94 11.12-15.58v-6.26h-1.56c-1.49-2.93-4.06-5.71-7.69-8.15h-1.87v29.99z" fill="#E8A200"/><path opacity=".4" d="M100.32 119.41c-.47-.82-1.02-1.62-1.66-2.4v18.8c.64-.79 1.19-1.59 1.66-2.41v-13.99zm-63.42-8.65c-2.08 1.2-3.85 2.51-5.35 3.89v23.51c.52.48 1.07.95 1.66 1.41v-25.48h3.13v27.62c.19.11.37.23.56.34.36.21.73.41 1.1.61V114.1h3.13v30.07c.55.24 1.1.46 1.66.68v-30.74h3.13v31.82c.55.17 1.1.33 1.66.48V114.1h3.13v33.06c.55.12 1.1.23 1.66.33V114.1h3.13v33.88c.55.07 1.11.14 1.66.2V114.1h3.13v34.33c.55.03 1.11.05 1.66.07v-34.4h3.13v34.42c.55-.01 1.11-.03 1.66-.05V114.1h3.13v34.16c.56-.05 1.11-.11 1.66-.17V114.1h3.13v33.55c.56-.09 1.11-.2 1.66-.3V114.1h3.13v32.54c.56-.14 1.11-.29 1.66-.45V114.1h3.13v31.07c.56-.2 1.12-.41 1.66-.64v-30.44h3.13v29.02c.56-.28 1.12-.58 1.66-.88v-28.14h3.13v26.15c.59-.42 1.14-.85 1.66-1.29v-24.86h.28a30.812 30.812 0 0 0-4.73-3.32c-3.49-2.01-7.49-3.55-11.75-4.63H48.62c-4.23 1.07-8.23 2.61-11.72 4.62zm-8.48 7.44c-.44.64-.85 1.28-1.18 1.94h-.48v11.47c.43 1.02.98 2.02 1.66 3.01V118.2z" fill="#E8A200"/><path d="M63.99 142.26c21.158 0 38.31-9.903 38.31-22.12S85.148 98.02 63.99 98.02s-38.31 9.903-38.31 22.12 17.152 22.12 38.31 22.12z" fill="#FDD762"/><path opacity=".2" d="M72.57 123.92c11.01-6.36 13.91-15.62 8.7-23.51-14.37-4.2-32.36-2.84-44.37 4.1-11.01 6.36-13.91 15.62-8.7 23.51 14.37 4.2 32.36 2.83 44.37-4.1z" fill="#fff"/><path opacity=".7" d="M91.07 135.78c-14.96 8.64-39.21 8.64-54.17 0-7.23-4.17-10.95-9.6-11.2-15.07-.26 5.85 3.47 11.75 11.2 16.21 14.96 8.64 39.21 8.64 54.17 0 7.73-4.46 11.45-10.36 11.2-16.21-.24 5.47-3.97 10.9-11.2 15.07z" fill="#fff"/><path d="M63.99 135.84c15.016 0 27.19-7.029 27.19-15.7s-12.174-15.7-27.19-15.7c-15.017 0-27.19 7.029-27.19 15.7s12.173 15.7 27.19 15.7z" fill="#E8A200"/><path d="M44.76 110.48c10.62-6.13 27.83-6.13 38.45 0 4.99 2.88 7.64 6.61 7.93 10.38.33-4.25-2.31-8.57-7.93-11.82-10.62-6.13-27.83-6.13-38.45 0-5.62 3.25-8.27 7.56-7.93 11.82.29-3.78 2.94-7.5 7.93-10.38z" fill="#F9BF30"/><path d="M77.36 112.73l-2.11.6.6.24-2.06 1.19c-1.68-.82-3.42-1.23-5.22-1.22-1.8.01-3.47.46-5.02 1.36-.62.36-1.13.73-1.52 1.1-.39.37-.66.76-.81 1.16-.15.4-.24.77-.27 1.11-.03.34-.01.74.05 1.21l.24 1.92c.07.55.09.99.05 1.35-.04.35-.19.71-.46 1.09-.26.38-.66.72-1.21 1.03-.97.56-1.83.62-2.58.19-.57-.33-.72-.74-.44-1.24.28-.5 1.05-1.11 2.29-1.85v-1.44l-1.8.68-2.59-1.1c-1.59.97-2.61 1.89-3.07 2.76l-.3-.33v1.41h.01c.01.97.75 1.92 2.23 2.87l-1.02.59-1.39-.64v1.44l1.25.72 2.44-1.41c1.53.71 3.17 1.04 4.93.98 1.76-.06 3.31-.47 4.65-1.25.67-.39 1.22-.8 1.65-1.23.43-.43.73-.87.92-1.33.18-.46.3-.9.34-1.32.04-.42.04-.88-.01-1.4l-.21-1.86c-.03-.37-.05-.64-.05-.81 0-.17.03-.4.09-.7.06-.3.2-.57.42-.8.22-.23.52-.46.9-.68.4-.23.86-.38 1.38-.44.53-.06.99.01 1.38.23.2.11.35.22.43.33.06.08.07.16.08.24l-2.14.45v1.44l4.34 1.93c.36-.22.67-.43.95-.63.28-.19.57-.43.88-.7.3-.27.55-.53.73-.78.18-.25.32-.53.41-.85.04-.15.06-.29.07-.43v-1.52l-.55.12c-.01-.01-.01-.02-.02-.03-.28-.34-.67-.67-1.16-.99l2.28-1.32v-1.44h.02z" fill="#F9BF30"/><path d="M50.97 126.76l2.42-1.39c-1.65-1.05-2.39-2.11-2.22-3.19.17-1.08 1.29-2.25 3.34-3.51l4.39 1.86c-1.25.74-2.01 1.35-2.29 1.85-.28.49-.14.91.44 1.24.75.44 1.61.37 2.58-.19.54-.31.94-.66 1.21-1.03.26-.38.42-.74.46-1.09.04-.35.02-.8-.05-1.35l-.24-1.92c-.06-.46-.07-.86-.05-1.21.02-.34.11-.71.27-1.11.15-.4.42-.79.81-1.16.39-.37.89-.74 1.52-1.1 1.55-.9 3.23-1.35 5.02-1.36 1.79-.01 3.53.4 5.22 1.22l2.29-1.32 1.27.74-2.28 1.32c.49.32.88.65 1.16.99.28.34.46.66.53.95.07.29.06.6-.03.91-.09.32-.23.6-.41.85-.18.25-.42.51-.73.78-.3.27-.6.51-.88.7-.28.19-.6.4-.95.63l-4.34-1.93c.33-.2.6-.37.81-.5.21-.14.42-.28.64-.45.22-.16.38-.31.47-.43.1-.12.17-.25.21-.38.04-.13.02-.25-.07-.37-.08-.11-.23-.23-.43-.33-.4-.22-.86-.3-1.38-.23-.53.07-.99.21-1.38.44-.38.22-.68.45-.9.68-.22.23-.36.5-.42.8-.06.3-.09.54-.09.7 0 .17.02.44.05.81l.21 1.86c.05.51.05.98.01 1.4-.04.42-.16.86-.34 1.32-.18.46-.49.9-.92 1.33-.43.43-.98.84-1.65 1.23-1.34.78-2.89 1.19-4.65 1.25-1.76.06-3.4-.27-4.93-.98l-2.44 1.41-1.26-.74z" fill="#FDD762"/><path d="M102.29 113.88h-1.56c-1.75-3.43-4.97-6.67-9.66-9.38-14.96-8.64-39.21-8.64-54.17 0-4.69 2.71-7.91 5.95-9.66 9.38h-1.56v6.26c0 5.66 3.74 11.32 11.22 15.64 14.96 8.64 39.21 8.64 54.17 0 7.48-4.32 11.22-9.98 11.22-15.64v-6.26z" fill="#F9BF30"/><path d="M55.68 98.55c-6.88.88-13.43 2.86-18.78 5.95-4.69 2.71-7.91 5.95-9.66 9.38h-1.56v6.26c0 5.66 3.74 11.32 11.22 15.64 5.35 3.09 11.9 5.07 18.78 5.95V98.55z" fill="#FDD762"/><path d="M91.18 135.71c7.41-4.31 11.12-9.94 11.12-15.58v-6.26h-1.56c-1.49-2.93-4.06-5.71-7.69-8.15h-1.87v29.99z" fill="#E8A200"/><path opacity=".4" d="M100.32 113.15c-.47-.82-1.02-1.62-1.66-2.4v18.8c.64-.79 1.19-1.59 1.66-2.41v-13.99zM36.9 104.5c-2.08 1.2-3.85 2.51-5.35 3.89v23.51c.52.48 1.07.95 1.66 1.41v-25.48h3.13v27.62c.19.11.37.23.56.34.36.21.73.41 1.1.61v-28.56h3.13v30.07c.55.24 1.1.46 1.66.68v-30.74h3.13v31.82c.55.17 1.1.33 1.66.48v-32.31h3.13v33.06c.55.12 1.1.23 1.66.33v-33.39h3.13v33.88c.55.07 1.11.14 1.66.2v-34.08h3.13v34.33c.55.03 1.11.05 1.66.07v-34.4h3.13v34.42c.55-.01 1.11-.03 1.66-.05v-34.37h3.13V142c.56-.05 1.11-.11 1.66-.17v-33.99h3.13v33.55c.56-.09 1.11-.2 1.66-.3v-33.25h3.13v32.54c.56-.14 1.11-.29 1.66-.45v-32.09h3.13v31.07c.56-.2 1.12-.41 1.66-.64v-30.44h3.13v29.02c.56-.28 1.12-.58 1.66-.88v-28.14h3.13v26.15c.59-.42 1.14-.85 1.66-1.29v-24.86h.28a30.812 30.812 0 0 0-4.73-3.32c-3.49-2.01-7.49-3.55-11.75-4.63H48.62c-4.23 1.07-8.23 2.61-11.72 4.62zm-8.48 7.44c-.44.64-.85 1.28-1.18 1.94h-.48v11.47c.43 1.02.98 2.02 1.66 3.01v-16.42z" fill="#E8A200"/><path d="M63.99 136c21.158 0 38.31-9.904 38.31-22.12 0-12.217-17.152-22.12-38.31-22.12s-38.31 9.903-38.31 22.12c0 12.216 17.152 22.12 38.31 22.12z" fill="#FDD762"/><path opacity=".2" d="M72.57 117.66c11.01-6.36 13.91-15.62 8.7-23.51-14.37-4.2-32.36-2.84-44.37 4.1-11.01 6.36-13.91 15.62-8.7 23.51 14.37 4.2 32.36 2.83 44.37-4.1z" fill="#fff"/><path opacity=".7" d="M91.07 129.52c-14.96 8.64-39.21 8.64-54.17 0-7.23-4.17-10.95-9.6-11.2-15.07-.26 5.85 3.47 11.75 11.2 16.21 14.96 8.64 39.21 8.64 54.17 0 7.73-4.46 11.45-10.36 11.2-16.21-.24 5.47-3.97 10.9-11.2 15.07z" fill="#fff"/><path d="M83.21 124.98c-10.62 6.13-27.83 6.13-38.45 0-10.62-6.13-10.62-16.07 0-22.2 10.62-6.13 27.83-6.13 38.45 0 10.62 6.13 10.62 16.07 0 22.2z" fill="#E8A200"/><path d="M44.76 104.22c10.62-6.13 27.83-6.13 38.45 0 4.99 2.88 7.64 6.61 7.93 10.38.33-4.25-2.31-8.57-7.93-11.82-10.62-6.13-27.83-6.13-38.45 0-5.62 3.25-8.27 7.56-7.93 11.82.29-3.78 2.94-7.5 7.93-10.38z" fill="#F9BF30"/><path d="M77.36 106.47l-2.11.6.6.24-2.06 1.19c-1.68-.82-3.42-1.23-5.22-1.22-1.8.01-3.47.46-5.02 1.36-.62.36-1.13.73-1.52 1.1-.39.37-.66.76-.81 1.16-.15.4-.24.77-.27 1.11-.03.34-.01.74.05 1.21l.24 1.92c.07.55.09.99.05 1.35-.04.35-.19.71-.46 1.09-.26.38-.66.72-1.21 1.03-.97.56-1.83.62-2.58.19-.57-.33-.72-.74-.44-1.24.28-.5 1.05-1.11 2.29-1.85v-1.44l-1.8.68-2.59-1.1c-1.59.97-2.61 1.89-3.07 2.76l-.3-.33v1.41h.01c.01.97.75 1.92 2.23 2.87l-1.02.59-1.39-.64v1.44l1.25.72 2.44-1.41c1.53.71 3.17 1.04 4.93.98 1.76-.06 3.31-.47 4.65-1.25.67-.39 1.22-.8 1.65-1.23.43-.43.73-.87.92-1.33.18-.46.3-.9.34-1.32.04-.42.04-.88-.01-1.4l-.21-1.86c-.03-.37-.05-.64-.05-.81 0-.17.03-.4.09-.7.06-.3.2-.57.42-.8.22-.23.52-.46.9-.68.4-.23.86-.38 1.38-.44.53-.06.99.01 1.38.23.2.11.35.22.43.33.06.08.07.16.08.24l-2.14.45v1.44l4.34 1.93c.36-.22.67-.43.95-.63.28-.19.57-.43.88-.7.3-.27.55-.53.73-.78.18-.25.32-.53.41-.85.04-.15.06-.29.07-.43v-1.52l-.55.12c-.01-.01-.01-.02-.02-.03-.28-.34-.67-.67-1.16-.99l2.28-1.32v-1.44h.02z" fill="#F9BF30"/><path d="M50.97 120.5l2.42-1.39c-1.65-1.05-2.39-2.11-2.22-3.19.17-1.08 1.29-2.25 3.34-3.51l4.39 1.86c-1.25.74-2.01 1.35-2.29 1.85-.28.49-.14.91.44 1.24.75.44 1.61.37 2.58-.19.54-.31.94-.66 1.21-1.03.26-.38.42-.74.46-1.09.04-.35.02-.8-.05-1.35l-.24-1.92c-.06-.46-.07-.86-.05-1.21.02-.34.11-.71.27-1.11.15-.4.42-.79.81-1.16.39-.37.89-.74 1.52-1.1 1.55-.9 3.23-1.35 5.02-1.36 1.79-.01 3.53.4 5.22 1.22l2.29-1.32 1.27.74-2.28 1.32c.49.32.88.65 1.16.99.28.34.46.66.53.95.07.29.06.6-.03.91-.09.32-.23.6-.41.85-.18.25-.42.51-.73.78-.3.27-.6.51-.88.7-.28.19-.6.4-.95.63l-4.34-1.93c.33-.2.6-.37.81-.5.21-.14.42-.28.64-.45.22-.16.38-.31.47-.43.1-.12.17-.25.21-.38.04-.13.02-.25-.07-.37-.08-.11-.23-.23-.43-.33-.4-.22-.86-.3-1.38-.23-.53.07-.99.21-1.38.44-.38.22-.68.45-.9.68-.22.23-.36.5-.42.8-.06.3-.09.54-.09.7 0 .17.02.44.05.81l.21 1.86c.05.51.05.98.01 1.4-.04.42-.16.86-.34 1.32-.18.46-.49.9-.92 1.33-.43.43-.98.84-1.65 1.23-1.34.78-2.89 1.19-4.65 1.25-1.76.06-3.4-.27-4.93-.98l-2.44 1.41-1.26-.74z" fill="#FDD762"/><path d="M102.29 107.62h-1.56c-1.75-3.43-4.97-6.67-9.66-9.38-14.96-8.64-39.21-8.64-54.17 0-4.69 2.71-7.91 5.95-9.66 9.38h-1.56v6.26c0 5.66 3.74 11.32 11.22 15.64 14.96 8.64 39.21 8.64 54.17 0 7.48-4.32 11.22-9.98 11.22-15.64v-6.26z" fill="#F9BF30"/><path d="M55.68 92.29c-6.88.88-13.43 2.86-18.78 5.95-4.69 2.71-7.91 5.95-9.66 9.38h-1.56v6.26c0 5.66 3.74 11.32 11.22 15.64 5.35 3.09 11.9 5.07 18.78 5.95V92.29z" fill="#FDD762"/><path d="M91.18 129.45c7.41-4.31 11.12-9.94 11.12-15.58v-6.26h-1.56c-1.49-2.93-4.06-5.71-7.69-8.15h-1.87v29.99z" fill="#E8A200"/><path opacity=".4" d="M100.32 106.89c-.47-.82-1.02-1.62-1.66-2.4v18.8c.64-.79 1.19-1.59 1.66-2.41v-13.99zM36.9 98.24c-2.08 1.2-3.85 2.51-5.35 3.89v23.51c.52.48 1.07.95 1.66 1.41v-25.48h3.13v27.62c.19.11.37.23.56.34.36.21.73.41 1.1.61v-28.56h3.13v30.07c.55.24 1.1.46 1.66.68v-30.74h3.13v31.82c.55.17 1.1.33 1.66.48v-32.31h3.13v33.06c.55.12 1.1.23 1.66.33v-33.39h3.13v33.88c.55.07 1.11.14 1.66.2v-34.08h3.13v34.33c.55.03 1.11.05 1.66.07v-34.4h3.13V136c.55-.01 1.11-.03 1.66-.05v-34.37h3.13v34.16c.56-.05 1.11-.11 1.66-.17v-33.99h3.13v33.55c.56-.09 1.11-.2 1.66-.3v-33.25h3.13v32.54c.56-.14 1.11-.29 1.66-.45v-32.09h3.13v31.07c.56-.2 1.12-.41 1.66-.64v-30.44h3.13v29.02c.56-.28 1.12-.58 1.66-.88v-28.14h3.13v26.15c.59-.42 1.14-.85 1.66-1.29v-24.86h.28a30.812 30.812 0 0 0-4.73-3.32c-3.49-2.01-7.49-3.55-11.75-4.63H48.62c-4.23 1.07-8.23 2.6-11.72 4.62zm-8.48 7.44c-.44.64-.85 1.28-1.18 1.94h-.48v11.47c.43 1.02.98 2.02 1.66 3.01v-16.42z" fill="#E8A200"/><path d="M63.99 129.74c21.158 0 38.31-9.903 38.31-22.12S85.148 85.5 63.99 85.5s-38.31 9.903-38.31 22.12 17.152 22.12 38.31 22.12z" fill="#FDD762"/><path opacity=".2" d="M72.57 111.4c11.01-6.36 13.91-15.62 8.7-23.51-14.37-4.2-32.36-2.84-44.37 4.1-11.01 6.36-13.91 15.62-8.7 23.51 14.37 4.2 32.36 2.83 44.37-4.1z" fill="#fff"/><path opacity=".7" d="M91.07 123.26c-14.96 8.64-39.21 8.64-54.17 0-7.23-4.17-10.95-9.6-11.2-15.07-.26 5.85 3.47 11.75 11.2 16.21 14.96 8.64 39.21 8.64 54.17 0 7.73-4.46 11.45-10.36 11.2-16.21-.24 5.47-3.97 10.9-11.2 15.07z" fill="#fff"/><path d="M63.99 123.32c15.016 0 27.19-7.029 27.19-15.7s-12.174-15.7-27.19-15.7c-15.017 0-27.19 7.029-27.19 15.7s12.173 15.7 27.19 15.7z" fill="#E8A200"/><path d="M44.76 97.96c10.62-6.13 27.83-6.13 38.45 0 4.99 2.88 7.64 6.61 7.93 10.38.33-4.25-2.31-8.57-7.93-11.82-10.62-6.13-27.83-6.13-38.45 0-5.62 3.25-8.27 7.56-7.93 11.82.29-3.78 2.94-7.5 7.93-10.38z" fill="#F9BF30"/><path d="M77.36 100.21l-2.11.6.6.24-2.06 1.19c-1.68-.82-3.42-1.23-5.22-1.22-1.8.01-3.47.46-5.02 1.36-.62.36-1.13.73-1.52 1.1-.39.37-.66.76-.81 1.16-.15.4-.24.77-.27 1.11-.03.34-.01.74.05 1.21l.24 1.92c.07.55.09.99.05 1.35-.04.35-.19.71-.46 1.09-.26.38-.66.72-1.21 1.03-.97.56-1.83.62-2.58.19-.57-.33-.72-.74-.44-1.24.28-.5 1.05-1.11 2.29-1.85v-1.44l-1.8.68-2.59-1.1c-1.59.97-2.61 1.89-3.07 2.76l-.3-.33v1.41h.01c.01.97.75 1.92 2.23 2.87l-1.02.59-1.39-.64v1.44l1.25.72 2.44-1.41c1.53.71 3.17 1.04 4.93.98 1.76-.06 3.31-.48 4.65-1.25.67-.39 1.22-.8 1.65-1.23.43-.43.73-.87.92-1.33.18-.46.3-.9.34-1.32.04-.42.04-.88-.01-1.4l-.21-1.86c-.03-.37-.05-.64-.05-.81 0-.17.03-.4.09-.7.06-.3.2-.57.42-.8.22-.23.52-.46.9-.68.4-.23.86-.38 1.38-.44.53-.06.99.01 1.38.23.2.11.35.22.43.33.06.08.07.16.08.24l-2.14.45v1.44l4.34 1.93c.36-.22.67-.43.95-.63.28-.19.57-.43.88-.7.3-.27.55-.53.73-.78.18-.25.32-.53.41-.85.04-.15.06-.29.07-.43v-1.52l-.55.12c-.01-.01-.01-.02-.02-.03-.28-.34-.67-.67-1.16-.99l2.28-1.32v-1.44h.02z" fill="#F9BF30"/><path d="M50.97 114.24l2.42-1.39c-1.65-1.05-2.39-2.11-2.22-3.19.17-1.08 1.29-2.25 3.34-3.51l4.39 1.86c-1.25.74-2.01 1.35-2.29 1.85-.28.49-.14.91.44 1.24.75.44 1.61.37 2.58-.19.54-.31.94-.66 1.21-1.03.26-.38.42-.74.46-1.09.04-.35.02-.8-.05-1.35l-.24-1.92c-.06-.46-.07-.86-.05-1.21.02-.34.11-.71.27-1.11.15-.4.42-.79.81-1.16.39-.37.89-.74 1.52-1.1 1.55-.9 3.23-1.35 5.02-1.36 1.79-.01 3.53.4 5.22 1.22l2.29-1.32 1.27.74-2.28 1.32c.49.32.88.65 1.16.99.28.34.46.66.53.95.07.29.06.6-.03.91-.09.32-.23.6-.41.85-.18.25-.42.51-.73.78-.3.27-.6.51-.88.7-.28.19-.6.4-.95.63l-4.34-1.93c.33-.2.6-.37.81-.5.21-.14.42-.28.64-.45.22-.16.38-.31.47-.43.1-.12.17-.25.21-.38.04-.13.02-.25-.07-.37-.08-.11-.23-.23-.43-.33-.4-.22-.86-.3-1.38-.23-.53.07-.99.21-1.38.44-.38.22-.68.45-.9.68-.22.23-.36.5-.42.8-.06.3-.09.54-.09.7 0 .17.02.44.05.81l.21 1.86c.05.51.05.98.01 1.4-.04.42-.16.86-.34 1.32-.18.46-.49.9-.92 1.33-.43.43-.98.84-1.65 1.23-1.34.78-2.89 1.19-4.65 1.25-1.76.06-3.4-.27-4.93-.98l-2.44 1.41-1.26-.74z" fill="#FDD762"/><path d="M102.29 101.36h-1.56c-1.75-3.43-4.97-6.67-9.66-9.38-14.96-8.64-39.21-8.64-54.17 0-4.69 2.71-7.91 5.95-9.66 9.38h-1.56v6.26c0 5.66 3.74 11.32 11.22 15.64 14.96 8.64 39.21 8.64 54.17 0 7.48-4.32 11.22-9.98 11.22-15.64v-6.26z" fill="#F9BF30"/><path d="M55.68 86.03c-6.88.88-13.43 2.86-18.78 5.95-4.69 2.71-7.91 5.95-9.66 9.38h-1.56v6.26c0 5.66 3.74 11.32 11.22 15.64 5.35 3.09 11.9 5.07 18.78 5.95V86.03z" fill="#FDD762"/><path d="M91.18 123.19c7.41-4.31 11.12-9.94 11.12-15.58v-6.26h-1.56c-1.49-2.93-4.06-5.71-7.69-8.15h-1.87v29.99z" fill="#E8A200"/><path opacity=".4" d="M100.32 100.63a17.47 17.47 0 0 0-1.66-2.4v18.799c.64-.79 1.19-1.59 1.66-2.41V100.63zM36.9 91.98c-2.08 1.2-3.85 2.51-5.35 3.89v23.51c.52.48 1.07.95 1.66 1.41V95.3h3.13v27.62c.19.11.37.23.56.34.36.21.73.41 1.1.61V95.3h3.13v30.07c.55.24 1.1.46 1.66.68V95.3h3.13v31.82c.55.17 1.1.33 1.66.48V95.3h3.13v33.06c.55.12 1.1.23 1.66.33V95.3h3.13v33.88c.55.07 1.11.14 1.66.2V95.3h3.13v34.33c.55.03 1.11.05 1.66.07V95.3h3.13v34.42c.55-.01 1.11-.03 1.66-.05V95.3h3.13v34.16c.56-.05 1.11-.11 1.66-.17V95.3h3.13v33.55c.56-.09 1.11-.2 1.66-.3V95.3h3.13v32.54c.56-.14 1.11-.29 1.66-.45V95.3h3.13v31.07c.56-.2 1.12-.41 1.66-.64V95.3h3.13v29.02c.56-.28 1.12-.58 1.66-.88V95.3h3.13v26.15c.59-.42 1.14-.85 1.66-1.29V95.3h.28a30.812 30.812 0 0 0-4.73-3.32c-3.49-2.01-7.49-3.55-11.75-4.63H48.62c-4.23 1.08-8.23 2.61-11.72 4.63zm-8.48 7.44c-.44.639-.85 1.279-1.18 1.939h-.48v11.47c.43 1.02.98 2.02 1.66 3.01v-16.42z" fill="#E8A200"/><path d="M63.99 123.48c21.158 0 38.31-9.904 38.31-22.12 0-12.217-17.152-22.12-38.31-22.12s-38.31 9.903-38.31 22.12c0 12.216 17.152 22.12 38.31 22.12z" fill="#FDD762"/><path opacity=".2" d="M72.57 105.14c11.01-6.36 13.91-15.62 8.7-23.51-14.37-4.2-32.36-2.84-44.37 4.1-11.01 6.36-13.91 15.62-8.7 23.51 14.37 4.2 32.36 2.83 44.37-4.1z" fill="#fff"/><path opacity=".7" d="M91.07 117c-14.96 8.64-39.21 8.64-54.17 0-7.23-4.17-10.95-9.6-11.2-15.07-.26 5.85 3.47 11.75 11.2 16.21 14.96 8.64 39.21 8.64 54.17 0 7.73-4.46 11.45-10.36 11.2-16.21-.24 5.47-3.97 10.9-11.2 15.07z" fill="#fff"/><path d="M63.99 117.06c15.016 0 27.19-7.029 27.19-15.7s-12.174-15.7-27.19-15.7c-15.017 0-27.19 7.029-27.19 15.7s12.173 15.7 27.19 15.7z" fill="#E8A200"/><path d="M44.76 91.69c10.62-6.13 27.83-6.13 38.45 0 4.99 2.88 7.64 6.61 7.93 10.38.33-4.25-2.31-8.57-7.93-11.82-10.62-6.13-27.83-6.13-38.45 0-5.62 3.25-8.27 7.56-7.93 11.82.29-3.77 2.94-7.49 7.93-10.38z" fill="#F9BF30"/><path d="M77.36 93.95l-2.11.6.6.24-2.06 1.19c-1.68-.82-3.42-1.23-5.22-1.22-1.8.01-3.47.46-5.02 1.36-.62.36-1.13.73-1.52 1.1-.39.37-.66.76-.81 1.16-.15.4-.24.77-.27 1.11-.03.34-.01.74.05 1.21l.24 1.92c.07.55.09.99.05 1.35-.04.35-.19.71-.46 1.09-.26.38-.66.72-1.21 1.03-.97.56-1.83.62-2.58.19-.57-.33-.72-.74-.44-1.24.28-.5 1.05-1.11 2.29-1.85v-1.44l-1.8.68-2.59-1.1c-1.59.97-2.61 1.89-3.07 2.76l-.3-.33v1.41h.01c.01.97.75 1.92 2.23 2.87l-1.02.59-1.39-.64v1.44l1.25.72 2.44-1.41c1.53.71 3.17 1.04 4.93.98 1.76-.06 3.31-.47 4.65-1.25.67-.39 1.22-.8 1.65-1.23.43-.43.73-.87.92-1.33.18-.46.3-.9.34-1.32.04-.42.04-.88-.01-1.4l-.21-1.86c-.03-.37-.05-.64-.05-.81 0-.17.03-.4.09-.7.06-.3.2-.57.42-.8.22-.23.52-.46.9-.68.4-.23.86-.38 1.38-.44.53-.06.99.01 1.38.23.2.11.35.22.43.33.06.08.07.16.08.24l-2.14.45v1.44l4.34 1.93c.36-.22.67-.43.95-.63.28-.19.57-.43.88-.7.3-.27.55-.53.73-.78.18-.25.32-.53.41-.85.04-.15.06-.29.07-.43v-1.52l-.55.12c-.01-.01-.01-.02-.02-.03-.28-.34-.67-.67-1.16-.99l2.28-1.32v-1.44h.02z" fill="#F9BF30"/><path d="M50.97 107.98l2.42-1.39c-1.65-1.05-2.39-2.11-2.22-3.19.17-1.08 1.29-2.25 3.34-3.51l4.39 1.86c-1.25.74-2.01 1.35-2.29 1.85-.28.49-.14.91.44 1.24.75.44 1.61.37 2.58-.19.54-.31.94-.66 1.21-1.03.26-.38.42-.74.46-1.09.04-.35.02-.8-.05-1.35l-.24-1.92c-.06-.46-.07-.86-.05-1.21.02-.34.11-.71.27-1.11.15-.4.42-.79.81-1.16.39-.37.89-.74 1.52-1.1 1.55-.9 3.23-1.35 5.02-1.36 1.79-.01 3.53.4 5.22 1.22l2.29-1.32 1.27.74-2.28 1.32c.49.32.88.65 1.16.99.28.34.46.66.53.95.07.29.06.6-.03.91-.09.32-.23.6-.41.85-.18.25-.42.51-.73.78-.3.27-.6.51-.88.7-.28.19-.6.4-.95.63l-4.34-1.93c.33-.2.6-.37.81-.5.21-.14.42-.28.64-.45.22-.16.38-.31.47-.43.1-.12.17-.25.21-.38.04-.13.02-.25-.07-.37-.08-.11-.23-.23-.43-.33-.4-.22-.86-.3-1.38-.23-.53.07-.99.21-1.38.44-.38.22-.68.45-.9.68-.22.23-.36.5-.42.8-.06.3-.09.54-.09.7 0 .17.02.44.05.81l.21 1.86c.05.51.05.98.01 1.4-.04.42-.16.86-.34 1.32-.18.46-.49.9-.92 1.33-.43.43-.98.84-1.65 1.23-1.34.78-2.89 1.19-4.65 1.25-1.76.06-3.4-.27-4.93-.98l-2.44 1.41-1.26-.74z" fill="#FDD762"/><path d="M105.03 95.1h-1.56c-1.75-3.43-4.97-6.67-9.66-9.38-14.96-8.64-39.21-8.64-54.17 0-4.69 2.71-7.91 5.95-9.66 9.38h-1.56v6.26c0 5.66 3.74 11.32 11.22 15.64 14.96 8.64 39.21 8.64 54.17 0 7.48-4.32 11.22-9.98 11.22-15.64V95.1z" fill="#F9BF30"/><path d="M58.42 79.77c-6.88.88-13.43 2.86-18.78 5.95-4.69 2.71-7.91 5.95-9.66 9.38h-1.56v6.26c0 5.66 3.74 11.32 11.22 15.64 5.35 3.09 11.9 5.07 18.78 5.95V79.77z" fill="#FDD762"/><path d="M93.91 116.93c7.41-4.31 11.12-9.94 11.12-15.58v-6.26h-1.56c-1.49-2.93-4.06-5.71-7.69-8.15h-1.87v29.99z" fill="#E8A200"/><path opacity=".4" d="M103.06 94.37c-.47-.82-1.02-1.62-1.66-2.4v18.8c.64-.79 1.19-1.59 1.66-2.41V94.37zm-63.42-8.65c-2.08 1.2-3.85 2.51-5.35 3.89v23.51c.52.48 1.07.95 1.66 1.41V89.05h3.13v27.62c.19.11.37.23.56.34.36.21.73.41 1.1.61V89.06h3.13v30.07c.55.24 1.1.46 1.66.68V89.07h3.13v31.82c.55.17 1.1.33 1.66.48V89.06h3.13v33.06c.55.12 1.1.23 1.66.33V89.06h3.13v33.88c.55.07 1.11.14 1.66.2V89.06h3.13v34.33c.55.03 1.11.05 1.66.07v-34.4h3.13v34.42c.55-.01 1.11-.03 1.66-.05V89.06h3.13v34.16c.56-.05 1.11-.11 1.66-.17V89.06h3.13v33.55c.56-.09 1.11-.2 1.66-.3V89.06h3.13v32.54c.56-.14 1.11-.29 1.66-.45V89.06h3.13v31.07c.56-.2 1.12-.41 1.66-.64V89.05h3.13v29.02c.56-.28 1.12-.58 1.66-.88V89.05h3.13v26.15c.59-.42 1.14-.85 1.66-1.29V89.05h.28a30.812 30.812 0 0 0-4.73-3.32c-3.49-2.01-7.49-3.55-11.75-4.63H51.36c-4.23 1.07-8.23 2.6-11.72 4.62zm-8.48 7.44c-.44.64-.85 1.28-1.18 1.94h-.48v11.47c.43 1.02.98 2.02 1.66 3.01V93.16z" fill="#E8A200"/><path d="M66.72 117.22c21.158 0 38.31-9.903 38.31-22.12S87.878 72.98 66.72 72.98 28.41 82.883 28.41 95.1s17.152 22.12 38.31 22.12z" fill="#FDD762"/><path opacity=".2" d="M75.3 98.88c11.01-6.36 13.91-15.62 8.7-23.51-14.37-4.2-32.36-2.84-44.37 4.1-11.01 6.36-13.91 15.62-8.7 23.51 14.37 4.2 32.37 2.83 44.37-4.1z" fill="#fff"/><path opacity=".7" d="M93.81 110.74c-14.96 8.64-39.21 8.64-54.17 0-7.23-4.17-10.95-9.6-11.2-15.07-.26 5.85 3.47 11.75 11.2 16.21 14.96 8.64 39.21 8.64 54.17 0 7.73-4.46 11.45-10.36 11.2-16.21-.25 5.47-3.97 10.9-11.2 15.07z" fill="#fff"/><path d="M66.72 110.8c15.016 0 27.19-7.029 27.19-15.7S81.736 79.4 66.72 79.4c-15.017 0-27.19 7.029-27.19 15.7s12.173 15.7 27.19 15.7z" fill="#E8A200"/><path d="M47.5 85.43c10.62-6.13 27.83-6.13 38.45 0 4.99 2.88 7.64 6.61 7.93 10.38.33-4.25-2.31-8.57-7.93-11.82-10.62-6.13-27.83-6.13-38.45 0-5.62 3.25-8.27 7.56-7.93 11.82.29-3.77 2.93-7.49 7.93-10.38z" fill="#F9BF30"/><path d="M80.1 87.69l-2.11.6.6.24-2.06 1.19c-1.68-.82-3.42-1.23-5.22-1.22-1.8.01-3.47.46-5.02 1.36-.62.36-1.13.73-1.52 1.1-.39.37-.66.76-.81 1.16-.15.4-.24.77-.27 1.11-.03.34-.01.74.05 1.21l.24 1.92c.07.55.09.99.05 1.35-.04.35-.19.71-.46 1.09-.26.38-.66.72-1.21 1.03-.97.56-1.83.62-2.58.19-.57-.33-.72-.74-.44-1.24.28-.5 1.05-1.11 2.29-1.85v-1.44l-1.8.68-2.59-1.1c-1.59.97-2.61 1.89-3.07 2.76l-.3-.33v1.41h.01c.01.97.75 1.92 2.23 2.87l-1.02.59-1.39-.64v1.44l1.25.72 2.44-1.41c1.53.71 3.17 1.04 4.93.98 1.76-.06 3.31-.48 4.65-1.25.67-.39 1.22-.8 1.65-1.23.43-.43.73-.87.92-1.33.18-.46.3-.9.34-1.32.04-.42.04-.88-.01-1.4l-.21-1.86c-.03-.37-.05-.64-.05-.81 0-.17.03-.4.09-.7.06-.3.2-.57.42-.8.22-.23.52-.46.9-.68.4-.23.86-.38 1.38-.44.53-.06.99.01 1.38.23.2.11.35.22.43.33.06.08.07.16.08.24l-2.14.45v1.44l4.34 1.93c.36-.22.67-.43.95-.63.28-.19.57-.43.88-.7.3-.27.55-.53.73-.78.18-.25.32-.53.41-.85.04-.15.06-.29.07-.43v-1.52l-.55.12c-.01-.01-.01-.02-.02-.03-.28-.34-.67-.67-1.16-.99l2.28-1.32v-1.44h.02z" fill="#F9BF30"/><path d="M53.7 101.72l2.42-1.39c-1.65-1.05-2.39-2.11-2.22-3.19.17-1.08 1.29-2.25 3.34-3.51l4.39 1.86c-1.25.74-2.01 1.35-2.29 1.85-.28.49-.14.91.44 1.24.75.44 1.61.37 2.58-.19.54-.31.94-.66 1.21-1.03.26-.38.42-.74.46-1.09.04-.35.02-.8-.05-1.35L63.74 93c-.06-.46-.07-.86-.05-1.21.02-.34.11-.71.27-1.11.15-.4.42-.79.81-1.16.39-.37.89-.74 1.52-1.1 1.55-.9 3.23-1.35 5.02-1.36 1.79-.01 3.53.4 5.22 1.22l2.29-1.32 1.27.74-2.28 1.32c.49.32.88.65 1.16.99.28.34.46.66.53.95.07.29.06.6-.03.91-.09.32-.23.6-.41.85-.18.25-.42.51-.73.78-.3.27-.6.51-.88.7-.28.19-.6.4-.95.63l-4.34-1.93c.33-.2.6-.37.81-.5.21-.14.42-.28.64-.45.22-.16.38-.31.47-.43.1-.12.17-.25.21-.38.04-.13.02-.25-.07-.37-.08-.11-.23-.23-.43-.33-.4-.22-.86-.3-1.38-.23-.53.07-.99.21-1.38.44-.38.22-.68.45-.9.68-.22.23-.36.5-.42.8-.06.3-.09.54-.09.7 0 .17.02.44.05.81l.21 1.86c.05.51.05.98.01 1.4-.04.42-.16.86-.34 1.32-.18.46-.49.9-.92 1.33-.43.43-.98.84-1.65 1.23-1.34.78-2.89 1.19-4.65 1.25-1.76.06-3.4-.27-4.93-.98l-2.44 1.41-1.26-.74z" fill="#FDD762"/><path d="M97.33 87.46h-1.56c-1.75-3.43-4.97-6.67-9.66-9.38-14.96-8.64-39.21-8.64-54.17 0-4.69 2.71-7.91 5.95-9.66 9.38h-1.56v6.26c0 5.66 3.74 11.32 11.22 15.64 14.96 8.64 39.21 8.64 54.17 0 7.48-4.32 11.22-9.98 11.22-15.64v-6.26z" fill="#F9BF30"/><path d="M50.72 72.13c-6.88.88-13.43 2.86-18.78 5.95-4.69 2.71-7.91 5.95-9.66 9.38h-1.56v6.26c0 5.66 3.74 11.32 11.22 15.64 5.35 3.09 11.9 5.07 18.78 5.95V72.13z" fill="#FDD762"/><path d="M86.22 109.29c7.41-4.31 11.12-9.94 11.11-15.58v-6.26h-1.56c-1.49-2.93-4.06-5.71-7.69-8.15h-1.87v29.99h.01z" fill="#E8A200"/><path opacity=".4" d="M95.36 86.73c-.47-.82-1.02-1.62-1.66-2.4v18.8c.64-.79 1.19-1.59 1.66-2.41V86.73zm-63.42-8.65c-2.08 1.2-3.85 2.51-5.35 3.89v23.51c.52.48 1.07.95 1.66 1.41V81.4h3.13v27.62c.19.11.37.23.56.34.36.21.73.41 1.1.61V81.4h3.13v30.07c.55.24 1.1.46 1.66.68V81.4h3.13v31.82c.55.17 1.1.33 1.66.48V81.4h3.13v33.06c.55.12 1.1.23 1.66.33V81.4h3.13v33.88c.55.07 1.11.14 1.66.2V81.4h3.13v34.33c.55.03 1.11.05 1.66.07V81.4h3.13v34.42c.55-.01 1.11-.03 1.66-.05V81.4h3.13v34.16c.56-.05 1.11-.11 1.66-.17V81.4h3.13v33.55c.56-.09 1.11-.2 1.66-.3V81.4h3.13v32.54c.56-.14 1.11-.29 1.66-.45V81.4h3.13v31.07c.56-.2 1.12-.41 1.66-.64V81.4h3.13v29.02c.56-.28 1.12-.58 1.66-.88V81.4h3.13v26.15c.59-.42 1.14-.85 1.66-1.29V81.4h.28a30.812 30.812 0 0 0-4.73-3.32c-3.49-2.01-7.49-3.55-11.75-4.63H43.7c-4.27 1.08-8.27 2.61-11.76 4.63zm-8.48 7.44c-.44.64-.85 1.28-1.18 1.94h-.48v11.47c.43 1.02.98 2.02 1.66 3.01V85.52z" fill="#E8A200"/><path d="M59.03 109.58c21.158 0 38.31-9.904 38.31-22.12 0-12.217-17.152-22.12-38.31-22.12s-38.31 9.903-38.31 22.12c0 12.216 17.152 22.12 38.31 22.12z" fill="#FDD762"/><path opacity=".2" d="M67.61 91.24c11.01-6.36 13.91-15.62 8.7-23.51-14.37-4.2-32.36-2.84-44.37 4.1-11.01 6.36-13.91 15.62-8.7 23.51 14.37 4.2 32.36 2.83 44.37-4.1z" fill="#fff"/><path opacity=".7" d="M86.12 103.1c-14.96 8.64-39.21 8.64-54.17 0-7.23-4.17-10.95-9.6-11.2-15.07-.26 5.85 3.47 11.75 11.2 16.21 14.96 8.64 39.21 8.64 54.17 0 7.73-4.46 11.45-10.36 11.2-16.21-.25 5.47-3.98 10.9-11.2 15.07z" fill="#fff"/><path d="M59.03 103.16c15.016 0 27.19-7.03 27.19-15.7 0-8.671-12.174-15.7-27.19-15.7-15.017 0-27.19 7.029-27.19 15.7 0 8.67 12.173 15.7 27.19 15.7z" fill="#E8A200"/><path d="M39.8 77.79c10.62-6.13 27.83-6.13 38.45 0 4.99 2.88 7.64 6.61 7.93 10.38.33-4.25-2.31-8.57-7.93-11.82-10.62-6.13-27.83-6.13-38.45 0-5.62 3.25-8.27 7.56-7.93 11.82.3-3.77 2.94-7.49 7.93-10.38z" fill="#F9BF30"/><path d="M72.4 80.05l-2.11.6.6.24-2.06 1.19c-1.68-.82-3.42-1.23-5.22-1.22-1.8.01-3.47.46-5.02 1.36-.62.36-1.13.73-1.52 1.1-.39.37-.66.76-.81 1.16-.15.4-.24.77-.27 1.11-.03.34-.01.74.05 1.21l.24 1.92c.07.55.09.99.05 1.35-.04.35-.19.71-.46 1.09-.26.38-.66.72-1.21 1.03-.97.56-1.83.62-2.58.19-.57-.33-.72-.74-.44-1.24.28-.5 1.05-1.11 2.29-1.85v-1.44l-1.8.68-2.59-1.1c-1.59.97-2.61 1.89-3.07 2.76l-.3-.33v1.41h.01c.01.97.75 1.92 2.23 2.87l-1.02.59-1.39-.64v1.44l1.25.72 2.44-1.41c1.53.71 3.17 1.04 4.93.98 1.76-.06 3.31-.47 4.65-1.25.67-.39 1.22-.8 1.65-1.23.43-.43.73-.87.92-1.33.18-.46.3-.9.34-1.32.04-.42.04-.88-.01-1.4l-.21-1.86c-.03-.37-.05-.64-.05-.81 0-.17.03-.4.09-.7.06-.3.2-.57.42-.8.22-.23.52-.46.9-.68.4-.23.86-.38 1.38-.44.53-.06.99.01 1.38.23.2.11.35.22.43.33.06.08.08.16.08.24l-2.14.45v1.44l4.34 1.93c.36-.22.67-.43.95-.63.28-.19.57-.43.88-.7.3-.27.55-.53.73-.78.18-.25.32-.53.41-.85.04-.15.06-.29.07-.43v-1.52l-.55.12c-.01-.01-.01-.02-.02-.03-.28-.34-.67-.67-1.16-.99l2.28-1.32v-1.44h.02z" fill="#F9BF30"/><path d="M46.01 94.08l2.42-1.39c-1.65-1.05-2.39-2.11-2.22-3.19.17-1.08 1.29-2.25 3.34-3.51l4.39 1.86c-1.25.74-2.01 1.35-2.29 1.85-.28.49-.14.91.44 1.24.75.44 1.61.37 2.58-.19.54-.31.94-.66 1.21-1.03.26-.38.42-.74.46-1.09.04-.35.02-.8-.05-1.35l-.24-1.92c-.06-.46-.07-.86-.05-1.21.02-.34.11-.71.27-1.11.15-.4.42-.79.81-1.16.39-.37.89-.74 1.52-1.1 1.55-.9 3.23-1.35 5.02-1.36 1.79-.01 3.53.4 5.22 1.22l2.29-1.32 1.27.74-2.28 1.32c.49.32.88.65 1.16.99.28.34.46.66.53.95.07.29.06.6-.03.91-.09.32-.23.6-.41.85-.18.25-.42.51-.73.78-.3.27-.6.51-.88.7-.28.19-.6.4-.95.63l-4.34-1.93c.33-.2.6-.37.81-.5.21-.14.42-.28.64-.45.22-.16.38-.31.47-.43.1-.12.17-.25.21-.38.04-.13.02-.25-.07-.37-.08-.11-.23-.23-.43-.33-.4-.22-.86-.3-1.38-.23-.53.07-.99.21-1.38.44-.38.22-.68.45-.9.68-.22.23-.36.5-.42.8-.06.3-.09.54-.09.7 0 .17.02.44.05.81l.21 1.86c.05.51.05.98.01 1.4-.04.42-.16.86-.34 1.32-.18.46-.49.9-.92 1.33-.43.43-.98.84-1.65 1.23-1.34.78-2.89 1.19-4.65 1.25-1.76.06-3.4-.27-4.93-.98l-2.44 1.41-1.26-.74z" fill="#FDD762"/><path d="M160.39 166.77h-1.56c-1.75-3.43-4.97-6.67-9.66-9.38-14.96-8.64-39.21-8.64-54.17 0-4.69 2.71-7.91 5.95-9.66 9.38h-1.56v6.26c0 5.66 3.74 11.32 11.22 15.64 14.96 8.64 39.21 8.64 54.17 0 7.48-4.32 11.22-9.98 11.22-15.64v-6.26z" fill="#F9BF30"/><path d="M113.78 151.44c-6.88.88-13.43 2.86-18.78 5.95-4.69 2.71-7.91 5.95-9.66 9.38h-1.56v6.26c0 5.66 3.74 11.32 11.22 15.64 5.35 3.09 11.9 5.07 18.78 5.95v-43.18z" fill="#FDD762"/><path d="M149.27 188.6c7.41-4.31 11.12-9.94 11.11-15.58v-6.26h-1.56c-1.49-2.93-4.06-5.71-7.69-8.15h-1.87v29.99h.01z" fill="#E8A200"/><path opacity=".4" d="M158.42 166.04c-.47-.82-1.02-1.62-1.66-2.4v18.8c.64-.79 1.19-1.59 1.66-2.41v-13.99zM95 157.38c-2.08 1.2-3.85 2.51-5.35 3.89v23.51c.52.48 1.07.95 1.66 1.41v-25.48h3.13v27.62c.19.11.37.23.56.34.36.21.73.41 1.1.61v-28.56h3.13v30.07c.55.24 1.1.46 1.66.68v-30.74h3.13v31.82c.55.17 1.1.33 1.66.48v-32.31h3.13v33.06c.55.12 1.1.23 1.66.33v-33.39h3.13v33.88c.55.07 1.11.14 1.66.2v-34.08h3.13v34.33c.55.03 1.11.05 1.66.07v-34.4h3.13v34.42c.55-.01 1.11-.03 1.66-.05v-34.37h3.13v34.16c.56-.05 1.11-.11 1.66-.17v-33.99h3.13v33.55c.56-.09 1.11-.2 1.66-.3v-33.25h3.13v32.54c.56-.14 1.11-.29 1.66-.45v-32.09h3.13v31.07c.56-.2 1.12-.41 1.66-.64v-30.44h3.13v29.02c.56-.28 1.12-.58 1.66-.88v-28.14h3.13v26.15c.59-.42 1.14-.85 1.66-1.29v-24.86h.28a30.812 30.812 0 0 0-4.73-3.32c-3.49-2.01-7.49-3.55-11.75-4.63h-30.66c-4.23 1.07-8.23 2.61-11.72 4.62zm-8.48 7.45c-.44.64-.85 1.28-1.18 1.94h-.48v11.47c.43 1.02.98 2.02 1.66 3.01v-16.42z" fill="#E8A200"/><path d="M122.08 188.89c21.158 0 38.31-9.904 38.31-22.12 0-12.217-17.152-22.12-38.31-22.12s-38.31 9.903-38.31 22.12c0 12.216 17.152 22.12 38.31 22.12z" fill="#FDD762"/><path opacity=".2" d="M130.66 170.55c11.01-6.36 13.91-15.62 8.7-23.51-14.37-4.2-32.36-2.84-44.37 4.1-11.01 6.36-13.91 15.62-8.7 23.51 14.37 4.19 32.37 2.83 44.37-4.1z" fill="#fff"/><path opacity=".7" d="M149.17 182.41c-14.96 8.64-39.21 8.64-54.17 0-7.23-4.17-10.95-9.6-11.2-15.07-.26 5.85 3.47 11.75 11.2 16.21 14.96 8.64 39.21 8.64 54.17 0 7.73-4.46 11.45-10.36 11.2-16.21-.25 5.47-3.97 10.89-11.2 15.07z" fill="#fff"/><path d="M122.08 182.47c15.017 0 27.19-7.029 27.19-15.7s-12.173-15.7-27.19-15.7c-15.017 0-27.19 7.029-27.19 15.7s12.173 15.7 27.19 15.7z" fill="#E8A200"/><path d="M102.86 157.1c10.62-6.13 27.83-6.13 38.45 0 4.99 2.88 7.64 6.61 7.93 10.38.33-4.25-2.31-8.57-7.93-11.82-10.62-6.13-27.83-6.13-38.45 0-5.62 3.25-8.27 7.56-7.93 11.82.29-3.77 2.93-7.5 7.93-10.38z" fill="#F9BF30"/><path d="M135.46 159.35l-2.11.6.6.24-2.06 1.19c-1.68-.82-3.42-1.23-5.22-1.22-1.8.01-3.47.46-5.02 1.36-.62.36-1.13.73-1.52 1.1-.39.37-.66.76-.81 1.16-.15.4-.24.77-.27 1.11-.03.34-.01.74.05 1.21l.24 1.92c.07.55.09.99.05 1.35-.04.35-.19.71-.46 1.09-.26.38-.66.72-1.21 1.03-.97.56-1.83.62-2.58.19-.57-.33-.72-.74-.44-1.24.28-.5 1.05-1.11 2.29-1.85v-1.44l-1.8.68-2.59-1.1c-1.59.97-2.61 1.89-3.07 2.76l-.3-.33v1.41h.01c.01.97.75 1.92 2.23 2.87l-1.02.59-1.39-.64v1.44l1.25.72 2.44-1.41c1.53.71 3.17 1.04 4.93.98 1.76-.06 3.31-.47 4.65-1.25.67-.39 1.22-.8 1.65-1.23.43-.43.73-.87.92-1.33.18-.46.3-.9.34-1.32.04-.42.04-.88-.01-1.4l-.21-1.86c-.03-.37-.05-.64-.05-.81 0-.17.03-.4.09-.7.06-.3.2-.57.42-.8.22-.23.52-.46.9-.68.4-.23.86-.38 1.38-.44.53-.06.99.01 1.38.23.2.11.35.22.43.33.06.08.08.16.08.24l-2.14.45v1.44l4.34 1.93c.36-.22.67-.43.95-.63.28-.19.57-.43.88-.7.3-.27.55-.53.73-.78.18-.25.32-.53.41-.85.04-.15.06-.29.07-.43v-1.52l-.55.12c-.01-.01-.01-.02-.02-.03-.28-.34-.67-.67-1.16-.99l2.28-1.32v-1.44h.02z" fill="#F9BF30"/><path d="M109.06 173.39l2.42-1.39c-1.65-1.05-2.39-2.11-2.22-3.19.17-1.08 1.29-2.25 3.34-3.51l4.39 1.86c-1.25.74-2.01 1.35-2.29 1.85-.28.49-.14.91.44 1.24.75.44 1.61.37 2.58-.19.54-.31.94-.66 1.21-1.03.26-.38.42-.74.46-1.09.04-.35.02-.8-.05-1.35l-.24-1.92c-.06-.46-.07-.86-.05-1.21.02-.34.11-.71.27-1.11.15-.4.42-.79.81-1.16.39-.37.89-.74 1.52-1.1 1.55-.9 3.23-1.35 5.02-1.36 1.79-.01 3.53.4 5.22 1.22l2.29-1.32 1.27.74-2.28 1.32c.49.32.88.65 1.16.99.28.34.46.66.53.95.07.29.06.6-.03.91-.09.32-.23.6-.41.85-.18.25-.42.51-.73.78-.3.27-.6.51-.88.7-.28.19-.6.4-.95.63l-4.34-1.93c.33-.2.6-.37.81-.5.21-.14.42-.28.64-.45.22-.16.38-.31.47-.43.1-.12.17-.25.21-.38.04-.13.02-.25-.07-.37-.08-.11-.23-.23-.43-.33-.4-.22-.86-.3-1.38-.23-.53.07-.99.21-1.38.44-.38.22-.68.45-.9.68-.22.23-.36.5-.42.8-.06.3-.09.54-.09.7 0 .17.02.44.05.81l.21 1.86c.05.51.05.98.01 1.4-.04.42-.16.86-.34 1.32-.18.46-.49.9-.92 1.33-.43.43-.98.84-1.65 1.23-1.34.78-2.89 1.19-4.65 1.25-1.76.06-3.4-.27-4.93-.98l-2.44 1.41-1.26-.74z" fill="#FDD762"/><path d="M160.39 160.51h-1.56c-1.75-3.43-4.97-6.67-9.66-9.38-14.96-8.64-39.21-8.64-54.17 0-4.69 2.71-7.91 5.95-9.66 9.38h-1.56v6.26c0 5.66 3.74 11.32 11.22 15.64 14.96 8.64 39.21 8.64 54.17 0 7.48-4.32 11.22-9.98 11.22-15.64v-6.26z" fill="#F9BF30"/><path d="M113.78 145.18c-6.88.88-13.43 2.86-18.78 5.95-4.69 2.71-7.91 5.95-9.66 9.38h-1.56v6.26c0 5.66 3.74 11.32 11.22 15.64 5.35 3.09 11.9 5.07 18.78 5.95v-43.18z" fill="#FDD762"/><path d="M149.27 182.34c7.41-4.31 11.12-9.94 11.11-15.58v-6.26h-1.56c-1.49-2.93-4.06-5.71-7.69-8.15h-1.87v29.99h.01z" fill="#E8A200"/><path opacity=".4" d="M158.42 159.78c-.47-.82-1.02-1.62-1.66-2.4v18.8c.64-.79 1.19-1.59 1.66-2.41v-13.99zM95 151.12c-2.08 1.2-3.85 2.51-5.35 3.89v23.51c.52.48 1.07.95 1.66 1.41v-25.48h3.13v27.62c.19.11.37.23.56.34.36.21.73.41 1.1.61v-28.56h3.13v30.07c.55.24 1.1.46 1.66.68v-30.74h3.13v31.82c.55.17 1.1.33 1.66.48v-32.31h3.13v33.06c.55.12 1.1.23 1.66.33v-33.39h3.13v33.88c.55.07 1.11.14 1.66.2v-34.08h3.13v34.33c.55.03 1.11.05 1.66.07v-34.4h3.13v34.42c.55-.01 1.11-.03 1.66-.05v-34.37h3.13v34.16c.56-.05 1.11-.11 1.66-.17v-33.99h3.13V188c.56-.09 1.11-.2 1.66-.3v-33.25h3.13v32.54c.56-.14 1.11-.29 1.66-.45v-32.09h3.13v31.07c.56-.2 1.12-.41 1.66-.64v-30.44h3.13v29.02c.56-.28 1.12-.58 1.66-.88v-28.14h3.13v26.15c.59-.42 1.14-.85 1.66-1.29v-24.86h.28a30.812 30.812 0 0 0-4.73-3.32c-3.49-2.01-7.49-3.55-11.75-4.63h-30.66c-4.23 1.08-8.23 2.62-11.72 4.63zm-8.48 7.45c-.44.64-.85 1.28-1.18 1.94h-.48v11.47c.43 1.02.98 2.02 1.66 3.01v-16.42z" fill="#E8A200"/><path d="M122.08 182.63c21.158 0 38.31-9.903 38.31-22.12 0-12.216-17.152-22.12-38.31-22.12s-38.31 9.904-38.31 22.12c0 12.217 17.152 22.12 38.31 22.12z" fill="#FDD762"/><path opacity=".2" d="M130.66 164.29c11.01-6.36 13.91-15.62 8.7-23.51-14.37-4.2-32.36-2.84-44.37 4.1-11.01 6.36-13.91 15.62-8.7 23.51 14.37 4.19 32.37 2.83 44.37-4.1z" fill="#fff"/><path opacity=".7" d="M149.17 176.14c-14.96 8.64-39.21 8.64-54.17 0-7.23-4.17-10.95-9.6-11.2-15.07-.26 5.85 3.47 11.74 11.2 16.21 14.96 8.64 39.21 8.64 54.17 0 7.73-4.46 11.45-10.36 11.2-16.21-.25 5.48-3.97 10.9-11.2 15.07z" fill="#fff"/><path d="M122.08 176.21c15.017 0 27.19-7.029 27.19-15.7s-12.173-15.7-27.19-15.7c-15.017 0-27.19 7.029-27.19 15.7s12.173 15.7 27.19 15.7z" fill="#E8A200"/><path d="M102.86 150.84c10.62-6.13 27.83-6.13 38.45 0 4.99 2.88 7.64 6.61 7.93 10.38.33-4.25-2.31-8.57-7.93-11.82-10.62-6.13-27.83-6.13-38.45 0-5.62 3.25-8.27 7.56-7.93 11.82.29-3.77 2.93-7.5 7.93-10.38z" fill="#F9BF30"/><path d="M135.46 153.09l-2.11.6.6.24-2.06 1.19c-1.68-.82-3.42-1.23-5.22-1.22-1.8.01-3.47.46-5.02 1.36-.62.36-1.13.73-1.52 1.1-.39.37-.66.76-.81 1.16-.15.4-.24.77-.27 1.11-.03.34-.01.74.05 1.21l.24 1.92c.07.55.09.99.05 1.35-.04.35-.19.71-.46 1.09-.26.38-.66.72-1.21 1.03-.97.56-1.83.62-2.58.19-.57-.33-.72-.74-.44-1.24.28-.5 1.05-1.11 2.29-1.85v-1.44l-1.8.68-2.59-1.1c-1.59.97-2.61 1.89-3.07 2.76l-.3-.33v1.41h.01c.01.97.75 1.92 2.23 2.87l-1.02.59-1.39-.64v1.44l1.25.72 2.44-1.41c1.53.71 3.17 1.04 4.93.98 1.76-.06 3.31-.48 4.65-1.25.67-.39 1.22-.8 1.65-1.23.43-.43.73-.87.92-1.33.18-.46.3-.9.34-1.32.04-.42.04-.88-.01-1.4l-.21-1.86c-.03-.37-.05-.64-.05-.81 0-.17.03-.4.09-.7.06-.3.2-.57.42-.8.22-.23.52-.46.9-.68.4-.23.86-.38 1.38-.44.53-.06.99.01 1.38.23.2.11.35.22.43.33.06.08.08.16.08.24l-2.14.45v1.44l4.34 1.93c.36-.22.67-.43.95-.63.28-.19.57-.43.88-.7.3-.27.55-.53.73-.78.18-.25.32-.53.41-.85.04-.15.06-.29.07-.43v-1.52l-.55.12c-.01-.01-.01-.02-.02-.03-.28-.34-.67-.67-1.16-.99l2.28-1.32v-1.44h.02z" fill="#F9BF30"/><path d="M109.06 167.13l2.42-1.39c-1.65-1.05-2.39-2.11-2.22-3.19.17-1.08 1.29-2.25 3.34-3.51l4.39 1.86c-1.25.74-2.01 1.35-2.29 1.85-.28.49-.14.91.44 1.24.75.44 1.61.37 2.58-.19.54-.31.94-.66 1.21-1.03.26-.38.42-.74.46-1.09.04-.35.02-.8-.05-1.35l-.24-1.92c-.06-.46-.07-.86-.05-1.21.02-.34.11-.71.27-1.11.15-.4.42-.79.81-1.16.39-.37.89-.74 1.52-1.1 1.55-.9 3.23-1.35 5.02-1.36 1.79-.01 3.53.4 5.22 1.22l2.29-1.32 1.27.74-2.28 1.32c.49.32.88.65 1.16.99.28.34.46.66.53.95.07.29.06.6-.03.91-.09.32-.23.6-.41.85-.18.25-.42.51-.73.78-.3.27-.6.51-.88.7-.28.19-.6.4-.95.63l-4.34-1.93c.33-.2.6-.37.81-.5.21-.14.42-.28.64-.45.22-.16.38-.31.47-.43.1-.12.17-.25.21-.38.04-.13.02-.25-.07-.37-.08-.11-.23-.23-.43-.33-.4-.22-.86-.3-1.38-.23-.53.07-.99.21-1.38.44-.38.22-.68.45-.9.68-.22.23-.36.5-.42.8-.06.3-.09.54-.09.7 0 .17.02.44.05.81l.21 1.86c.05.51.05.98.01 1.4-.04.42-.16.86-.34 1.32-.18.46-.49.9-.92 1.33-.43.43-.98.84-1.65 1.23-1.34.78-2.89 1.19-4.65 1.25-1.76.06-3.4-.27-4.93-.98l-2.44 1.41-1.26-.74z" fill="#FDD762"/><path d="M155.03 157.56h-1.56c-1.75-3.43-4.97-6.67-9.66-9.38-14.96-8.64-39.21-8.64-54.17 0-4.69 2.71-7.91 5.95-9.66 9.38h-1.56v6.26c0 5.66 3.74 11.32 11.22 15.64 14.96 8.64 39.21 8.64 54.17 0 7.48-4.32 11.22-9.98 11.22-15.64v-6.26z" fill="#F9BF30"/><path d="M108.41 142.23c-6.88.88-13.43 2.86-18.78 5.95-4.69 2.71-7.91 5.95-9.66 9.38h-1.56v6.26c0 5.66 3.74 11.32 11.22 15.64 5.35 3.09 11.9 5.07 18.78 5.95v-43.18z" fill="#FDD762"/><path d="M143.91 179.39c7.41-4.31 11.12-9.94 11.11-15.58v-6.26h-1.56c-1.49-2.93-4.06-5.71-7.69-8.15h-1.87v29.99h.01z" fill="#E8A200"/><path opacity=".4" d="M153.05 156.84c-.47-.82-1.02-1.62-1.66-2.4v18.8c.64-.79 1.19-1.59 1.66-2.41v-13.99zm-63.42-8.66c-2.08 1.2-3.85 2.51-5.35 3.89v23.51c.52.48 1.07.95 1.66 1.41V151.5h3.13v27.62c.19.11.37.23.56.34.36.21.73.41 1.1.61V151.5h3.13v30.07c.55.24 1.1.46 1.66.68V151.5h3.13v31.82c.55.17 1.1.33 1.66.48v-32.3h3.13v33.06c.55.12 1.1.23 1.66.33V151.5h3.13v33.88c.55.07 1.11.14 1.66.2V151.5h3.13v34.33c.55.03 1.11.05 1.66.07v-34.4h3.13v34.42c.55-.01 1.11-.03 1.66-.05V151.5h3.13v34.16c.56-.05 1.11-.11 1.66-.17V151.5h3.13v33.55c.56-.09 1.11-.2 1.66-.3V151.5h3.13v32.54c.56-.14 1.11-.29 1.66-.45V151.5h3.13v31.07c.56-.2 1.12-.41 1.66-.64V151.5h3.13v29.02c.56-.28 1.12-.58 1.66-.88V151.5h3.13v26.15c.59-.42 1.14-.85 1.66-1.29V151.5h.28a30.812 30.812 0 0 0-4.73-3.32c-3.49-2.01-7.49-3.55-11.75-4.63h-30.66c-4.23 1.08-8.23 2.62-11.72 4.63zm-8.48 7.44c-.44.64-.85 1.28-1.18 1.94h-.48v11.47c.43 1.02.98 2.02 1.66 3.01v-16.42z" fill="#E8A200"/><path d="M116.72 179.68c21.158 0 38.31-9.904 38.31-22.12 0-12.217-17.152-22.12-38.31-22.12s-38.31 9.903-38.31 22.12c0 12.216 17.152 22.12 38.31 22.12z" fill="#FDD762"/><path opacity=".2" d="M125.3 161.34c11.01-6.36 13.91-15.62 8.7-23.51-14.37-4.2-32.36-2.84-44.37 4.1-11.01 6.36-13.91 15.62-8.7 23.51 14.37 4.2 32.36 2.84 44.37-4.1z" fill="#fff"/><path opacity=".7" d="M143.81 173.2c-14.96 8.64-39.21 8.64-54.17 0-7.23-4.17-10.95-9.6-11.2-15.07-.26 5.85 3.47 11.75 11.2 16.21 14.96 8.64 39.21 8.64 54.17 0 7.73-4.46 11.45-10.36 11.2-16.21-.25 5.47-3.98 10.9-11.2 15.07z" fill="#fff"/><path d="M135.95 168.66c-10.62 6.13-27.83 6.13-38.45 0-10.62-6.13-10.62-16.07 0-22.2 10.62-6.13 27.83-6.13 38.45 0 10.62 6.13 10.62 16.07 0 22.2z" fill="#E8A200"/><path d="M97.49 147.9c10.62-6.13 27.83-6.13 38.45 0 4.99 2.88 7.64 6.61 7.93 10.38.33-4.25-2.31-8.57-7.93-11.82-10.62-6.13-27.83-6.13-38.45 0-5.62 3.25-8.27 7.56-7.93 11.82.3-3.78 2.94-7.5 7.93-10.38z" fill="#F9BF30"/><path d="M130.09 150.15l-2.11.6.6.24-2.06 1.19c-1.68-.82-3.42-1.23-5.22-1.22-1.8.01-3.47.46-5.02 1.36-.62.36-1.13.73-1.52 1.1-.39.37-.66.76-.81 1.16-.15.4-.24.77-.27 1.11-.03.34-.01.74.05 1.21l.24 1.92c.07.55.09.99.05 1.35-.04.35-.19.71-.46 1.09-.26.38-.66.72-1.21 1.03-.97.56-1.83.62-2.58.19-.57-.33-.72-.74-.44-1.24.28-.5 1.05-1.11 2.29-1.85v-1.44l-1.8.68-2.59-1.1c-1.59.97-2.61 1.89-3.07 2.76l-.3-.33v1.41h.01c.01.97.75 1.92 2.23 2.87l-1.02.59-1.39-.64v1.44l1.25.72 2.44-1.41c1.53.71 3.17 1.04 4.93.98 1.76-.06 3.31-.47 4.65-1.25.67-.39 1.22-.8 1.65-1.23.43-.43.73-.87.92-1.33.18-.46.3-.9.34-1.32.04-.42.04-.88-.01-1.4l-.21-1.86c-.03-.37-.05-.64-.05-.81 0-.17.03-.4.09-.7.06-.3.2-.57.42-.8.22-.23.52-.46.9-.68.4-.23.86-.38 1.38-.44.53-.06.99.01 1.38.23.2.11.35.22.43.33.06.08.08.16.08.24l-2.14.45v1.44l4.34 1.93c.36-.22.67-.43.95-.63.28-.19.57-.43.88-.7.3-.27.55-.53.73-.78.18-.25.32-.53.41-.85.04-.15.06-.29.07-.43v-1.52l-.55.12c-.01-.01-.01-.02-.02-.03-.28-.34-.67-.67-1.16-.99l2.28-1.32v-1.44h.02z" fill="#F9BF30"/><path d="M103.7 164.18l2.42-1.39c-1.65-1.05-2.39-2.11-2.22-3.19.17-1.08 1.29-2.25 3.34-3.51l4.39 1.86c-1.25.74-2.01 1.35-2.29 1.85-.28.49-.14.91.44 1.24.75.44 1.61.37 2.58-.19.54-.31.94-.66 1.21-1.03.26-.38.42-.74.46-1.09.04-.35.02-.8-.05-1.35l-.24-1.92c-.06-.46-.07-.86-.05-1.21.02-.34.11-.71.27-1.11.16-.4.42-.79.81-1.16.39-.37.89-.74 1.52-1.1 1.55-.9 3.23-1.35 5.02-1.36 1.79-.01 3.53.4 5.22 1.22l2.29-1.32 1.27.74-2.28 1.32c.49.32.88.65 1.16.99.28.34.46.66.53.95.07.29.06.6-.03.91-.09.32-.23.6-.41.85-.18.25-.42.51-.73.78-.3.27-.6.51-.88.7-.28.19-.6.4-.95.63l-4.34-1.93c.33-.2.6-.37.81-.5.21-.14.42-.28.64-.45.22-.16.38-.31.47-.43.1-.12.17-.25.21-.38.04-.13.02-.25-.07-.37-.08-.11-.23-.23-.43-.33-.4-.22-.86-.3-1.38-.23-.53.07-.99.21-1.38.44-.38.22-.68.45-.9.68-.22.23-.36.5-.42.8-.06.3-.09.54-.09.7 0 .17.02.44.05.81l.21 1.86c.05.51.05.98.01 1.4-.04.42-.16.86-.34 1.32-.18.46-.49.9-.92 1.33-.43.43-.98.84-1.65 1.23-1.34.78-2.89 1.19-4.65 1.25-1.76.06-3.4-.27-4.93-.98l-2.44 1.41-1.26-.74z" fill="#FDD762"/><path d="M160.39 147.99h-1.56c-1.75-3.43-4.97-6.67-9.66-9.38-14.96-8.64-39.21-8.64-54.17 0-4.69 2.71-7.91 5.95-9.66 9.38h-1.56v6.26c0 5.66 3.74 11.32 11.22 15.64 14.96 8.64 39.21 8.64 54.17 0 7.48-4.32 11.22-9.98 11.22-15.64v-6.26z" fill="#F9BF30"/><path d="M113.78 132.66c-6.88.88-13.43 2.86-18.78 5.95-4.69 2.71-7.91 5.95-9.66 9.38h-1.56v6.26c0 5.66 3.74 11.32 11.22 15.64 5.35 3.09 11.9 5.07 18.78 5.95v-43.18z" fill="#FDD762"/><path d="M149.27 169.82c7.41-4.31 11.12-9.94 11.11-15.58v-6.26h-1.56c-1.49-2.93-4.06-5.71-7.69-8.15h-1.87v29.99h.01z" fill="#E8A200"/><path opacity=".4" d="M158.42 147.26c-.47-.82-1.02-1.62-1.66-2.4v18.8c.64-.79 1.19-1.59 1.66-2.41v-13.99zM95 138.6c-2.08 1.2-3.85 2.51-5.35 3.89V166c.52.48 1.07.95 1.66 1.41v-25.48h3.13v27.62c.19.11.37.23.56.34.36.21.73.41 1.1.61v-28.56h3.13v30.07c.55.24 1.1.46 1.66.68v-30.74h3.13v31.82c.55.17 1.1.33 1.66.48v-32.31h3.13V175c.55.12 1.1.23 1.66.33v-33.39h3.13v33.88c.55.07 1.11.14 1.66.2v-34.08h3.13v34.33c.55.03 1.11.05 1.66.07v-34.4h3.13v34.42c.55-.01 1.11-.03 1.66-.05v-34.37h3.13v34.16c.56-.05 1.11-.11 1.66-.17v-33.99h3.13v33.55c.56-.09 1.11-.2 1.66-.3v-33.25h3.13v32.54c.56-.14 1.11-.29 1.66-.45v-32.09h3.13V173c.56-.2 1.12-.41 1.66-.64v-30.44h3.13v29.02c.56-.28 1.12-.58 1.66-.88v-28.14h3.13v26.15c.59-.42 1.14-.85 1.66-1.29v-24.86h.28a30.812 30.812 0 0 0-4.73-3.32c-3.49-2.01-7.49-3.55-11.75-4.63h-30.66c-4.23 1.08-8.23 2.62-11.72 4.63zm-8.48 7.45c-.44.64-.85 1.28-1.18 1.94h-.48v11.47c.43 1.02.98 2.02 1.66 3.01v-16.42z" fill="#E8A200"/><path d="M122.08 170.11c21.158 0 38.31-9.903 38.31-22.12 0-12.216-17.152-22.12-38.31-22.12s-38.31 9.904-38.31 22.12c0 12.217 17.152 22.12 38.31 22.12z" fill="#FDD762"/><path opacity=".2" d="M130.66 151.76c11.01-6.36 13.91-15.62 8.7-23.51-14.37-4.2-32.36-2.84-44.37 4.1-11.01 6.36-13.91 15.62-8.7 23.51 14.37 4.2 32.37 2.84 44.37-4.1z" fill="#fff"/><path opacity=".7" d="M149.17 163.62c-14.96 8.64-39.21 8.64-54.17 0-7.23-4.17-10.95-9.6-11.2-15.07-.26 5.85 3.47 11.75 11.2 16.21 14.96 8.64 39.21 8.64 54.17 0 7.73-4.46 11.45-10.36 11.2-16.21-.25 5.47-3.97 10.9-11.2 15.07z" fill="#fff"/><path d="M122.08 163.69c15.017 0 27.19-7.029 27.19-15.7s-12.173-15.7-27.19-15.7c-15.017 0-27.19 7.029-27.19 15.7s12.173 15.7 27.19 15.7z" fill="#E8A200"/><path d="M102.86 138.32c10.62-6.13 27.83-6.13 38.45 0 4.99 2.88 7.64 6.61 7.93 10.38.33-4.25-2.31-8.57-7.93-11.82-10.62-6.13-27.83-6.13-38.45 0-5.62 3.25-8.27 7.56-7.93 11.82.29-3.77 2.93-7.5 7.93-10.38z" fill="#F9BF30"/><path d="M135.46 140.57l-2.11.6.6.24-2.06 1.19c-1.68-.82-3.42-1.23-5.22-1.22-1.8.01-3.47.46-5.02 1.36-.62.36-1.13.73-1.52 1.1-.39.37-.66.76-.81 1.16-.15.4-.24.77-.27 1.11-.03.34-.01.74.05 1.21l.24 1.92c.07.55.09 1 .05 1.35-.04.35-.19.71-.46 1.09-.26.38-.66.72-1.21 1.03-.97.56-1.83.62-2.58.19-.57-.33-.72-.74-.44-1.24.28-.5 1.05-1.11 2.29-1.85v-1.44l-1.8.68-2.59-1.1c-1.59.97-2.61 1.89-3.07 2.76l-.3-.33v1.41h.01c.01.97.75 1.92 2.23 2.87l-1.02.59-1.39-.64v1.44l1.25.72 2.44-1.41c1.53.71 3.17 1.04 4.93.98 1.76-.06 3.31-.47 4.65-1.25.67-.39 1.22-.8 1.65-1.23.43-.43.73-.87.92-1.33.18-.46.3-.9.34-1.32.04-.42.04-.88-.01-1.4l-.21-1.86c-.03-.37-.05-.64-.05-.81 0-.17.03-.4.09-.7.06-.3.2-.57.42-.8.22-.23.52-.46.9-.68.4-.23.86-.38 1.38-.44.53-.06.99.01 1.38.23.2.11.35.22.43.33.06.08.08.16.08.24l-2.14.45v1.44l4.34 1.93c.36-.22.67-.43.95-.63.28-.19.57-.43.88-.7.3-.27.55-.53.73-.78.18-.25.32-.53.41-.85.04-.15.06-.29.07-.43v-1.52l-.55.12c-.01-.01-.01-.02-.02-.03-.28-.34-.67-.67-1.16-.99l2.28-1.32v-1.44h.02z" fill="#F9BF30"/><path d="M109.06 154.61l2.42-1.39c-1.65-1.05-2.39-2.11-2.22-3.19.17-1.08 1.29-2.25 3.34-3.51l4.39 1.86c-1.25.74-2.01 1.35-2.29 1.85-.28.49-.14.91.44 1.24.75.44 1.61.37 2.58-.19.54-.31.94-.66 1.21-1.03.26-.38.42-.74.46-1.09.04-.35.02-.8-.05-1.35l-.24-1.92c-.06-.46-.07-.86-.05-1.21.02-.34.11-.71.27-1.11.15-.4.42-.79.81-1.16.39-.37.89-.74 1.52-1.1 1.55-.9 3.23-1.35 5.02-1.36 1.79-.01 3.53.4 5.22 1.22l2.29-1.32 1.27.74-2.28 1.32c.49.32.88.65 1.16.99.28.34.46.66.53.95.07.29.06.6-.03.91-.09.32-.23.6-.41.85-.18.25-.42.51-.73.78-.3.27-.6.51-.88.7-.28.19-.6.4-.95.63l-4.34-1.93c.33-.2.6-.37.81-.5.21-.14.42-.28.64-.45.22-.16.38-.31.47-.43.1-.12.17-.25.21-.38.04-.13.02-.25-.07-.37-.08-.11-.23-.23-.43-.33-.4-.22-.86-.3-1.38-.23-.53.07-.99.21-1.38.44-.38.22-.68.45-.9.68-.22.23-.36.5-.42.8-.06.3-.09.54-.09.7 0 .17.02.44.05.81l.21 1.86c.05.51.05.98.01 1.4-.04.42-.16.86-.34 1.32-.18.46-.49.9-.92 1.33-.43.43-.98.84-1.65 1.23-1.34.78-2.89 1.19-4.65 1.25-1.76.06-3.4-.27-4.93-.98l-2.44 1.41-1.26-.74z" fill="#FDD762"/><path d="M218.49 200.87h-1.56c-1.75-3.43-4.97-6.67-9.66-9.38-14.96-8.64-39.21-8.64-54.17 0-4.69 2.71-7.91 5.95-9.66 9.38h-1.56v6.26c0 5.66 3.74 11.32 11.22 15.64 14.96 8.64 39.21 8.64 54.17 0 7.48-4.32 11.22-9.98 11.22-15.64v-6.26z" fill="#F9BF30"/><path d="M171.87 185.54c-6.88.88-13.43 2.86-18.78 5.95-4.69 2.71-7.91 5.95-9.66 9.38h-1.56v6.26c0 5.66 3.74 11.32 11.22 15.64 5.35 3.09 11.9 5.07 18.78 5.95v-43.18z" fill="#FDD762"/><path d="M207.37 222.7c7.41-4.31 11.12-9.94 11.11-15.58v-6.26h-1.56c-1.49-2.93-4.06-5.71-7.69-8.15h-1.87v29.99h.01z" fill="#E8A200"/><path opacity=".4" d="M216.51 200.14c-.47-.82-1.02-1.62-1.66-2.4v18.8c.64-.79 1.19-1.59 1.66-2.41v-13.99zm-63.42-8.65c-2.08 1.2-3.85 2.51-5.35 3.89v23.51c.52.48 1.07.95 1.66 1.41v-25.48h3.13v27.62c.19.11.37.23.56.34.36.21.73.41 1.1.61v-28.56h3.13v30.07c.55.24 1.1.46 1.66.68v-30.74h3.13v31.82c.55.17 1.1.33 1.66.48v-32.31h3.13v33.06c.55.12 1.1.23 1.66.33v-33.39h3.13v33.88c.55.07 1.11.14 1.66.2v-34.08h3.13v34.33c.55.03 1.11.05 1.66.07v-34.4h3.13v34.42c.55-.01 1.11-.03 1.66-.05v-34.37h3.13v34.16c.56-.05 1.11-.11 1.66-.17v-33.99h3.13v33.55c.56-.09 1.11-.2 1.66-.3v-33.25h3.13v32.54c.56-.14 1.11-.29 1.66-.45v-32.09h3.13v31.07c.56-.2 1.12-.41 1.66-.64v-30.44h3.13v29.02c.56-.28 1.12-.58 1.66-.88v-28.14h3.13v26.15c.59-.42 1.14-.85 1.66-1.29v-24.86h.33a30.812 30.812 0 0 0-4.73-3.32c-3.49-2.01-7.49-3.55-11.75-4.63h-30.66c-4.28 1.06-8.28 2.6-11.77 4.62zm-8.48 7.44c-.44.64-.85 1.28-1.18 1.94h-.48v11.47c.43 1.02.98 2.02 1.66 3.01v-16.42z" fill="#E8A200"/><path d="M180.18 222.99c21.158 0 38.31-9.903 38.31-22.12s-17.152-22.12-38.31-22.12-38.31 9.903-38.31 22.12 17.152 22.12 38.31 22.12z" fill="#FDD762"/><path opacity=".2" d="M188.76 204.65c11.01-6.36 13.91-15.62 8.7-23.51-14.37-4.2-32.36-2.84-44.37 4.1-11.01 6.36-13.91 15.62-8.7 23.51 14.37 4.19 32.36 2.83 44.37-4.1z" fill="#fff"/><path opacity=".7" d="M207.27 216.51c-14.96 8.64-39.21 8.64-54.17 0-7.23-4.17-10.95-9.6-11.2-15.07-.26 5.85 3.47 11.75 11.2 16.21 14.96 8.64 39.21 8.64 54.17 0 7.73-4.46 11.45-10.36 11.2-16.21-.25 5.47-3.98 10.9-11.2 15.07z" fill="#fff"/><path d="M180.18 216.57c15.017 0 27.19-7.029 27.19-15.7s-12.173-15.7-27.19-15.7c-15.016 0-27.19 7.029-27.19 15.7s12.174 15.7 27.19 15.7z" fill="#E8A200"/><path d="M160.95 191.2c10.62-6.13 27.83-6.13 38.45 0 4.99 2.88 7.64 6.61 7.93 10.38.33-4.25-2.31-8.57-7.93-11.82-10.62-6.13-27.83-6.13-38.45 0-5.62 3.25-8.27 7.56-7.93 11.82.3-3.77 2.94-7.49 7.93-10.38z" fill="#F9BF30"/><path d="M193.55 193.46l-2.11.6.6.24-2.06 1.19c-1.68-.82-3.42-1.23-5.22-1.22-1.8.01-3.47.46-5.02 1.36-.62.36-1.13.73-1.52 1.1-.39.37-.66.76-.81 1.16-.15.4-.24.77-.27 1.11-.03.34-.01.74.05 1.21l.24 1.92c.07.55.09.99.05 1.35-.04.35-.19.71-.46 1.09-.26.38-.66.72-1.21 1.03-.97.56-1.83.62-2.58.19-.57-.33-.72-.74-.44-1.24.28-.5 1.05-1.11 2.29-1.85v-1.44l-1.8.68-2.59-1.1c-1.59.97-2.61 1.89-3.07 2.76l-.3-.33v1.41h.01c.01.97.75 1.92 2.23 2.87l-1.02.59-1.39-.64v1.44l1.25.72 2.44-1.41c1.53.71 3.17 1.04 4.93.98 1.76-.06 3.31-.47 4.65-1.25.67-.39 1.22-.8 1.65-1.23.43-.43.73-.87.92-1.33.18-.46.3-.9.34-1.32.04-.42.04-.88-.01-1.4l-.21-1.86c-.03-.37-.05-.64-.05-.81 0-.17.03-.4.09-.7.06-.3.2-.57.42-.8.22-.23.52-.46.9-.68.4-.23.86-.38 1.38-.44.53-.06.99.01 1.38.23.2.11.35.22.43.33.06.08.08.16.08.24l-2.14.45v1.44l4.34 1.93c.36-.22.67-.43.95-.63.28-.19.57-.43.88-.7.3-.27.55-.53.73-.78.18-.25.32-.53.41-.85.04-.15.06-.29.07-.43v-1.52l-.55.12c-.01-.01-.01-.02-.02-.03-.28-.34-.67-.67-1.16-.99l2.28-1.32v-1.44h.02z" fill="#F9BF30"/><path d="M167.16 207.49l2.42-1.39c-1.65-1.05-2.39-2.11-2.22-3.19.17-1.08 1.29-2.25 3.34-3.51l4.39 1.86c-1.25.74-2.01 1.35-2.29 1.85-.28.49-.14.91.44 1.24.75.44 1.61.37 2.58-.19.54-.31.94-.66 1.21-1.03.26-.38.42-.74.46-1.09.04-.35.02-.8-.05-1.35l-.24-1.92c-.06-.46-.07-.86-.05-1.21.02-.34.11-.71.27-1.11.15-.4.42-.79.81-1.16.39-.37.89-.74 1.52-1.1 1.55-.9 3.23-1.35 5.02-1.36 1.79-.01 3.53.4 5.22 1.22l2.29-1.32 1.27.74-2.28 1.32c.49.32.88.65 1.16.99.28.34.46.66.53.95.07.29.06.6-.03.91-.09.32-.23.6-.41.85-.18.25-.42.51-.73.78-.3.27-.6.51-.88.7-.28.19-.6.4-.95.63l-4.34-1.93c.33-.2.6-.37.81-.5.21-.14.42-.28.64-.45.22-.16.38-.31.47-.43.1-.12.17-.25.21-.38.04-.13.02-.25-.07-.37-.08-.11-.23-.23-.43-.33-.4-.22-.86-.3-1.38-.23-.53.07-.99.21-1.38.44-.38.22-.68.45-.9.68-.22.23-.36.5-.42.8-.06.3-.09.54-.09.7 0 .17.02.44.05.81l.21 1.86c.05.51.05.98.01 1.4-.04.42-.16.86-.34 1.32-.18.46-.49.9-.92 1.33-.43.43-.98.84-1.65 1.23-1.34.78-2.89 1.19-4.65 1.25-1.76.06-3.4-.27-4.93-.98l-2.44 1.41-1.26-.74z" fill="#FDD762"/><path d="M223.08 191.48h-1.56c-1.75-3.43-4.97-6.67-9.66-9.38-14.96-8.64-39.21-8.64-54.17 0-4.69 2.71-7.91 5.95-9.66 9.38h-1.56v6.26c0 5.66 3.74 11.32 11.22 15.64 14.96 8.64 39.21 8.64 54.17 0 7.48-4.32 11.22-9.98 11.22-15.64v-6.26z" fill="#F9BF30"/><path d="M176.47 176.15c-6.88.88-13.43 2.86-18.78 5.95-4.69 2.71-7.91 5.95-9.66 9.38h-1.56v6.26c0 5.66 3.74 11.32 11.22 15.64 5.35 3.09 11.9 5.07 18.78 5.95v-43.18z" fill="#FDD762"/><path d="M211.97 213.31c7.41-4.31 11.12-9.94 11.11-15.58v-6.26h-1.56c-1.49-2.93-4.06-5.71-7.69-8.15h-1.87v29.99h.01z" fill="#E8A200"/><path opacity=".4" d="M221.11 190.75c-.47-.82-1.02-1.62-1.66-2.4v18.8c.64-.79 1.19-1.59 1.66-2.41v-13.99zm-63.42-8.65c-2.08 1.2-3.85 2.51-5.35 3.89v23.51c.52.48 1.07.95 1.66 1.41v-25.48h3.13v27.62c.19.11.37.23.56.34.36.21.73.41 1.1.61v-28.56h3.13v30.07c.55.24 1.1.46 1.66.68v-30.74h3.13v31.82c.55.17 1.1.33 1.66.48v-32.31h3.13v33.06c.55.12 1.1.23 1.66.33v-33.39h3.13v33.88c.55.07 1.11.14 1.66.2v-34.08h3.13v34.33c.55.03 1.11.05 1.66.07v-34.4h3.13v34.42c.55-.01 1.11-.03 1.66-.05v-34.37h3.13v34.16c.56-.05 1.11-.11 1.66-.17v-33.99h3.13v33.55c.56-.09 1.11-.2 1.66-.3v-33.25h3.13v32.54c.56-.14 1.11-.29 1.66-.45v-32.09h3.13v31.07c.56-.2 1.12-.41 1.66-.64v-30.44h3.13v29.02c.56-.28 1.12-.58 1.66-.88v-28.14h3.13v26.15c.59-.42 1.14-.85 1.66-1.29v-24.86h.28a30.812 30.812 0 0 0-4.73-3.32c-3.49-2.01-7.49-3.55-11.75-4.63h-30.66c-4.23 1.07-8.23 2.6-11.72 4.62zm-8.48 7.44c-.44.64-.85 1.28-1.18 1.94h-.48v11.47c.43 1.02.98 2.02 1.66 3.01v-16.42z" fill="#E8A200"/><path d="M184.78 213.6c21.158 0 38.31-9.904 38.31-22.12 0-12.217-17.152-22.12-38.31-22.12s-38.31 9.903-38.31 22.12c0 12.216 17.152 22.12 38.31 22.12z" fill="#FDD762"/><path opacity=".2" d="M193.36 195.26c11.01-6.36 13.91-15.62 8.7-23.51-14.37-4.2-32.36-2.84-44.37 4.1-11.01 6.36-13.91 15.62-8.7 23.51 14.37 4.2 32.36 2.83 44.37-4.1z" fill="#fff"/><path opacity=".7" d="M211.86 207.12c-14.96 8.64-39.21 8.64-54.17 0-7.23-4.17-10.95-9.6-11.2-15.07-.26 5.85 3.47 11.75 11.2 16.21 14.96 8.64 39.21 8.64 54.17 0 7.73-4.46 11.45-10.36 11.2-16.21-.24 5.47-3.97 10.9-11.2 15.07z" fill="#fff"/><path d="M184.78 207.18c15.017 0 27.19-7.029 27.19-15.7s-12.173-15.7-27.19-15.7c-15.016 0-27.19 7.029-27.19 15.7s12.174 15.7 27.19 15.7z" fill="#E8A200"/><path d="M165.55 181.82c10.62-6.13 27.83-6.13 38.45 0 4.99 2.88 7.64 6.61 7.93 10.38.33-4.25-2.31-8.57-7.93-11.82-10.62-6.13-27.83-6.13-38.45 0-5.62 3.25-8.27 7.56-7.93 11.82.29-3.78 2.94-7.5 7.93-10.38z" fill="#F9BF30"/><path d="M198.15 184.07l-2.11.6.6.24-2.06 1.19c-1.68-.82-3.42-1.23-5.22-1.22-1.8.01-3.47.46-5.02 1.36-.62.36-1.13.73-1.52 1.1-.39.37-.66.76-.81 1.16-.15.4-.24.77-.27 1.11-.03.34-.01.74.05 1.21l.24 1.92c.07.55.09.99.05 1.35-.04.35-.19.71-.46 1.09-.26.38-.66.72-1.21 1.03-.97.56-1.83.62-2.58.19-.57-.33-.72-.74-.44-1.24.28-.5 1.05-1.11 2.29-1.85v-1.44l-1.8.68-2.59-1.1c-1.59.97-2.61 1.89-3.07 2.76l-.3-.33v1.41h.01c.01.97.75 1.92 2.23 2.87l-1.02.59-1.39-.64v1.44l1.25.72 2.44-1.41c1.53.71 3.17 1.04 4.93.98 1.76-.06 3.31-.48 4.65-1.25.67-.39 1.22-.8 1.65-1.23.43-.43.73-.87.92-1.33.18-.46.3-.9.34-1.32.04-.42.04-.88-.01-1.4l-.21-1.86c-.03-.37-.05-.64-.05-.81 0-.17.03-.4.09-.7.06-.3.2-.57.42-.8.22-.23.52-.46.9-.68.4-.23.86-.38 1.38-.44.53-.06.99.01 1.38.23.2.11.35.22.43.33.06.08.07.16.08.24l-2.14.45v1.44l4.34 1.93c.36-.22.67-.43.95-.63.28-.19.57-.43.88-.7.3-.27.55-.53.73-.78.18-.25.32-.53.41-.85.04-.15.06-.29.07-.43v-1.52l-.55.12c-.01-.01-.01-.02-.02-.03-.28-.34-.67-.67-1.16-.99l2.28-1.32v-1.44h.02z" fill="#F9BF30"/><path d="M171.76 198.1l2.42-1.39c-1.65-1.05-2.39-2.11-2.22-3.19.17-1.08 1.29-2.25 3.34-3.51l4.39 1.86c-1.25.74-2.01 1.35-2.29 1.85-.28.49-.14.91.44 1.24.75.44 1.61.37 2.58-.19.54-.31.94-.66 1.21-1.03.26-.38.42-.74.46-1.09.04-.35.02-.8-.05-1.35l-.24-1.92c-.06-.46-.07-.86-.05-1.21.02-.34.11-.71.27-1.11.15-.4.42-.79.81-1.16.39-.37.89-.74 1.52-1.1 1.55-.9 3.23-1.35 5.02-1.36 1.79-.01 3.53.4 5.22 1.22l2.29-1.32 1.27.74-2.28 1.32c.49.32.88.65 1.16.99.28.34.46.66.53.95.07.29.06.6-.03.91-.09.32-.23.6-.41.85-.18.25-.42.51-.73.78-.3.27-.6.51-.88.7-.28.19-.6.4-.95.63l-4.34-1.93c.33-.2.6-.37.81-.5.21-.14.42-.28.64-.45.22-.16.38-.31.47-.43.1-.12.17-.25.21-.38.04-.13.02-.25-.07-.37-.08-.11-.23-.23-.43-.33-.4-.22-.86-.3-1.38-.23-.53.07-.99.21-1.38.44-.38.22-.68.45-.9.68-.22.23-.36.5-.42.8-.06.3-.09.54-.09.7 0 .17.02.44.05.81l.21 1.86c.05.51.05.98.01 1.4-.04.42-.16.86-.34 1.32-.18.46-.49.9-.92 1.33-.43.43-.98.84-1.65 1.23-1.34.78-2.89 1.19-4.65 1.25-1.76.06-3.4-.27-4.93-.98l-2.44 1.41-1.26-.74z" fill="#FDD762"/><path d="M122.44 141.33c-.25.62-4.51 5.81-8.77 7.11-1.85.56-3.1.64-3.92.54a1.29 1.29 0 0 1-1.05-1.72c.73-2.06 2.84-6.37 8.18-9.01 7.23-3.6 5.56 3.08 5.56 3.08zm1.42 1.99s-1.61 3.77-2.1 6.92c-.3 1.92.75 4.42 1.62 6.07a1.769 1.769 0 0 0 2.76.48c1.39-1.26 3.17-3.46 3.46-6.61.49-5.31 0-6.24 0-6.24l-5.74-.62z" fill="#007C8A"/><path d="M134.13 79.1s.56 6.7 0 14.12c-.56 7.41-2.55 42.09-2.92 50.43 0 0 .19 2.53-4.7 1.97-4.89-.56-4.49-3.36-4.49-3.36s-6.87-.09-7.08-4.14c-.22-4.05-7.03-48.32-7.03-64.24l26.22 5.22z" fill="#FDD762"/><path d="M122.02 142.25s-.85-.01-1.96-.2l-1.34-53.9 3.3 54.1z" fill="#D8892B"/><path d="M126.88 30.42c11.21 4.65 10.99 11.28 10.99 11.28s-2.2 24.3-1.45 40.53c.31 6.78-36.05 7.3-30.62-10.8 6.39-21.34 4-38.62 6.99-41.23 2.99-2.6 11.19-.98 14.09.22z" fill="#009EA4"/><path d="M130.49 36.3c-.59 2.28-3.57 3.48-6.66 2.68-3.09-.8-5.13-3.29-4.54-5.57.59-2.28 3.57-3.48 6.66-2.68 3.09.8 5.12 3.29 4.54 5.57z" fill="#FFC2B0"/><path d="M125.72 39.76c-.66 0-1.34-.08-2.03-.26-3.37-.87-5.58-3.66-4.92-6.22.66-2.56 3.94-3.93 7.32-3.07 3.37.87 5.58 3.66 4.92 6.22-.53 2.04-2.72 3.33-5.29 3.33zm-1.69-8.74c-2.08 0-3.82.97-4.22 2.52-.51 1.99 1.35 4.19 4.15 4.91 2.81.73 5.5-.31 6.01-2.29.51-1.99-1.35-4.19-4.15-4.91-.61-.15-1.21-.23-1.79-.23z" fill="#fff"/><path d="M122.38 29.92s.1.45-.1 4c-.06 1.12 3.85 2.16 4.86 1.15 1.01-1.01.61-2.06.85-5.86.25-3.81-5.61.71-5.61.71z" fill="#FFC2B0"/><path d="M128 29.2s-.96 3.53-5.71 4.88l.07-3.2L128 29.2z" fill="#EA9C92"/><path d="M131.01 20.25a8.636 8.636 0 0 1-6.2 10.52 8.636 8.636 0 0 1-10.52-6.2 8.636 8.636 0 0 1 6.2-10.52c4.61-1.19 9.32 1.58 10.52 6.2z" fill="#FFCEB3"/><path d="M124.63 22.72s-4.75 2.04-8.04 2.06c-3.29.02-2.57-2.73-2.57-2.73l9.77-1.41.84 2.08z" fill="#EA9C92"/><path d="M115.61 23.26s4.14-1.76 7.77-1.02c.85.17 1.65.63 2.19 1.3.18.22.41.42.66.48.64.15 1.7-2.53 2.95-2.59 1.25-.06 2.09.83 1.06 2.47-1.03 1.64-.68 3.48-.21 3.75.47.26 5.48-3.57 1.06-12.33-4.42-8.75-15.64-4.04-17.39-2.26 0 0-1.84 1.6-3.33.18.01 0-1.66 12.55 5.24 10.02z" fill="#773140"/><path d="M107.3 28.43l-6.03-2.6c-.69-.3-1.22-.87-1.47-1.58L93.85 6.99l-2.76.48 4.81 21.47c.22 1 .86 1.86 1.76 2.37l10.04 5.64-.4-8.52zm62.74 2.81l1.38-.63c1.18-.54 2.25-1.28 3.18-2.19l.96-.95c.54-.54.7-1.35.41-2.05-.23-.55-.88-.79-1.41-.52l-2.89 1.46s.45-1.28.23-1.61c-.22-.33-2.45 2.14-3.49 3.89-1.03 1.73 1.63 2.6 1.63 2.6z" fill="#FFCEB3"/><path d="M145.97 38.14l5.16-.58a9.25 9.25 0 0 0 3.47-1.12l13.82-7.82 1.62 2.62-14.13 10.91c-.44.34-.91.62-1.42.83l-8.43 3.6-.09-8.44zM91.09 7.47l-.53-.61c-.61-.7-1-1.56-1.13-2.47l-.37-2.52c-.11-.78.19-1.58.83-2.05.02-.02.05-.03.07-.05.67-.46 1.6-.13 1.91.62l1.24 3s-.39-1.55.11-1.72c.37-.13 1.06 1.8.65 2.87-.41 1.07-.02 2.45-.02 2.45l-2.76.48z" fill="#FFCEB3"/><path d="M115.88 28.97s-10.07-1.99-13.15-2.92c-3.08-.93-4.36 7.51-4.13 9.66.23 2.14 10.71 4.53 11.95 8.2 1.26 3.66 5.33-14.94 5.33-14.94zm15.4 3.7s7.36 3.16 19.68 4.7c.5.06.93.39 1.1.87.47 1.36 1.29 4.34.65 7.41-.26 1.26-1.4 2.15-2.69 2.14-3.86-.03-12.16.34-13.5 3.95-1.77 4.72-5.24-19.07-5.24-19.07z" fill="#009EA4"/><path d="M67.1 28.06a2.215 2.215 0 0 1-2.86 1.29 2.215 2.215 0 0 1-1.29-2.86 2.215 2.215 0 0 1 2.86-1.29c1.15.43 1.73 1.71 1.29 2.86z" fill="#008E71"/><path d="M61.263 11.615L52.627 8.36l-3.257 8.636 8.637 3.257 3.256-8.637z" fill="#FDD762"/></g><defs><clipPath id="clip0"><path fill="#fff" d="M0 0h252v248H0z"/></clipPath></defs></svg>