<svg width="214" height="213" fill="none" xmlns="http://www.w3.org/2000/svg"><path d="M107.198 212.391L0 150.503 106.527 89l107.197 61.889-106.526 61.502z" fill="#B8CCCE"/><path d="M168.17 95.695V127.6c0 .255.181.573.405.703l1.089.629a.882.882 0 0 0 .809 0l1.089-.629a.893.893 0 0 0 .404-.703V95.695a.47.47 0 0 0-.466-.467h-2.857a.464.464 0 0 0-.473.467z" fill="#014655"/><path d="M171.493 95.228h-.965a.47.47 0 0 0-.467.467v33.001c0 .256.181.361.405.237l1.089-.629a.893.893 0 0 0 .404-.703V95.695a.462.462 0 0 0-.466-.467z" fill="#007C8A"/><path d="M149.861 106.224v31.906c0 .256.181.573.405.697l1.089.629a.882.882 0 0 0 .809 0l1.089-.629a.892.892 0 0 0 .404-.703v-31.9a.47.47 0 0 0-.466-.467h-2.857a.468.468 0 0 0-.473.467z" fill="#014655"/><path d="M153.184 105.757h-.965a.47.47 0 0 0-.466.467v33.002c0 .255.18.361.404.236l1.089-.628a.896.896 0 0 0 .405-.704v-31.906a.463.463 0 0 0-.467-.467z" fill="#009EA4"/><path d="M151.075 82.8a1.715 1.715 0 0 1-1.488 1.91 1.714 1.714 0 0 1-1.91-1.487c-.983-7.878.417-25.496 3.79-35.422.348-1.02 1.332-1.239 2.265-.704.71.411 1.226 1.034.958 1.811-3.236 9.323-4.561 26.306-3.615 33.892z" fill="#2460DA"/><path d="M170.921 87.33a1.09 1.09 0 0 0 1.039-1.431c-2.527-7.673-14.929-14.5-22.939-14.5-.603 0-1.089.486-1.089 1.09 0 .603.486 1.088 1.089 1.088 7.244 0 18.67 6.305 20.873 13 .143.468.566.754 1.027.754zm1.17-9.944a1.09 1.09 0 0 0 1.039-1.431c-2.626-7.973-15.39-14.426-23.374-13.605a1.09 1.09 0 0 0 .224 2.166c7.069-.722 18.787 5.134 21.084 12.117.143.46.566.753 1.027.753zm2.632-7.673a1.094 1.094 0 0 0 .996-1.53c-3.753-8.546-17.102-15.565-24.327-14.564a1.083 1.083 0 0 0-.927 1.226 1.084 1.084 0 0 0 1.226.928c6.385-.884 18.676 5.644 22.03 13.28.187.41.585.66 1.002.66z" fill="#007C8A"/><path d="M177.287 60.353a1.712 1.712 0 0 1 .703 2.166c-3.933 9.191-6.005 20.424-6.005 32.715v1.65l-.131.136a.685.685 0 0 1-.516.212c-.249 0-.504-.094-.716-.175-.106-.037-.286-.105-.348-.112a1.71 1.71 0 0 1-1.712-1.711c0-12.751 2.172-24.445 6.292-34.072a1.707 1.707 0 0 1 2.427-.815l.006.006z" fill="#009EA4"/><path d="M171.96 96.485v.417c0 .685-.454 1.568-1.008 1.973l-18.184 13.149c-.56.405-1.494.448-2.085.106l-25.652-14.811c-.598-.342-1.077-1.183-1.077-1.867v-.43c0-.684.504-1.48 1.133-1.767l23.019-10.629c.623-.286 1.612-.243 2.21.1l20.574 11.892c.591.342 1.07 1.176 1.07 1.867z" fill="#007C8A"/><path d="M170.883 94.618L150.31 82.725c-.598-.342-1.581-.392-2.21-.1l-23.019 10.63c-.623.286-.648.803-.05 1.145l25.652 14.811c.597.342 1.531.299 2.085-.106l18.184-13.137c.56-.404.529-1.008-.069-1.35z" fill="#009EA4"/><path d="M112.323 129.903c-4.045 5.737-7.306 7.138-8.42 8.388-1.114 1.251-.361 3.616 2.477 4.083 2.844.467 5.887-.317 7.654-2.203 1.762-1.879 2.944-4.307 4.761-5.701 1.817-1.394 2.757-1.779 2.981-3.36.224-1.581-1.338-6.198-1.338-6.198l-8.115 4.991z" fill="#002176"/><path d="M114.066 121.309c.466 2.016.958 3.777-.336 6.273-.392.753-.859 1.53-1.407 2.321a378.142 378.142 0 0 1-4.624 6.54c-.342.467 1.805 1.842 4.17.772 2.358-1.07 4.294-4.68 5.775-6.864a65.015 65.015 0 0 1 1.83-2.545 4.684 4.684 0 0 0 .946-3.199l-.237-3.236-6.117-.062z" fill="#FFA8A7"/><path d="M127.271 136.928c-4.045 5.738-7.306 7.139-8.42 8.389-1.114 1.251-.361 3.616 2.477 4.083 2.844.467 5.887-.318 7.655-2.203 1.761-1.88 2.943-4.307 4.76-5.701 1.818-1.394 2.757-1.78 2.981-3.36.224-1.581-1.338-6.198-1.338-6.198l-8.115 4.99z" fill="#014655"/><path d="M129.014 128.341c.467 2.016.958 3.777-.336 6.273a21.499 21.499 0 0 1-1.407 2.321 380.17 380.17 0 0 1-4.624 6.541c-.342.466 1.805 1.842 4.17.771 2.359-1.07 4.294-4.68 5.781-6.864a65.015 65.015 0 0 1 1.83-2.545 4.684 4.684 0 0 0 .946-3.199l-.237-3.236-6.123-.062z" fill="#FFCEB3"/><path d="M149.444 43.475c6.84 0 12.384-5.544 12.384-12.384v-.1c0-6.067-4.922-10.99-10.99-10.99h-2.794c-6.068 0-10.99 4.923-10.99 10.99v.1c.006 6.84 5.551 12.384 12.39 12.384z" fill="#522C03"/><path d="M137.104 73.08c.815-.66 1.68-1.824 2.526-4.257.579-1.668 5.931-16.728 6.784-20.363 0 0 .753-1.039-1.226-2.37-2.67-.306-4.96-.293-6.833 4.68-1.892 5.015-5.645 16.74-5.645 16.74" fill="#FFCEB3"/><path d="M163.596 82.793c1.357 2.459 2.514 7.138 1.201 10.885-.728 2.078-10.455 12.776-17.313 11.88-11.799-1.537-22.777-17.238-22.777-17.238l15.67-8.943 23.219 3.416z" fill="#007C8A"/><path d="M145.916 46.133c-1.805-.144-3.946-.156-5.975 3.547-1.58 2.881-2.439 4.076-2.377 8.009.044 2.838 1.786 6.254 2.178 8.52.392 2.265.592 12.278.641 13.168 0 0 4.139 5.308 11.992 5.514 7.854.211 11.227-2.098 11.227-2.098l-5.999-10.772 1.531-21.9-5.869-3.51-7.349-.478z" fill="#FFDB4C"/><path d="M142.673 25.005c-1.306.772-4.468 4.064-4.312 10.959.137 5.843 2.029 7.294 2.981 7.704.952.417 2.788.162 4.568-.137v3.51s-2.465 2.863-2.309 4.475c.155 1.611 3.559 1.991 5.868.417 2.309-1.575 3.784-3.965 3.784-3.965v-8.482s1.207 1.606 3.174.299c1.973-1.307 2.047-4.55.902-5.707-1.145-1.163-3.616-.796-4.076.81 0 0-2.427.615-6.217-1.47-3.778-2.066-4.114-6.142-4.363-8.413z" fill="#FFCEB3"/><path d="M145.916 43.544c1.487-.168 4.468-1.07 5.128-2.072 0 0-.025.684-1.002 1.611-.977.928-4.126 1.6-4.126 1.6v-1.139z" fill="#F2BC9E"/><path d="M143.601 24.5s-1.301 4.5.255 8.695c0 0-5.639.354-5.95-3.915 0 0 .274-3.51 2.763-5.595l2.932.816z" fill="#522C03"/><path d="M156.645 19.429c-1.973 1.76-.355 3.453 1.53 5.57 1.886 2.115 3.324 3.839 5.296 2.084 1.973-1.761 2.042-4.898.156-7.013-1.886-2.116-5.01-2.403-6.982-.641z" fill="#3E2000"/><path d="M115.024 144.801v42.542c0 .342-.243.759-.542.933l-1.45.84c-.298.175-.778.175-1.076 0l-1.45-.84c-.299-.174-.542-.591-.542-.933v-42.542c0-.342.28-.622.623-.622h3.814c.343 0 .623.28.623.622z" fill="#999"/><path d="M110.587 144.179h1.282c.342 0 .622.28.622.622v43.998c0 .342-.243.485-.541.311l-1.45-.84c-.299-.174-.542-.591-.542-.933v-42.542a.632.632 0 0 1 .629-.616z" fill="#A8A8A8"/><path d="M49.294 106.852v42.542c0 .342-.242.759-.541.934l-1.45.84c-.299.174-.778.174-1.077 0l-1.45-.84c-.299-.175-.541-.592-.541-.934v-42.542c0-.342.28-.622.622-.622h3.815c.342 0 .622.28.622.622z" fill="#999"/><path d="M44.864 106.23h1.282c.342 0 .622.28.622.622v43.998c0 .343-.243.486-.542.311l-1.45-.84c-.298-.174-.541-.591-.541-.933v-42.542a.628.628 0 0 1 .629-.616zm128.297 5.003v42.542c0 .342-.243.759-.542.933l-1.45.841c-.298.174-.777.174-1.076 0l-1.45-.841c-.299-.174-.542-.591-.542-.933v-42.542c0-.342.28-.622.623-.622h3.815c.342 0 .622.28.622.622z" fill="#A8A8A8"/><path d="M168.73 110.611h1.282c.342 0 .622.28.622.622v43.998c0 .342-.242.486-.541.311l-1.45-.84c-.299-.174-.542-.591-.542-.933v-42.542a.634.634 0 0 1 .629-.616z" fill="#999"/><path d="M113.568 147.932l61.043-35.242c.597-.343 1.077-1.183 1.077-1.867v-.43c0-.684-.486-1.524-1.077-1.867l-68.623-39.623c-.598-.342-1.562-.342-2.154 0l-61.043 35.242c-.597.342-1.077 1.183-1.077 1.867v.43c0 .684.486 1.524 1.077 1.866l68.623 39.624c.598.348 1.562.348 2.154 0z" fill="#A8A8A8"/><path d="M112.491 72.662l62.12 35.864c.597.343 1.077 1.183 1.077 1.867v.43c0 .684-.486 1.524-1.077 1.867l-61.043 35.242c-.299.174-.691.255-1.077.255V72.662z" fill="#999"/><path d="M113.568 145.013l61.043-35.242c.597-.342.597-.902 0-1.245l-68.623-39.623c-.598-.342-1.562-.342-2.153 0l-61.044 35.242c-.597.342-.597.903 0 1.245l68.623 39.623c.598.348 1.562.348 2.154 0z" fill="#FFF5F6"/><path d="M141.964 98.582v.629a1.79 1.79 0 0 1-.89 1.543l-17.014 9.789a1.807 1.807 0 0 1-1.786 0l-31.21-18.016a1.783 1.783 0 0 1-.896-1.543v-.436l32.996 19.049 18.8-11.015z" fill="#C1E4FF"/><path d="M90.174 90.548l18.508-10.686a1.05 1.05 0 0 1 1.064 0l32.106 18.54a.24.24 0 0 1 0 .41l-18.676 10.785-33.002-19.05z" fill="#D9EEFF"/><path d="M123.338 108.028l9.982-5.756-29.187-16.853-10.032 5.726 29.237 16.883z" fill="#B8CCCE"/><path d="M128.242 92.016l-.181.106-4.891 2.819-8.7-5.022-.181-.1 5.072-2.93 8.881 5.127z" fill="#80A3AA"/><path d="M132.71 67.516s-4.81 3.97-10.349 8.37c-2.502 1.985-5.277 3.983-7.568 4.232-1.823.199-5.047.323-5.737.958-.697.641-2.683 3.94-3.33 5.01-.647 1.07-.224 3.584 1.873 3.74 2.098.155 2.969-1.332 3.84-2.26.871-.92 1.575-1.4 1.575-1.4s2.172.119 3.404-.597a60.795 60.795 0 0 0 1.935-1.164c4.319-2.42 15.241-8.47 18.757-11.32" fill="#FFCEB3"/><path d="M128.061 92.122l-4.891 2.82-8.7-5.023 4.891-2.819 4.35 2.511 4.35 2.511z" fill="#B8CCCE"/><path d="M123.17 109.597v1.189c-.305 0-.616-.081-.89-.237L91.07 92.533a1.783 1.783 0 0 1-.896-1.543v-.436l32.996 19.043z" fill="#ABD5FD"/><path opacity=".5" d="M123.17 109.597v1.189c-.305 0-.616-.081-.89-.237L91.07 92.533a1.783 1.783 0 0 1-.896-1.543v-.436l32.996 19.043z" fill="#ABD5FD"/><path d="M122.666 109.859a2.095 2.095 0 0 1-1.824-.144L89.77 91.774a2.119 2.119 0 0 1-1.027-1.475L85.34 70.011a2.103 2.103 0 0 1 .591-1.848l32.292 18.645c.405.236.679.635.76 1.095l3.684 21.956z" fill="#B8CCCE"/><path d="M123.17 109.597l-.212.124c-.093.056-.193.1-.292.143l-3.678-21.955a1.578 1.578 0 0 0-.76-1.096L85.936 68.17a2.22 2.22 0 0 1 .43-.33l32.354 18.68c.405.236.678.635.759 1.095l3.691 21.981z" fill="#D9EEFF"/><path d="M105.166 91.133c-.23-1.357-1.63-3.162-3.13-4.027-1.5-.865-2.533-.466-2.31.89.231 1.357 1.631 3.162 3.131 4.027 1.5.87 2.533.473 2.309-.89z" fill="#80A3AA"/><path d="M142.829 110.611l2.527 1.457-2.527 1.462-2.527-1.462 2.527-1.457z" fill="#2460DA"/><path d="M154.809 114.674l-9.036-5.215c-.299-.174-.778-.174-1.077 0l-6.503 3.759c-.299.174-.542.591-.542.934v.217c0 .343.243.76.542.934l9.036 5.215c.299.174.778.174 1.076 0l6.504-3.759c.298-.174.541-.591.541-.933v-.218c0-.342-.243-.759-.541-.934z" fill="#014655"/><path d="M148.305 119.055l6.504-3.758c.298-.175.298-.448 0-.623l-9.036-5.215c-.299-.174-.778-.174-1.077 0l-6.503 3.759c-.299.174-.299.448 0 .622l9.036 5.215c.292.175.778.175 1.076 0z" fill="#007C8A"/><path d="M145.891 110.511c.361.205.361.548 0 .753-.361.205-.946.205-1.307 0s-.361-.548 0-.753c.361-.205.946-.205 1.307 0z" fill="#27DEBF"/><path d="M148.418 111.974c.36.205.36.547 0 .753-.361.205-.946.205-1.307 0-.361-.206-.361-.548 0-.753.361-.212.946-.212 1.307 0z" fill="#FFDB4C"/><path d="M154.491 117.724a.308.308 0 0 0 .268-.156.307.307 0 0 0-.112-.423l-.983-.566a.308.308 0 0 0-.424.112.307.307 0 0 0 .112.423l.984.567a.294.294 0 0 0 .155.043z" fill="#002176"/><path d="M154.491 118.035c.342 0 .623-.28.623-.622v-9.721a.625.625 0 0 0-.623-.622.624.624 0 0 0-.622.622v9.721c0 .342.28.622.622.622z" fill="#002176"/><path d="M137.651 116.623c.206 0 .417-.056.604-.162l1.456-.84a.307.307 0 0 0 .112-.423.307.307 0 0 0-.423-.113l-1.456.841a.571.571 0 0 1-.579 0l-12.061-6.902a.303.303 0 0 0-.423.118.31.31 0 0 0 .118.424l12.055 6.901c.18.1.392.156.597.156z" fill="#27DEBF"/><path d="M147.061 106.05a1.71 1.71 0 1 0 3.425.001 1.71 1.71 0 0 0-3.425-.001z" fill="#014655"/><path d="M148.778 101.532c1.724 0 3.224.964 3.983 2.389a.673.673 0 0 1-.181.847.66.66 0 0 1-.995-.206 3.16 3.16 0 0 0-2.801-1.692 3.16 3.16 0 0 0-2.8 1.692.666.666 0 0 1-1.002.206.675.675 0 0 1-.181-.847 4.496 4.496 0 0 1 3.977-2.389z" fill="#014655"/><path d="M148.778 98.793a7.24 7.24 0 0 1 6.112 3.361.68.68 0 0 1-.144.909l-.006.006a.672.672 0 0 1-.983-.174 5.896 5.896 0 0 0-9.976 0 .67.67 0 0 1-.983.174.684.684 0 0 1-.143-.903 7.249 7.249 0 0 1 6.123-3.373z" fill="#014655"/><path d="M137.77 95.327c4.319-2.42 13.436-8.924 16.952-11.78.815-.66 1.879-1.052 2.427-3.591.373-1.724 4.742-16.411 5.532-21.676.772-5.159-1.568-6.827-3.553-8.158-2.844 2.246-2.95 5.028-4.232 9.739-1.413 5.171-4.568 18.122-4.568 18.122s-4.145 4.12-8.874 8.737c-2.284 2.234-4.948 4.076-7.238 4.325-1.823.2-5.047.324-5.738.959-.697.64-2.682 3.939-3.329 5.01-.647 1.07-.224 3.584 1.873 3.74 2.097.155 2.969-1.332 3.84-2.26.871-.92 1.574-1.4 1.574-1.4s2.172.119 3.404-.597a72.313 72.313 0 0 0 1.93-1.17z" fill="#FFCEB3"/><path d="M0 31.54c0 .982.51 1.928 1.419 2.451 0 .006.006.006.006.006s.006 0 .006.007l6.13 3.528c.74.43 1.6.48 2.353.218a2.79 2.79 0 0 0 1.306 1.898l.224.13c.007 0 .007.007.013.007L17.4 43.22l.168.093a2.871 2.871 0 0 0 2.253.106 2.8 2.8 0 0 0 1.375 1.992l5.595 3.236c-1.033 1.798-1.687 3.852-1.687 5.706 0 2.035.816 3.38 2.073 3.877.211.169.435.293.678.393.212.168.436.298.685.392.211.168.435.298.684.398.206.162.43.292.678.392.212.162.436.292.685.392.205.162.43.292.678.392.212.162.436.293.685.392.205.168.436.299.678.392 1.064.84 2.626.871 4.394-.15 3.192-1.854 5.787-6.328 5.787-10.031 0-1.848-.66-3.161-1.711-3.703-.106-.062-.23-.087-.349-.137-.111-.08-.211-.193-.336-.255-.105-.062-.23-.087-.342-.137-.112-.087-.211-.193-.336-.255-.106-.068-.23-.087-.348-.137-.112-.087-.212-.193-.336-.261-.106-.062-.23-.081-.343-.13-.112-.088-.211-.194-.336-.262-.105-.063-.23-.087-.348-.13-.112-.088-.212-.2-.336-.262-.106-.063-.23-.087-.343-.137-.112-.081-.211-.193-.336-.255-.105-.063-.23-.087-.348-.137-.112-.081-.212-.193-.336-.255-.106-.063-.23-.087-.343-.137-.111-.081-.211-.193-.335-.255-.106-.063-.237-.088-.349-.137-.112-.087-.212-.193-.336-.255.155-.15.33-.287.498-.411a20.266 20.266 0 0 1 1.014-.704 11.927 11.927 0 0 1 2.39-1.206c.199-.075.398-.144.597-.2a7.663 7.663 0 0 1 2.228-.348c.118 0 .243.006.355.012l.261.019a4.3 4.3 0 0 0 .392.018c1.27 0 2.459-.653 3.1-1.773l.149-.255c-.006-.025-1.37-4.718-1.382-4.736l-4.343-2.614c-.76-.454-1.75-1.151-2.82-1.388a3.703 3.703 0 0 0-.516-.075c-.044 0-.093-.006-.143-.006a4.743 4.743 0 0 0-.666.013 3.487 3.487 0 0 0-.237.03c-.018.007-.043.007-.062.013a10.84 10.84 0 0 0-1.294.255c-1.432.386-2.944 1.021-4.5 1.923-.336.193-.647.392-.964.592a29.005 29.005 0 0 1 1.661-1.394c.256-.206.51-.405.772-.598a.557.557 0 0 1 .118-.093c.224-.174.455-.342.691-.51.417-.3.84-.598 1.276-.884.187-.125.38-.249.572-.373.293-.193.592-.38.89-.56.367-.23.74-.449 1.114-.667 3.467-1.997 6.61-2.843 9.453-2.843.2 0 .399.006.591.012.225.012.449.025.666.043.168.013.33.032.498.056.112.013.23.032.349.05.105.013.205.031.31.05.157.025.312.056.468.087.18.044.36.081.541.13.193.05.386.1.579.163.162.043.323.1.479.15a3.729 3.729 0 0 0 1.22.212 3.56 3.56 0 0 0 3.099-1.775c.025-.037.043-.08.068-.118l-1.064-4.556c0-.012-.025-.03-.075-.062h-.006c-.491-.348-2.918-2.035-3.124-2.147a22.333 22.333 0 0 0-3.584-1.692 21.065 21.065 0 0 0-2.278-.716c-.236-.056-.473-.118-.716-.168a22.63 22.63 0 0 0-1.468-.268c-.218-.03-.436-.062-.654-.087-.05-.012-.093-.012-.143-.019-.23-.018-.467-.043-.697-.062a.052.052 0 0 0-.044 0c-.23-.018-.46-.031-.69-.043a1.002 1.002 0 0 0-.193 0 21.53 21.53 0 0 0-2.527.074c-1.07.106-2.153.293-3.242.579.006-.006.019-.006.025-.012 4.269-2.29 8.382-3.417 12.21-3.666 1.6-.1 3.149-.05 4.636.137.386.044.778.1 1.158.168.006 0 .012 0 .018.006l.118.019c.237.037.46.08.691.137.392.08.778.168 1.164.268.38.099.76.211 1.133.33.273.08.541.167.802.26.343.119.685.25 1.015.38.491.2.995.293 1.493.293a4.178 4.178 0 0 0 3.597-2.097l.087-.15v-.006c-.05-.236-1.188-5.252-1.188-5.252-.013-.013-.019-.02-.031-.025a.4.4 0 0 0-.081-.063c-.019-.012-.038-.024-.056-.043-.573-.423-2.427-1.786-2.62-1.892a27.843 27.843 0 0 0-4.232-2.01 27.988 27.988 0 0 0-2.502-.821c-.006-.007-.012-.007-.018-.007-.3-.08-.604-.155-.903-.23a41.612 41.612 0 0 0-.94-.212A29.159 29.159 0 0 0 46.6.156a25.72 25.72 0 0 0-.995-.088c-.336-.024-.672-.037-1.008-.05A27.918 27.918 0 0 0 43.575 0c-5.502 0-11.538 1.5-17.78 5.103-2.433 1.406-4.624 2.77-6.64 4.157-.249.168-.492.336-.728.51a64.14 64.14 0 0 0-1.873 1.37c-.274.211-.548.423-.815.634-.598.473-1.19.952-1.762 1.45-.23.193-.448.386-.672.585l-.336.299-.71.653a52.93 52.93 0 0 0-4.026 4.213c-.162.194-.323.38-.485.58-.249.292-.492.59-.734.895-.38.467-.76.953-1.133 1.45-.212.287-.43.573-.654.872-.46.628-.92 1.275-1.381 1.954-.224.33-.454.66-.678 1.002-.23.342-.455.684-.685 1.039-.23.349-.46.71-.685 1.07-.46.729-.927 1.475-1.393 2.253A2.81 2.81 0 0 0 0 31.54z" fill="#FFC000"/><path d="M31.24 57.888c0 3.678 2.596 5.184 5.782 3.336 3.192-1.854 5.781-6.323 5.781-10.032 0-1.854-.653-3.161-1.711-3.703-1.052-.628-2.477-.541-4.076.374-1.593.915-3.05 2.508-4.102 4.331-1.02 1.786-1.674 3.84-1.674 5.694zm-4.829-13.075c2.707-3.896 5.744-6.466 9.702-8.756 2.054-1.182 4.014-1.904 5.838-2.203a3.698 3.698 0 0 1 3.292 1.064c.012.019.025.032.037.044.99 1.052 1.37 2.645.66 4.12-.044.093-.087.186-.143.28-.641 1.12-1.83 1.773-3.1 1.773a4.15 4.15 0 0 1-.392-.018l-.261-.019a6.774 6.774 0 0 0-.355-.012 7.68 7.68 0 0 0-2.228.348 7.337 7.337 0 0 0-.597.2 11.938 11.938 0 0 0-2.39 1.206 7.062 7.062 0 0 0-.504.337 9.53 9.53 0 0 0-.51.367 14.29 14.29 0 0 0-.51.398c-1.426 1.151-2.745 2.576-3.896 4.17-.859 1.194-2.47 1.562-3.747.821a2.829 2.829 0 0 1-1.418-2.464c0-.573.168-1.152.522-1.656zm-9.994-5.576c5.152-8.326 10.43-13.747 18.258-18.37 6.211-3.66 12.64-3.492 17.861-1.612.274.1.523.224.753.38h.006a.65.65 0 0 1 .075.062c1.413.99 1.91 2.95 1.064 4.555-.025.037-.043.08-.068.118a3.56 3.56 0 0 1-3.1 1.774c-.398 0-.808-.069-1.207-.205-.006 0-.006 0-.012-.007-.156-.05-.317-.106-.48-.15a10.135 10.135 0 0 0-.578-.16c-.18-.05-.361-.088-.541-.132-.156-.03-.312-.062-.467-.087-.106-.018-.206-.037-.311-.05-.119-.018-.237-.037-.349-.05a6.739 6.739 0 0 0-.498-.055c-.218-.019-.442-.031-.666-.044a18.411 18.411 0 0 0-.59-.012c-2.845 0-5.988.846-9.454 2.844a56.463 56.463 0 0 0-2.004 1.226 38.631 38.631 0 0 0-1.848 1.257c-.236.168-.467.336-.69.51a.557.557 0 0 0-.12.093c-.26.187-.516.386-.77.598-.567.442-1.12.902-1.662 1.394-.013.006-.019.019-.031.03-2.888 2.54-5.44 5.54-7.78 9.174a2.756 2.756 0 0 1-1.387 1.101 2.871 2.871 0 0 1-2.253-.105l-.168-.094a2.845 2.845 0 0 1-1.419-2.47c0-.517.143-1.04.436-1.513z" fill="#FFDB4C"/><path d="M6.54 33.624C14.028 21.196 20.214 15.41 31.932 8.638c10.387-6 20.207-6.155 27.924-3.305.31.119.603.268.865.436a.342.342 0 0 0 .056.044.4.4 0 0 1 .08.062.108.108 0 0 1 .032.025c1.587 1.176 2.147 3.404 1.188 5.246v.006c-.024.056-.056.1-.087.156a4.178 4.178 0 0 1-3.597 2.097 3.964 3.964 0 0 1-1.493-.292 23.402 23.402 0 0 0-1.817-.641c-.374-.119-.747-.23-1.133-.33s-.772-.187-1.164-.268c-.23-.056-.454-.1-.69-.137l-.119-.018c-.006-.007-.012-.007-.018-.007-.38-.068-.772-.124-1.158-.168a24.318 24.318 0 0 0-4.636-.137c-3.852.237-7.99 1.363-12.297 3.69h-.013c-.305.169-.616.343-.927.523-9.833 5.676-15.253 10.611-21.532 20.935-.355.579-.884.99-1.481 1.195a2.829 2.829 0 0 1-2.353-.218 2.823 2.823 0 0 1-1.02-3.908z" fill="#FFDB4C"/></svg>