<svg width="234" height="209" fill="none" xmlns="http://www.w3.org/2000/svg"><path d="M170.929 73.286l-29.521-17.043V1.57l29.521 17.044v54.671z" fill="#FFF5F6"/><path d="M169.044 23.81L143.298 8.876v.74l25.746 14.935v-.74zm0 4.143l-25.746-14.935v.739l25.746 14.935v-.74zm0 4.142L143.298 17.16v.744l25.746 14.93v-.739zm0 4.142l-25.746-14.93v.74l25.746 14.929v-.74zm0 4.142l-25.746-14.93v.74l25.746 14.935v-.745zm0 4.148L143.298 29.59v.74l25.746 14.935v-.74zm0 4.142l-25.746-14.936v.74l25.746 14.935v-.74zm0 4.141l-25.746-14.934v.744l25.746 14.93v-.74zm0 4.143l-25.746-14.93v.74l25.746 14.93v-.74zm0 4.142l-25.746-14.93v.74l25.746 14.935v-.745zm0 4.148l-25.746-14.935v.739l25.746 14.935v-.739z" fill="#292929"/><path d="M116.405 208.423l116.866-67.711-116.135-67.29L.271 141.135l116.134 67.289z" fill="#B8CCCE"/><path d="M81.73 109.79l47.744-27.533v-1.054l-9.097-4.618-47.745 26.812v1.06l9.097 5.333z" fill="#212121"/><path d="M81.73 108.736l47.744-27.533-9.097-5.34-47.745 27.534 9.097 5.339z" fill="#4A4A4A"/><path d="M81.73 108.736v1.054l-9.098-5.334v-1.06l9.097 5.34z" fill="#404040"/><path d="M81.443 107.831l46.416-26.766v-1.49l-7.494-3.872L73.95 101.77v1.489l7.493 4.572z" fill="#171717"/><path d="M81.443 106.342l46.416-26.766-7.494-4.572L73.95 101.77l7.493 4.572z" fill="#CDB388"/><path d="M81.443 106.342v1.49l-7.493-4.572v-1.489l7.493 4.571z" fill="#363636"/><path d="M80.452 106.026l47.006-27.103V7.999l-6.978-3.495-47 26.387v70.919l6.972 4.216z" fill="#B3B3B3"/><path d="M80.452 35.102L127.458 8l-6.978-4.21-47 27.103 6.972 4.21z" fill="#CDB388"/><path d="M80.452 35.102v70.925l-6.972-4.217V30.892l6.972 4.21z" fill="#D9D9D9"/><path d="M81.73 106.669l47-27.104V8.64l-1.158.16-47.006 26.387v70.925l1.163.556z" fill="#999"/><path d="M81.73 35.744l47-27.103-1.158-.55-47.006 27.098 1.163.555z" fill="#3E4954"/><path d="M81.73 35.744v70.924l-1.164-.555V35.189l1.163.555z" fill="#D9D9D9"/><path d="M82.09 36.392l47.745-27.534V7.804l-9.458-4.938-47.745 26.811v1.054l9.458 5.66z" fill="#212121"/><path d="M82.09 35.337l47.745-27.533-9.458-5.66-47.745 27.533 9.458 5.66z" fill="#4A4A4A"/><path d="M82.09 35.337v1.055l-9.458-5.66v-1.055l9.458 5.66z" fill="#404040"/><path d="M82.153 34.856L129.16 7.758V6.234l-8.679-4.526-47 26.388v1.518l8.673 5.242z" fill="#121212"/><path d="M82.153 33.338L129.16 6.234 120.48.992l-47 27.104 8.673 5.242z" fill="#CDB388"/><path d="M82.153 33.338v1.518l-8.673-5.242v-1.518l8.673 5.242z" fill="#313131"/><path d="M82.09 33.447l47.344-27.299V5.094l-8.885-4.64L73.205 27.03v1.054l8.885 5.363z" fill="#212121"/><path d="M82.09 32.393l47.344-27.299-8.885-5.362L73.205 27.03l8.885 5.363z" fill="#4A4A4A"/><path d="M82.09 32.393v1.054l-8.885-5.362V27.03l8.885 5.362z" fill="#404040"/><path d="M125.493 13.075v11.75L104.37 37.102l-1.93 1.123-.482.28-.641.373-1.931 1.129-.659.383-1.094.636-1.93 1.123-.528.304-.762.44-1.93 1.124-.585.343-.464.27-1.925 1.117-.664.384-.493.286-1.93 1.123-.51.304-2.051 1.186V37.285l1.266-.739.704-.412 1.971-1.146.55-.32.424-.242 1.97-1.145 1.078-.63.206-.12 1.759-1.026 1.295-.75.011-.006 1.977-1.152 1.575-.917 1.976-1.145 1.261-.734 1.976-1.151 21.633-12.575z" fill="#999"/><path d="M118.595 17.085v4.778l-34.734 20.2v6.972l41.632-24.21v-11.75l-6.898 4.01z" fill="#E6E6E6"/><path d="M118.595 21.863l6.898 2.962v-11.75l-6.898 4.01v4.778z" fill="#D9D9D9"/><path d="M104.37 25.947l-1.931 1.175-.555-.321 1.976-1.152.51.298z" fill="#FD9F1B"/><path d="M102.439 27.122V38.78l-.481-.275-.641-.372-1.931-1.112-1.753-1.014-1.93-1.117-.62-.355v-3.793l.012.006 1.976-1.152 1.576-.916 1.976-1.146 1.261-.733.555.32z" fill="#D38417"/><path d="M104.37 25.947v11.664l-1.931 1.17V27.12l1.931-1.174z" fill="#BD6E00"/><path d="M101.316 27.935l-1.93 1.175-.74-.43 1.977-1.146.693.401z" fill="#CF1616"/><path d="M99.386 29.11v11.658l-.659-.378-1.094-.63-1.93-1.117-1.29-.745-1.93-1.117-.453-.264V32.53l1.759-1.026 1.295-.75v-.011l.011.005 1.977-1.151 1.575-.917.739.43z" fill="#A51212"/><path d="M101.311 27.935V39.6l-1.93 1.169v-11.66l1.93-1.174z" fill="#8F0000"/><path d="M97.633 29.929l-1.931 1.169-.607-.35 1.976-1.151.562.332z" fill="#C916CF"/><path d="M95.702 31.098v11.664l-.527-.31-.762-.435-1.93-1.117-1.049-.607-1.925-1.117-1.157-.665v-3.844l.424-.24 1.97-1.146 1.078-.63.206-.12 1.759-1.026 1.294-.75v-.012l.012.005.607.35z" fill="#A112A5"/><path d="M97.638 29.929v11.658l-1.93 1.174V31.097l1.93-1.168z" fill="#8A008F"/><path d="M94.413 31.865l-1.93 1.175-.453-.264-.206-.126.206-.12 1.759-1.026.624.361z" fill="#5D16CF"/><path d="M92.483 33.04v11.658l-.585-.338-.464-.269-1.925-1.111-1.157-.67-1.93-1.112-1.295-.75v-3.902l.704-.412 1.971-1.146.55-.321.424-.24 1.97-1.146 1.078-.63.206.125.453.264z" fill="#4B12A5"/><path d="M94.413 31.866V43.53l-1.93 1.169V33.04l1.93-1.174z" fill="#37008F"/><path d="M91.434 33.676L89.51 34.85l-.733-.424 1.97-1.145.688.395z" fill="#1666CF"/><path d="M89.51 34.85v11.665l-.665-.384-.493-.287-1.93-1.117-2.561-1.478v-5.964l1.266-.738.704-.413 1.971-1.146.55-.32.424-.241.733.424z" fill="#1251A5"/><path d="M91.44 33.676V45.34l-1.93 1.169V34.85l1.93-1.174z" fill="#003E8F"/><path d="M88.352 35.309l-1.93 1.168-.59-.343 1.97-1.146.55.32z" fill="#16BBCF"/><path d="M86.421 36.477v11.665l-.51-.298-2.05-1.186v-9.373l1.266-.739.704-.412.59.343z" fill="#1295A5"/><path d="M88.352 35.309v11.658l-1.93 1.174V36.477l1.93-1.168z" fill="#00808F"/><path d="M125.493 39.863v11.75L104.37 63.896l-1.931 1.123-.481.275-.642.378-1.93 1.123-.659.383-1.094.636-1.93 1.123-.528.304-.762.44-1.93 1.124-.585.344-.464.269-1.925 1.117-.665.39-.492.286-1.93 1.123-.51.298-2.052 1.191v-11.75l1.266-.739.705-.407 1.97-1.151.55-.315.425-.246 1.97-1.146 1.078-.625.206-.126 1.759-1.02 1.294-.756h.012l1.976-1.151 1.576-.917 1.976-1.151 1.261-.734 1.976-1.151 21.633-12.575z" fill="#999"/><path d="M118.595 43.873v4.778l-34.735 20.2v6.972l41.633-24.21v-11.75l-6.898 4.01z" fill="#E6E6E6"/><path d="M118.595 48.651l6.898 2.962v-11.75l-6.898 4.01v4.778z" fill="#D9D9D9"/><path d="M104.37 52.736l-1.931 1.174-.556-.32 1.977-1.152.51.298z" fill="#FD9F1B"/><path d="M102.439 53.91v11.664l-.481-.28-.642-.373-1.93-1.111-1.753-1.014-1.931-1.117-.619-.356v-3.792l.012.011 1.976-1.151 1.576-.917 1.976-1.151 1.261-.734.555.321z" fill="#D38417"/><path d="M104.37 52.742V64.4l-1.931 1.174V53.91l1.931-1.168z" fill="#BD6E00"/><path d="M101.316 54.724l-1.93 1.174-.74-.424 1.977-1.151.693.4z" fill="#CF1616"/><path d="M99.386 55.898v11.658l-.66-.378-1.093-.63-1.931-1.117-1.289-.745-1.93-1.117-.453-.263v-3.988l1.759-1.02 1.294-.756v-.011l.012.011 1.976-1.151 1.576-.917.739.424z" fill="#A51212"/><path d="M101.311 54.724v11.664l-1.93 1.169V55.899l1.93-1.175z" fill="#8F0000"/><path d="M97.633 56.717l-1.931 1.169-.607-.344 1.976-1.151.562.326z" fill="#C916CF"/><path d="M95.702 57.886V69.55l-.527-.31-.762-.435-1.93-1.117-1.049-.601-1.925-1.123-1.157-.665v-3.838l.424-.246 1.97-1.146 1.078-.625.206-.126 1.759-1.02 1.294-.756v-.011l.012.011.607.344z" fill="#A112A5"/><path d="M97.638 56.717v11.664l-1.93 1.17V57.89l1.93-1.174z" fill="#8A008F"/><path d="M94.413 58.66l-1.93 1.168-.453-.264-.206-.12.206-.126 1.759-1.02.624.361z" fill="#5D16CF"/><path d="M92.482 59.828v11.659l-.584-.338-.464-.27-1.925-1.111-1.157-.665-1.93-1.117-1.296-.745v-3.907l.705-.407 1.97-1.151.55-.315.425-.246 1.97-1.146 1.078-.625.206.12.452.264z" fill="#4B12A5"/><path d="M94.413 58.653v11.664l-1.93 1.175V59.828l1.93-1.175z" fill="#37008F"/><path d="M91.434 60.47l-1.925 1.169-.733-.424 1.97-1.146.688.4z" fill="#1666CF"/><path d="M89.51 61.639v11.664l-.666-.378-.492-.292-1.93-1.117-2.562-1.479v-5.963l1.266-.74.705-.406 1.97-1.152.55-.315.425-.246.733.424z" fill="#1251A5"/><path d="M91.44 60.47v11.66l-1.931 1.174V61.64l1.93-1.169z" fill="#003E8F"/><path d="M88.352 62.097l-1.93 1.175-.59-.344 1.97-1.152.55.321z" fill="#16BBCF"/><path d="M86.421 63.272V74.93l-.51-.298-2.05-1.186v-9.373l1.265-.738.705-.407.59.344z" fill="#1295A5"/><path d="M88.352 62.097V73.76l-1.93 1.169V63.265l1.93-1.168z" fill="#00808F"/><path d="M125.493 26.47v11.75l-1.776 1.03-.945.545-.178.109-1.936 1.122-1.123.654-.619.366-1.931 1.123-.996.579h-.006l-.292.172-1.925 1.117-1.049.613h-.005l-1.925 1.123-1.123.653-.035.017-1.925 1.117-.979.573h-.006L83.861 62.424V50.68l16.487-9.585 3.088-1.799 2.974-1.73.235-.137 1.976-1.146.968-.567.04-.023 1.931-1.123 1.077-.624.67-.39 1.301-.756 1.306-.762.453-.258 1.518-.888.71-.412.871-.505 1.976-1.145 1.255-.734 1.977-1.151.819-.476z" fill="#999"/><path d="M125.493 26.47v11.75l-2.899 1.684-1.936 1.122-1.123.654-35.674 20.744v-6.966l29.67-17.256 5.064-2.945V30.48l.871-.505 1.976-1.145 4.051-2.36z" fill="#E6E6E6"/><path d="M125.493 26.47v11.75l-2.899-1.25-1.936-.825-2.063-.888V30.48l.871-.505 1.976-1.145 4.051-2.36z" fill="#999"/><path d="M125.647 27.506l-.154.097-1.776 1.077-1.02-.584 1.976-1.152.82.476.154.086z" fill="#FD9F1B"/><path d="M123.717 28.68v11.664l-.946-.55-3.855-2.228-1.931-1.117-.619-.361v-4.309l1.519-.888 4.812-2.795 1.02.584z" fill="#D38417"/><path d="M125.647 27.511V39.17l-1.93 1.174V28.68l1.93-1.169z" fill="#BD6E00"/><path d="M122.594 29.494l-1.937 1.168-1.191-.687 1.976-1.146 1.152.665z" fill="#CF1616"/><path d="M120.658 30.663v11.67l-1.123-.654-6.004-3.477-.224-.126v-4.52l1.301-.756 1.306-.762.453-.258 1.518-.888.71-.413.871-.504 1.192.688z" fill="#A51212"/><path d="M122.594 29.494v11.664l-1.931 1.169V30.668l1.931-1.174z" fill="#8F0000"/><path d="M118.916 31.487l-1.931 1.17-.618-.356-.453-.264.453-.257 1.518-.888 1.031.595z" fill="#C916CF"/><path d="M116.985 32.656V44.32l-1.002-.572-.292-.172-1.925-1.112-1.049-.607-1.93-1.123-1.158-.664v-4.377l1.931-1.123 1.077-.625 1.971-1.145 1.306-.762.453.263.618.355z" fill="#A112A5"/><path d="M118.916 31.488v11.664l-1.931 1.169V32.662l1.931-1.174z" fill="#8A008F"/><path d="M115.69 33.424l-1.925 1.175-1.128-.653 1.97-1.146 1.083.624z" fill="#5D16CF"/><path d="M113.765 34.599v11.658l-1.048-.601-.006-.006-1.925-1.111-1.157-.665-1.925-1.117-1.295-.745v-4.446l.235-.137 1.977-1.146.968-.567.04-.023 1.931-1.123 1.077-.624.67.39.458.263z" fill="#4B12A5"/><path d="M115.696 33.424v11.664l-1.931 1.175V34.599l1.931-1.175z" fill="#37008F"/><path d="M112.717 35.24l-1.931 1.17-1.157-.671-.04-.023.04-.023 1.931-1.123 1.157.67z" fill="#1666CF"/><path d="M110.787 36.41v11.664l-1.123-.648-.035-.017-1.925-1.123-4.268-2.463v-4.526l2.974-1.73.234-.138 1.977-1.146.968-.567.04.023 1.158.67z" fill="#1251A5"/><path d="M112.717 35.24V46.9l-1.93 1.174V36.41l1.93-1.169z" fill="#003E8F"/><path d="M109.629 36.868l-1.925 1.174-1.059-.613 1.976-1.146 1.008.585z" fill="#16BBCF"/><path d="M107.705 38.042v11.659l-.98-.568h-.006l-6.37-3.683v-4.354l3.088-1.8 2.973-1.73.235-.137 1.06.613z" fill="#1295A5"/><path d="M109.63 36.868v11.664l-1.931 1.169V38.035l1.931-1.168z" fill="#00808F"/><path d="M125.493 53.692v11.75l-1.776 1.037-.945.545-.178.108-1.936 1.123-1.123.654-.619.36-1.931 1.123-.996.579h-.006l-.292.172-1.925 1.117-1.049.613h-.005l-1.925 1.123-1.123.653-.035.017-1.925 1.123-.979.567h-.006L83.861 89.653V77.909l16.487-9.59 3.088-1.794 2.974-1.736.235-.137 1.976-1.146.968-.561.04-.023 1.931-1.123 1.077-.63.67-.39 1.301-.756 1.306-.762.453-.258 1.518-.888.71-.407.871-.51 1.976-1.145 1.255-.734 1.977-1.151.819-.476z" fill="#999"/><path d="M125.493 53.692v11.75l-2.899 1.69-1.936 1.123-1.123.654-35.674 20.744v-6.972l29.67-17.25 5.064-2.95v-4.773l.871-.51 1.976-1.145 4.051-2.36z" fill="#E6E6E6"/><path d="M125.493 53.692v11.75l-2.899-1.243-1.936-.83-2.063-.888v-4.773l.871-.51 1.976-1.145 4.051-2.36z" fill="#999"/><path d="M125.648 54.735l-.155.091-1.776 1.083-1.02-.59 1.977-1.152.819.476.155.092z" fill="#FD9F1B"/><path d="M123.717 55.909v11.658l-.945-.544-3.856-2.234-1.931-1.117-.618-.356v-4.313l1.518-.888 4.812-2.796 1.02.59z" fill="#D38417"/><path d="M125.648 54.734v11.659l-1.931 1.174V55.903l1.931-1.169z" fill="#BD6E00"/><path d="M122.594 56.722l-1.937 1.17-1.191-.694 1.976-1.146 1.152.67z" fill="#CF1616"/><path d="M120.658 57.891v11.665l-1.123-.648-6.004-3.477-.224-.126v-4.526l1.301-.756 1.306-.762.453-.258 1.518-.888.71-.407.871-.51 1.192.693z" fill="#A51212"/><path d="M122.594 56.722v11.659l-1.931 1.174V57.891l1.931-1.169z" fill="#8F0000"/><path d="M118.916 58.71l-1.931 1.175-.618-.36-.453-.264.453-.258 1.518-.888 1.031.596z" fill="#C916CF"/><path d="M116.985 59.885V71.55l-1.002-.578-.292-.172-1.925-1.112-1.049-.607-1.93-1.117-1.158-.67V62.92l1.931-1.122 1.077-.63 1.971-1.146 1.306-.762.453.263.618.361z" fill="#A112A5"/><path d="M118.916 58.71v11.665l-1.931 1.174V59.885l1.931-1.174z" fill="#8A008F"/><path d="M115.69 60.647l-1.924 1.174-1.129-.653 1.971-1.145 1.082.624z" fill="#5D16CF"/><path d="M113.766 61.822v11.664l-1.049-.608-.005-.005-1.925-1.112-1.158-.664-1.925-1.112-1.294-.75v-4.446l.235-.137 1.976-1.146.968-.562.04-.023 1.931-1.122 1.077-.63.67.395.459.258z" fill="#4B12A5"/><path d="M115.696 60.653V72.31l-1.931 1.175V61.82l1.931-1.168z" fill="#37008F"/><path d="M112.717 62.463l-1.931 1.17-1.157-.666-.04-.022.04-.023 1.931-1.123 1.157.664z" fill="#1666CF"/><path d="M110.787 63.632v11.664l-1.123-.647-.035-.017-1.925-1.117-4.268-2.47v-4.52l2.974-1.736.234-.137 1.977-1.146.968-.561.04.023 1.158.664z" fill="#1251A5"/><path d="M112.717 62.463v11.664l-1.93 1.17V63.631l1.93-1.169z" fill="#003E8F"/><path d="M109.629 64.09l-1.925 1.175-1.059-.613 1.976-1.146 1.008.585z" fill="#16BBCF"/><path d="M107.705 65.265v11.659l-.98-.567h-.006l-6.37-3.678v-4.36l3.088-1.793 2.973-1.736.235-.138 1.06.613z" fill="#1295A5"/><path d="M109.63 64.09v11.665l-1.931 1.169V65.265l1.931-1.174z" fill="#00808F"/><path d="M125.493 67.15V78.9L104.37 91.183l-1.931 1.123-.481.275-.642.378-1.93 1.123-.659.384-1.094.636-1.93 1.123-.528.303-.762.447-1.93 1.123-.585.344-.464.263-1.925 1.123-.665.384-.492.287-1.93 1.122-.51.298-2.052 1.192v-11.75l1.266-.74.705-.406 1.97-1.146.55-.32.425-.247 1.97-1.146 1.078-.624.206-.12 1.759-1.026 1.294-.75.012-.006 1.976-1.152 1.576-.916 1.976-1.146 1.261-.733 1.976-1.152 21.633-12.58z" fill="#999"/><path d="M118.595 71.166v4.778l-34.735 20.2v6.967l41.633-24.21V67.156l-6.898 4.01z" fill="#E6E6E6"/><path d="M118.595 75.944l6.898 2.957V67.156l-6.898 4.01v4.778z" fill="#D9D9D9"/><path d="M104.37 80.024l-1.931 1.18-.556-.321 1.977-1.152.51.293z" fill="#FD9F1B"/><path d="M102.439 81.204v11.658l-.481-.28-.642-.367-1.93-1.118-1.753-1.008-1.931-1.117-.619-.36v-3.793l.012.011 1.976-1.151 1.576-.917 1.976-1.146 1.261-.733.555.32z" fill="#D38417"/><path d="M104.37 80.03v11.658l-1.931 1.174V81.198l1.931-1.169z" fill="#BD6E00"/><path d="M101.316 82.011l-1.93 1.18-.74-.429 1.977-1.146.693.395z" fill="#CF1616"/><path d="M99.386 83.192V94.85l-.66-.384-1.093-.63-1.931-1.117-1.289-.739-1.93-1.123-.453-.263v-3.982l1.759-1.025 1.294-.75v-.018l.012.011 1.976-1.151 1.576-.917.739.43z" fill="#A51212"/><path d="M101.311 82.018v11.658l-1.93 1.174V83.186l1.93-1.168z" fill="#8F0000"/><path d="M97.633 84.005l-1.931 1.174-.607-.35 1.976-1.15.562.326z" fill="#C916CF"/><path d="M95.702 85.18v11.663l-.527-.315-.762-.435-1.93-1.112-1.049-.607-1.925-1.117-1.157-.67v-3.839l.424-.246 1.97-1.146 1.078-.624.206-.12 1.759-1.026 1.294-.75v-.018l.012.012.607.35z" fill="#A112A5"/><path d="M97.638 84.005v11.664l-1.93 1.174V85.18l1.93-1.174z" fill="#8A008F"/><path d="M94.413 85.946l-1.93 1.17-.453-.264-.206-.12.206-.121 1.759-1.026.624.361z" fill="#5D16CF"/><path d="M92.482 87.115V98.78l-.584-.338-.464-.269-1.925-1.117-1.157-.665-1.93-1.117-1.296-.745v-3.907l.705-.406 1.97-1.146.55-.321.425-.246 1.97-1.146 1.078-.625.206.12.452.264z" fill="#4B12A5"/><path d="M94.413 85.947v11.658l-1.93 1.175V87.115l1.93-1.168z" fill="#37008F"/><path d="M91.434 87.757l-1.925 1.169-.733-.424 1.97-1.146.688.401z" fill="#1666CF"/><path d="M89.51 88.926v11.664l-.666-.378-.492-.287-1.93-1.117-2.562-1.484v-5.963l1.266-.74.705-.406 1.97-1.146.55-.32.425-.247.733.424z" fill="#1251A5"/><path d="M91.44 87.757v11.659l-1.931 1.174V88.926l1.93-1.169z" fill="#003E8F"/><path d="M88.352 89.39l-1.93 1.168-.59-.343 1.97-1.146.55.32z" fill="#16BBCF"/><path d="M86.421 90.559v11.658l-.51-.298-2.05-1.18v-9.378l1.265-.74.705-.406.59.344z" fill="#1295A5"/><path d="M88.352 89.384v11.664l-1.93 1.169V90.558l1.93-1.174z" fill="#00808F"/><path d="M140.99 104.25l21.397-11.79-1.341-.699-21.311 11.641 1.255.848z" fill="#FFF5F6"/><path d="M139.735 105.013v-1.61l1.254.848v1.615l-1.254-.853z" fill="#4F3627"/><path d="M140.99 105.866l21.397-11.796v-1.61l-21.397 11.79v1.616z" fill="#999"/><path d="M178.291 91.148l-20.286-11.424.246 32.088 20.28 11.429-.24-32.093z" fill="#292929"/><path d="M182.628 120.818l-4.097 2.423-.24-32.093 4.09-2.418.247 32.088z" fill="#212121"/><path d="M182.381 88.73l-20.28-11.429-4.096 2.424 20.286 11.423 4.09-2.417z" fill="#4A4A4A"/><path d="M140.944 139.959l20.103-11.097-1.341-.694-20.097 11.097 1.335.694z" fill="#FFF5F6"/><path d="M139.609 140.875v-1.609l1.335.693v1.61l-1.335-.694z" fill="#A8A8A8"/><path d="M140.944 141.569l20.102-11.097v-1.61l-20.102 11.097v1.61z" fill="#999"/><path d="M178.308 142.055l-20.161-11.641 2.888-1.547 20.166 11.641-2.893 1.547z" fill="#FFF5F6"/><path d="M181.201 142.119v-1.61l-2.893 1.547v1.609l2.893-1.546z" fill="#3B2619"/><path d="M178.308 143.665l-20.161-11.641v-1.61l20.161 11.641v1.61z" fill="#A8A8A8"/><path d="M162.433 152.31l20.097-11.097-1.335-.693-20.103 11.097 1.341.693z" fill="#FFF5F6"/><path d="M161.092 153.227v-1.61l1.341.693v1.61l-1.341-.693z" fill="#A8A8A8"/><path d="M162.433 153.92l20.097-11.097v-1.61l-20.097 11.097v1.61z" fill="#999"/><path d="M140.984 104.251l-.04 35.685-1.341-.699.126-35.828 1.255.842z" fill="#A8A8A8"/><path d="M141.144 102.635l-1.415.774 1.255.842 1.409-.774-1.249-.842z" fill="#FFF5F6"/><path d="M142.393 103.477l-.04 35.686-1.409.773.04-35.686 1.409-.773z" fill="#999"/><path d="M158.486 129.039l-20.161-11.641 20.035-11.566 20.16 11.641-20.034 11.566z" fill="#4A4A4A"/><path d="M178.52 123.259v-5.786l-20.034 11.566v5.792l20.034-11.572z" fill="#212121"/><path d="M158.486 134.831l-20.161-11.641v-5.792l20.161 11.641v5.792z" fill="#292929"/><path d="M155.759 77.33a25.35 25.35 0 0 1-.39 3.277c-.172.934-.401 1.885-.979 2.635-.413.539-.934.94-1.49 1.283-.991.579-2.131.951-3.145 1.484-1.702.882-3.352 2.011-5.288 2.292-.023-.11-.029-.212-.057-.31a2.428 2.428 0 0 0-.132-.492c-.252-.74-.693-1.352-1.381-1.874-.699-.51-1.501-.847-2.303-1.168-.498-.2-1.312-.905-1.759-.184.384-.624.717-.95 1.347-1.306.584-.332 1.186-.636 1.787-.94 1.209-.607 2.435-1.185 3.598-1.884a44.919 44.919 0 0 0 4.755-3.283c.057-.052.12-.097.178-.149.613-.521 1.22-1.18 1.982-1.37.057-.016.132-.028.189-.05.813-.19 1.684-.241 2.423.211.138.08.252.178.338.293.338.395.361.973.327 1.535z" fill="#fff"/><path d="M151.135 97.364h-.401c-.36 0-.721.012-1.082.012-.161.481-.693.802-1.18.722a1.17 1.17 0 0 1-.178.52c-.229.373-.659.562-1.094.614-.43.04-.86-.04-1.289-.12-.51-.098-1.049-.218-1.433-.573-.561-.522-.613-1.37-.658-2.143-.052-.739-.201-1.37-.699-1.93-.338-.379-.831-.51-1.209-.791a1.064 1.064 0 0 1-.241-.212c-.08-.092-.16-.212-.149-.338.023-.132.132-.218.229-.31.699-.572 1.41-1.14 2.114-1.724.132-.097.293-.218.459-.172a.7.7 0 0 1 .229.2c.252.27.493.293.779.453.481.252 1.02.333 1.541.47.521.132 1.06.332 1.404.74.24.309.361.698.51 1.059.097.258.24.579.469.762.23.178.539.212.791.39.069.051.132.108.149.189.017.08-.023.16-.057.229-.189.257-.573.332-.883.252-.309-.092-.578-.292-.83-.493-.413-.31-.831-.63-1.243-.95.212.68.779 1.202 1.409 1.54.619.338 1.323.533 1.994.774.177.068.372.137.498.292.132.149.183.39.051.538z" fill="#FFCEB3"/><path d="M150.734 97.364c-.36 0-.721.012-1.082.012-.161.48-.694.802-1.18.721a1.17 1.17 0 0 1-.178.522c-.229.372-.659.561-1.094.613-.43.04-.86-.04-1.289-.12-.51-.098-1.049-.218-1.433-.573-.561-.522-.613-1.37-.658-2.143-.052-.739-.201-1.37-.699-1.93-.338-.379-.831-.51-1.209-.791.092-.08.177-.16.292-.218l.67-.521c.413-.052.762.298.974.659.579 1.02.63 2.394 1.541 3.145.51.412 1.18.538 1.822.578.493.029.98.023 1.472-.04.682-.08 1.461-.212 2.051.086z" fill="#F2BC9E"/><path d="M145.71 91.779c-.98-.281-2.051.338-2.555 1.22-.51.882-.539 1.954-.401 2.962a5.348 5.348 0 0 1-1.071-.573c-.992-.682-1.731-1.673-2.372-2.704-.911-1.472-1.673-3.105-1.73-4.835-.058-1.473.469-3.025 1.552-3.993.189-.172.401-.321.63-.453l.453-.258c.739-.24 1.581-.132 2.274.23.699.36 1.261.95 1.673 1.61.252.417.453.881.453 1.363.011.332-.08.641-.132.962-.04.218-.057.441-.069.67a5.41 5.41 0 0 0 1.295 3.799z" fill="#fff"/><path d="M152.974 84.142c-.017.132-.051.252-.08.372v.012c-.991.578-2.131.95-3.145 1.483-1.701.883-3.351 2.011-5.288 2.292-.023-.109-.028-.212-.057-.31a5.479 5.479 0 0 0 1.3 3.793c-.979-.28-2.051.338-2.555 1.22-.51.883-.538 1.954-.401 2.962a5.375 5.375 0 0 1-1.071-.573 5.84 5.84 0 0 1 .309-1.3c.43-1.232 1.123-2.383 1.249-3.672.052-.493.017-.98.132-1.45.138-.578.47-1.06.899-1.46v-.012a.985.985 0 0 1 .201-.178c.458-.4 1.014-.721 1.553-.99 1.151-.58 2.434-1.072 3.213-2.092 1.57-2.045.47-5.104 1.261-7.528.613-.521 1.22-1.18 1.982-1.369.057-.017.132-.029.189-.052-.687 2.82.894 5.924.309 8.852z" fill="#CCC"/><path d="M149.749 139.73a.59.59 0 0 0-.057-.121c-.189-.292-.757-.412-1.02-.658-.332-.31-.504-.757-.854-1.055-.378-.32-.687-.217-1.214-.286-.464-.057-.963-.258-1.169-.682-.619.43-1.14.997-1.524 1.65l-1.69.768c-1.85 1.529-3.678 3.323-5.78 4.503-.991.555-1.914 1.134-2.126 2.331-.086.482-.051.992.166 1.421.333.653 1.037 1.037 1.753 1.203 2.916.665 5.174-1.466 7.053-3.357 1.105-1.111 2.698-1.363 4.067-2.011.539-.252 1.375-.647 1.73-1.145.338-.476.906-1.902.665-2.561z" fill="#292929"/><path d="M158.073 109.681c-.08.573-.2 1.135-.338 1.69-.361 1.433-.871 2.865-1.793 4.016-1.203 1.513-2.985 2.424-4.703 3.277-2.762 1.381-5.546 2.756-8.433 3.856.017.029.051.052.068.08.212.332.321.722.419 1.1a179.185 179.185 0 0 0 4.697 15.067 30.069 30.069 0 0 1-3.036 1.742c-.493.252-1.014.481-1.553.493-1.22.011-2.142-1.06-2.801-2.074-.092-.138-.189-.281-.269-.43a27.173 27.173 0 0 1-2.005-3.684c-.631-1.392-5.185-11.045-5.546-14.78-.04-.361-.052-.739.052-1.095.097-.338.297-.653.509-.951.018-.028.052-.057.069-.097.39-.751 1.02-1.449 1.644-2.051 5.46-5.385 11.057-10.862 17.961-14.191l4.497 2.114c.825 1.845.882 3.908.561 5.918z" fill="#373C40"/><path d="M158.073 109.681c-.08.573-.2 1.134-.338 1.69-.361 1.432-.871 2.865-1.793 4.016-1.203 1.513-2.985 2.424-4.704 3.277-2.761 1.381-5.545 2.756-8.433 3.856.018.028.052.051.069.08.212.332.321.722.418 1.1a179.192 179.192 0 0 0 4.698 15.067 30.18 30.18 0 0 1-3.036 1.742c-.493.252-1.014.481-1.553.492-1.22.012-2.142-1.06-2.801-2.074-.092-.137-.189-.28-.269-.429 1.042-.453 2.532-.292 3.391-1.112.602-.573.733-1.501.619-2.331-.138-1.043-.59-2.011-1.014-2.985-1.381-3.174-1.994-6.451-2.572-9.842-.178-1.1-.098-2.372.721-3.117.51-.47 1.181-.619 1.805-.871.579-.252.991-.641 1.57-.894 4.663-1.97 9.664-3.786 13.056-7.55l.166-.115z" fill="#CCC"/><path d="M152.997 142.17a5.763 5.763 0 0 1-3.798.642c-.957-.172-1.799-.333-2.183.813-.171.516-.154 1.071-.217 1.61-.109.962-.476 2.005-1.117 2.744-.613.705-1.433 1.203-2.109 1.851a6.457 6.457 0 0 0-1.558 2.32c-.269.681-.418 1.461-.143 2.142a2.3 2.3 0 0 0 .876 1.032c1.106.733 2.619.613 3.799-.006 1.174-.619 2.074-1.65 2.87-2.716.796-1.06 1.535-2.182 2.515-3.082.785-.722 1.776-1.375 2.011-2.417.384-1.656-1.41-3.283-.946-4.933z" fill="#292929"/><path d="M171.92 117.163c-.699 1.53-1.971 2.733-3.237 3.856-.051.04-.097.091-.149.131a106.121 106.121 0 0 1-11.996 9.172c-.057.04-.132.081-.189.121.321 1.512-.04 3.895-.258 4.743-.43 1.65-1.209 3.037-1.541 4.715-.281 1.392-.762 2.716-1.111 4.073-.218.871-.23 2.103-1.175 2.573-.2.097-.441.097-.67.097-1.713-.04-3.506-.097-4.996-.934-.252-.137-.492-.321-.601-.578-.069-.172-.058-.373-.058-.562.018-.59.069-1.18.132-1.77.149-1.541.39-3.076.493-4.635.137-2.165.579-4.526.43-6.685-.132-1.834-.774-4.114.257-5.787 1.095-1.764 3.037-3.363 4.389-4.955 1.484-1.753 3.025-3.615 3.386-5.878.12-.762.097-1.541.257-2.292.161-.75.539-1.512 1.221-1.873.481-.252 1.054-.269 1.592-.281 1.169-.028 2.332-.051 3.495-.08 1.043-.017 1.782-.51 2.801-.642a20.245 20.245 0 0 1 7.11.493c.338.08.71.201.922.481.189.258.201.613.212.934.035 1.874.058 3.839-.716 5.563z" fill="#373C40"/><path d="M156.544 130.317c-.057.04-.132.08-.189.12.321 1.513-.04 3.896-.258 4.744-.43 1.65-1.209 3.036-1.541 4.715-.281 1.392-.762 2.715-1.112 4.073-.217.871-.229 2.103-1.174 2.572-.2.098-.441.098-.67.098-1.713-.04-3.506-.098-4.996-.934-.252-.138-.493-.321-.601-.579-.069-.172-.058-.372-.058-.561a22.9 22.9 0 0 1 .132-1.77 8.862 8.862 0 0 0 3.334.372c.86-.069 1.765-.281 2.412-.859.751-.659 1.054-1.69 1.324-2.664.389-1.404.532-2.853.933-4.274.516-1.828.694-4.028 1.559-5.706.154-.298.372-.556.607-.802.859-.905 1.678-1.862 2.601-2.704a46.514 46.514 0 0 0 1.696-1.627c.28-.281 1.609-1.335 1.609-1.713l-.418-2.401c-.137.092-.349 0-.378-.16a6.744 6.744 0 0 1 4.938-1.513c.51.052 1.032.161 1.444.47.573.441.831 1.203.819 1.925a107.309 107.309 0 0 1-12.013 9.178z" fill="#CCC"/><path d="M173.375 91.704l.052-.544c.114-1.146.08-2.28.183-3.403.063-.71 2.194-7.93 2.698-7.74-2.314-.888-4.09-2.79-6.279-3.953-1.271-.67-2.663-1.083-4.044-1.478-4.182-1.198-8.107-1.501-12.249.12-1.088.424-1.615.71-1.919 1.862-.223.848-.263 1.742-.349 2.612-.144 1.404-.144 2.813-.184 4.217-.086 2.87.006 5.769.613 8.588.378 1.747.946 3.46 1.169 5.236.218 1.776.052 3.684-.939 5.173-.419.63-.986 1.197-1.158 1.931-.384 1.638 1.427 3.661 2.51 4.72.114.115.269.23.423.178.086-.029.144-.109.201-.183.59-.82 1.404-1.622 2.332-2.051.418 1.105-.533 2.876-.98 3.89.12-.281 3.707.028 4.142.04 1.318.04 1.936.252 3.162.75a15.444 15.444 0 0 0 7.712 1.032c.406-.052.825-.121 1.185-.316.677-.366 1.055-1.117 1.267-1.861.315-1.118.338-2.292.355-3.449.04-2.418.206-4.79.321-7.196.068-1.432-.281-2.956-.321-4.405a30.62 30.62 0 0 1 .097-3.77z" fill="#4FA0FF"/><path d="M158.818 75.125c-.304-.928-.556-1.387-1.667-1.478-1.948-.155-4.234.635-5.448 2.222-1.266 1.65-1.301 3.89-1.066 5.844.309 2.555.246 5.219.372 7.797.081 1.724.167 3.46.579 5.133.281 1.14.722 2.286.573 3.455-.16 1.26-.974 2.331-1.828 3.277-3.254 3.62-7.356 6.359-11.005 9.584a52.424 52.424 0 0 0-3.346 3.237 5.641 5.641 0 0 1 4.859.092c.733.372 2.182 2.48 2.87 2.291.286-.08.504-.303.71-.515 2.022-2.097 3.97-4.337 6.101-6.319 2.263-2.109 3.14-4.801 4.486-7.442 1.421-2.802 2.647-5.73 3.294-8.811a24.97 24.97 0 0 0 .533-5.62c-.028-1.645.355-3.197.355-4.83 0-1.535.51-3.054.493-4.606-.017-1.209-.504-2.194-.865-3.311zm15.617 8.031c-.653 2.521-1.312 5.065-1.392 7.671-.057 2.252.298 4.498.498 6.732.43 4.738.109 9.493-.212 14.231-.12 1.89-.257 3.832-1.082 5.557-.871 1.85-2.584 3.173-4.217 4.336-1.633 1.169-3.546 1.965-5.505 2.372-3.827.814-7.998.201-11.327-1.925a.6.6 0 0 1-.252-.24c-.091-.189.029-.419.149-.613a.573.573 0 0 0 .058-.092c5.935-9.172 11.154-19.135 12.787-29.95.189-1.21.332-2.441.481-3.667.16-1.364.338-2.722.619-4.068.04-.23.091-.453.137-.682.269-1.191.55-2.795 1.26-3.815.619-.894 1.633-1.702 2.372-2.52l-1.031-.654c.309-.699 1.329-.67 2.074-.43a9.103 9.103 0 0 1 3.575 2.183c.011.012.023.017.028.029.459.452.871.962 1.112 1.552.527 1.26.2 2.681-.132 3.993z" fill="#fff"/><path d="M174.435 83.156c-.653 2.521-1.312 5.065-1.392 7.671-.057 2.252.298 4.498.498 6.732.43 4.738.109 9.493-.212 14.231-.12 1.89-.257 3.832-1.082 5.557-.871 1.85-2.584 3.173-4.217 4.336-1.633 1.169-3.546 1.965-5.505 2.372-3.827.814-7.998.201-11.327-1.925a.6.6 0 0 1-.252-.24c-.091-.189.029-.419.149-.613a.573.573 0 0 0 .058-.092c2.423.533 4.835 1.123 7.321 1.26 3.512.189 7.339-.699 9.585-3.414 1.77-2.131 2.274-5.024 2.572-7.78.51-4.715.602-9.481.252-14.22-.132-1.89-.338-3.815-1.031-5.58-.35-.881-.842-1.752-1.61-2.302-.453-.332-.991-.533-1.524-.722-.762-.292-1.529-.573-2.291-.86-.762-.28-1.513-.572-2.275-.853.562-1.364 1.61-2.504 2.893-3.214a6.16 6.16 0 0 1 2.521-.814c.67-.068 1.381-.04 1.965-.378.871-.52 1.111-1.644 1.57-2.543a4.872 4.872 0 0 1 2.331-2.183c.012.012.023.017.029.029.458.452.871.962 1.112 1.552.521 1.26.194 2.681-.138 3.993z" fill="#CCC"/><path d="M168.019 71.372c-.149.922-.293 1.845-.43 2.756-.138.893-.298 1.363-.814 2.09-.63.9-1.329 1.754-2.062 2.573-1.203 1.34-2.503 2.595-3.804 3.844a7.836 7.836 0 0 0-2.412-2.784.744.744 0 0 1-.281-.27c-.057-.131-.04-.291-.011-.44.137-.774.269-1.553.412-2.32.029-.178.058-.35.092-.534 1.782-.28 3.455-1.02 4.996-1.93.802-.47 1.569-.991 2.32-1.53.579-.4 1.192-.659 1.69-1.128a4.02 4.02 0 0 0 .304-.327z" fill="#FFCEB3"/><path d="M168.019 71.372c-.149.922-.292 1.845-.43 2.756-.137.893-.298 1.363-.813 2.09a27.97 27.97 0 0 1-2.063 2.573.186.186 0 0 1-.137-.057c-.103-.11-.052-.27 0-.401.389-.923.951-1.765 1.271-2.704.069-.19.098-.43-.068-.533-.121-.069-.27-.012-.401.057-1.129.55-2.223 1.192-3.392 1.644-.859.321-1.822.533-2.664.19l-.418-.018c-.092-.051-.189-.091-.281-.149.029-.177.058-.35.092-.532 1.782-.281 3.455-1.02 4.996-1.931.802-.47 1.569-.991 2.32-1.53.578-.4 1.191-.659 1.69-1.128.103-.103.206-.218.298-.327z" fill="#F2BC9E"/><path d="M161.642 82.09c-.074-.32-.303-.64-.435-.899-.481-.922-.962-1.85-1.341-2.824-.429-1.106-.509-2.143-.664-3.288-.189-1.353-1.404.297-1.684.75a16.79 16.79 0 0 0-1.341 2.641c.435.075 1.272-.011 1.621.212-.206.516-.464.974-.578 1.535.286-.057.578.063.836.2a6.863 6.863 0 0 1 2.183 1.788c.172.212.332.436.578.556.327.16.711.046.825-.292a.756.756 0 0 0 0-.378z" fill="#69AEFF"/><path d="M169.841 68.81c.028.379-.109.751-.253 1.1-.246.62-.486 1.267-.916 1.788-.201.24-.447.47-.756.556-.413.114-.694-.115-1.055.223-.332.321-.498.7-.756 1.072a6.977 6.977 0 0 1-.916 1.054 8.594 8.594 0 0 1-2.309 1.575c-1.484.67-3.455.59-4.503-.659-.802-.94-.894-2.291-.871-3.534.029-2.252-.109-4.503-.04-6.76.023-.63.097-1.272.321-1.862.028-.08.057-.16.109-.241.24-.458.653-.882.739-1.34.641-.052 1.289-.08 1.942-.12a12.346 12.346 0 0 1 4.606-.19c.177.017.349.052.533.08.137.029.298.058.389.178.092.12.069.292.052.453-.012.057-.012.12-.017.177a12.997 12.997 0 0 0 .217 3.884c.109.533.31 1.404.842 1.685.699.36.923-.75 1.53-.55.109.04.189.131.269.217.081.092.178.178.281.281.269.27.562.584.562.934z" fill="#FFCEB3"/><path d="M167.824 72.277c-.2.034-.418.017-.602.097a1.738 1.738 0 0 0-.435.298c-.275.252-.475.568-.67.883a4.43 4.43 0 0 1 .624-1.696c.224-.367.562-.82.378-1.272-.068-.172-.2-.298-.338-.418-.613-.522-1.432-.773-2.011-1.33-.613-.578-.882-1.42-1.059-2.24-.081-.412-.161-.83-.35-1.202-.189-.373-.521-.7-.939-.762-.361-.058-.711.091-1.072.149-.693.12-1.409-.098-2.011-.459-.532-.332-.991-.75-1.432-1.191.241-.459.653-.883.739-1.34.642-.052 1.289-.081 1.942-.121a12.348 12.348 0 0 1 4.606-.19c.338.259.659.562.951.895a13.03 13.03 0 0 0 .218 3.884c.109.532.31 1.403.842 1.684.699.361.923-.75 1.53-.55.109.04.189.132.269.218.08.091.178.177.281.28.269.27.561.58.561.934.029.378-.109.75-.252 1.1-.258.642-.504 1.318-.962 1.845-.218.23-.481.447-.808.504z" fill="#F2BC9E"/><path d="M158.606 60.562c.046-.058.092-.104.138-.16l.069-.207a20.73 20.73 0 0 1-.207.367z" fill="#fff"/><path d="M170.528 66.216c-.08.372-.177.739-.269 1.123-.04.16-.08.32-.12.492-.058.235-.126.465-.178.7-.029.131-.04.257-.057.389-.006.063-.023.114-.04.177-.018.058-.069.155-.069.213-.006-.115.017-.264-.012-.379-.023-.08-.091-.166-.131-.24a2.784 2.784 0 0 0-.338-.47c-.224-.252-.539-.487-.9-.424-.934.172-.699 1.633-1.994 1.112-.521-.213-.733-.82-.893-1.364-.069-.23-.138-.458-.178-.693-.12-.774-.252-1.673 0-2.4.212-.573.521-1.45-.028-1.926-.642-.538-1.845.35-2.481.522-1.06.28-2.234.31-3.237-.15-1.541-.698-1.61-2.033-.533-3.236a3.54 3.54 0 0 1 .722-.613 5.65 5.65 0 0 1 1.203-.653 7.765 7.765 0 0 1 4.635-.332c1.953.458 3.655 1.58 4.617 3.345.252.499.379 1.054.413 1.65.051 1.072.103 2.114-.132 3.157z" fill="#944F06"/><path d="M168.93 74.872c-.006-.005-.006-.011-.012-.017-.412-.619-.819-1.243-1.232-1.862.04 1.335-.63 2.601-1.483 3.632-.797.957-1.92 1.696-2.647 2.699-.682.94-1.501 1.758-2.389 2.532-.269.235-.539.521-.837.71-.212.132-.458.15-.544.43.424.172.951-.206 1.381-.264.218-.028 1.959-.046 1.976.27a4.992 4.992 0 0 1 1.106-3.358c.372.201.665.527.997.785.452.355.911.705 1.363 1.06.012.012.029.023.046.017.012-.005.017-.017.023-.028.327-.837.722-1.604 1.134-2.395.419-.802.716-1.799 1.215-2.544.137-.332.269-.687.2-1.042-.04-.23-.171-.43-.297-.625z" fill="#69AEFF"/><path d="M172.986 89.046l-.029-.074h-.005c-.064.017.017.137.034.074z" fill="#fff"/><path d="M184.919 97.347c-.131.27-.412.453-.67.613-.218.132-.361.218-.51.418-.149.19-.338.458-.538.613a3.79 3.79 0 0 1-.373.35c-.349.297-.762.532-1.209.47-.452-.058-.819-.402-1.151-.723-.533-.51-1.06-1.02-1.581-1.53-.55-.532-1.1-1.059-1.65-1.603-.911-.871-1.811-1.753-2.544-2.773-1.054-1.46-1.69-3.174-2.463-4.807a4.485 4.485 0 0 0-.132-.292c-.029-.057-.08-.132-.138-.109l-.441-1.094c0-.011-.011-.017-.011-.017l-.31-.78-.71-1.78c.178-1.261.361-2.556.94-3.685.418-.83 1.312-1.884 2.303-2.28.08-.04.172-.069.257-.091.493-.138.992-.098 1.461.212.562.372.94.94 1.301 1.5.372.562.733 1.112 1.1 1.673.641.992 1.3 1.983 1.77 3.065 1.409 3.237 3.076 6.348 4.646 9.505.052.12.109.229.172.338.332.613.441 1.209.533 1.89 0 .029.011.057.011.098.035.275.058.567-.063.819z" fill="#fff"/><path d="M184.919 97.347c-.131.27-.412.452-.67.613-.218.132-.361.218-.51.418-.149.19-.338.458-.538.613a3.79 3.79 0 0 1-.373.35 6.018 6.018 0 0 1-.578-.35c-1.312-.894-2.355-2.114-3.357-3.334-2.206-2.693-4.314-5.46-6.72-7.97-.23-.24-.47-.509-.659-.801 0-.012-.012-.017-.012-.017-.16-.252-.28-.51-.309-.78a1.294 1.294 0 0 1 .017-.44 22.891 22.891 0 0 1 6.629 3.511c.561.418 1.14.762 1.73 1.123.097.069.24.097.32.011.058-.051.069-.137.069-.217.052-1.873-.882-4.033-1.753-5.66-.682-1.243-1.472-2.424-2.263-3.604-.332-.498-.63-1.083-1.083-1.46-.418-.362-.83-.58-1.14-1.015a1.4 1.4 0 0 1 .258-.091c.493-.138.991-.098 1.461.212.562.372.94.94 1.301 1.5.372.562.733 1.112 1.1 1.673.641.992 1.3 1.983 1.77 3.065 1.409 3.237 3.076 6.348 4.646 9.505.051.12.109.229.172.338.332.613.441 1.209.533 1.89 0 .029.011.057.011.098.046.275.069.567-.052.819zm-27.751-13.624l12.816 7.746-3.69 17.364-13.148-6.915 4.022-18.195z" fill="#CCC"/><path d="M156.171 81.718l12.81 7.746-3.689 17.37-13.148-6.915 4.027-18.2z" fill="#FFF0CC"/><path d="M172.871 88.404c-.092.378-.298.739-.642.922-.458.252-1.031.132-1.483-.12-.453-.252-.82-.613-1.249-.894-.453-.298-.94-.492-1.421-.733-.682-.332-1.329-.733-2.045-1.014-.711-.27-1.501-.412-2.235-.189-.229.069-.458.178-.601.378-.052.069-.097.16-.172.212-.137.092-.349-.017-.418-.172-.069-.16-.052-.338-.012-.498a.341.341 0 0 1-.108-.069.743.743 0 0 1-.298-.733c-.281.177-.711-.138-.613-.459-.058.19-.682-.12-.642-.36.029-.15.332-.43.418-.573.172-.258.338-.522.51-.791.218-.332.441-.659.762-.882.201-.132.43-.212.653-.293.762-.269 1.53-.532 2.292-.801.2-.07.401-.138.613-.16.573-.052 1.111.291 1.489.72.39.42.671.935 1.043 1.364.309.373.693.67 1.06.98.618.498 1.231 1.014 1.85 1.524.298.252.613.498.911.75.132.098.258.212.332.361.052.12.052.241.058.361.028.401.051.79-.052 1.169z" fill="#FFCEB3"/><path d="M172.871 88.404c-.091.378-.298.74-.641.922-.459.252-1.032.132-1.484-.12-.453-.252-.819-.613-1.249-.894-.453-.298-.94-.492-1.421-.733-.682-.332-1.329-.733-2.045-1.014-.711-.27-1.501-.412-2.234-.189-.23.069-.459.178-.602.378-.052.069-.097.16-.172.212-.137.092-.349-.017-.418-.172-.069-.16-.052-.338-.012-.498a.341.341 0 0 1-.108-.069c.658-.533 1.569-.739 2.423-.67 1.014.08 1.971.498 2.864.99.453.242.883.5 1.324.751.332.178.762.539 1.151.579.923.092 1.284-1.192 1.352-1.885.012-.08.018-.16.029-.229.298.252.613.498.911.75.132.098.258.212.332.361.052.12.052.241.058.361.022.401.045.79-.058 1.169z" fill="#F2BC9E"/><path d="M185.016 99.598c-.412.894-1.134 1.644-2.131 1.69-.939.04-1.885-.28-2.635-.83-.43-.31-.894-.533-1.364-.78a3.35 3.35 0 0 1-.372-.257c-.212-.16-.412-.338-.63-.499-.51-.372-.974-.813-1.432-1.249-.699-.681-1.513-1.209-2.172-1.913a8.572 8.572 0 0 1-.429-.493 14.728 14.728 0 0 1-1.203-1.701c-.791-1.26-1.45-2.613-2.275-3.856-.2-.292-.401-.579-.613-.86.659.872 1.942.362 2.452-.47.161-.257.252-.56.212-.853-.069-.532-.452-.99-.458-1.524 1.031 1.21 2.681 1.65 3.953 2.601.521.39.98.86 1.484 1.284.853.721 1.833 1.271 2.761 1.884.521.338 1.031.7 1.49 1.123 1.099 1.003 2.411 2.292 3.116 3.615.012.012.012.029.017.04.058.11.109.241.161.373.028.091.068.2.091.298.018.051.04.097.052.149.011.04.017.068.017.108.183.71.189 1.53-.092 2.12z" fill="#fff"/><path d="M170.138 67.825c-.051.224-.12.447-.171.67-.058.258-.058.516-.167.763.035-.396-.24-.762-.492-1.043-.224-.252-.539-.487-.9-.424-.934.172-.699 1.633-1.993 1.112-.522-.213-.734-.82-.894-1.364-.069-.23-.138-.458-.178-.693-.12-.774-.252-1.673 0-2.4.212-.573.522-1.45-.028-1.926-.642-.538-1.845.35-2.481.522-1.06.28-2.234.31-3.237-.15-1.541-.698-1.61-2.033-.533-3.236a3.54 3.54 0 0 1 .722-.613c-.229.441-.412.934-.212 1.37.241.55.934.71 1.53.721.853.011 1.69-.16 2.544-.12.853.028 1.753.332 2.222 1.03.39.58.419 1.313.441 2.006.012.493.018.98.029 1.46.012.373.029.774.252 1.06.31.413.9.482 1.421.419.51-.057 1.031-.2 1.53-.069.269.069.498.218.699.401-.023.178-.063.338-.104.504z" fill="#804200"/><path d="M173.484 77.834a.718.718 0 0 1 .075-.234l-.126-.264.051.498z" fill="#CCC"/><path d="M156.807 94.803c-.722.063-1.449.12-2.171.184-1.335.108-2.67.223-4.005.332-.154.011-.309 0-.464-.006a.286.286 0 0 1-.109.235c-.297.252-.79.132-1.105-.029-.132-.068-.247-.04-.39-.028-.028 0 .04.28.08.31.247.177.453.194.734.17l.596-.05c.504-.04 1.008-.087 1.512-.127 1.117-.091 2.229-.189 3.346-.28.658-.058 1.317-.11 1.976-.166.017 0 .029 0 .046-.006l1.008-.344-1.054-.195z" fill="#2C3033"/><path d="M162.484 116.631l21.392-11.796-1.34-.693-21.312 11.641 1.26.848z" fill="#FFF5F6"/><path d="M161.224 117.393v-1.61l1.26.848v1.609l-1.26-.847z" fill="#4F3627"/><path d="M162.484 118.24l21.392-11.796v-1.61l-21.392 11.796v1.61z" fill="#999"/><path d="M162.473 116.625l-.04 35.691-1.34-.699.131-35.834 1.249.842z" fill="#A8A8A8"/><path d="M162.634 115.009l-1.41.774 1.249.842 1.415-.774-1.254-.842z" fill="#FFF5F6"/><path d="M163.888 115.851l-.04 35.691-1.415.774.04-35.692 1.415-.773z" fill="#999"/><path d="M148.397 142.835l-2.154-1.243 2.143-1.238 2.154 1.244-2.143 1.237z" fill="#FFF5F6"/><path d="M150.54 175.519v-33.921l-2.143 1.237v33.921l2.143-1.237z" fill="#262626"/><path d="M148.397 176.756l-2.154-1.243v-33.921l2.154 1.243v33.921z" fill="#404040"/><path d="M182.318 126.187l-2.154-1.244 2.143-1.237 2.154 1.243-2.143 1.238z" fill="#FFF5F6"/><path d="M184.461 154.047v-29.098l-2.143 1.238v29.097l2.143-1.237z" fill="#262626"/><path d="M182.318 155.283l-2.154-1.243v-29.097l2.154 1.243v29.097z" fill="#404040"/><path d="M88.226 110.335l-2.154-1.244 2.143-1.237 2.154 1.243-2.143 1.238z" fill="#FFF5F6"/><path d="M90.369 143.023v-33.926l-2.143 1.237v33.921l2.143-1.232z" fill="#262626"/><path d="M88.226 144.256l-2.154-1.244v-33.921l2.154 1.243v33.922z" fill="#404040"/><path d="M122.147 93.686l-2.154-1.244 2.143-1.237 2.154 1.243-2.143 1.238z" fill="#FFF5F6"/><path d="M124.29 121.546V92.448l-2.143 1.238v29.097l2.143-1.237z" fill="#262626"/><path d="M122.147 122.783l-2.154-1.243V92.443l2.154 1.243v29.097z" fill="#404040"/><path d="M148.317 143.82l-62.612-35.29 38.854-18.848 60.452 34.568-36.694 19.57z" fill="#FFF5F6"/><path d="M185.011 124.25v2.475l-36.694 19.57v-2.474l36.694-19.571z" fill="#999"/><path d="M85.705 108.53v2.48l62.612 35.285v-2.475l-62.612-35.29z" fill="#A8A8A8"/><path d="M79.896 178.194l20.882-11.526-1.392-.722-20.882 11.526 1.392.722z" fill="#FFF5F6"/><path d="M78.504 179.145v-1.673l1.392.722v1.673l-1.392-.722z" fill="#A8A8A8"/><path d="M79.896 179.867l20.882-11.527v-1.673l-20.882 11.527v1.673z" fill="#999"/><path d="M100.864 190.288l-20.945-12.094 3.002-1.61 20.951 12.094-3.008 1.61z" fill="#FFF5F6"/><path d="M103.872 190.351v-1.673l-3.007 1.61v1.672l3.007-1.609z" fill="#3B2619"/><path d="M100.864 191.961l-20.945-12.094v-1.673l20.945 12.094v1.673z" fill="#A8A8A8"/><path d="M102.222 191.027l20.882-11.526-1.392-.722-20.882 11.526 1.392.722z" fill="#FFF5F6"/><path d="M100.83 191.979v-1.673l1.392.721v1.673l-1.392-.721z" fill="#A8A8A8"/><path d="M102.222 192.7l20.882-11.526v-1.673l-20.882 11.527v1.672z" fill="#999"/><path d="M120.377 160.818c-.905-.206-1.856.006-2.744.281-.888.275-1.77.618-2.699.693-.991.074-1.134-.905-2.045-.957-1.088-.057-2.291.229-3.334.527-.178.052-.367.109-.487.247-.126.137-.166.332-.212.509-.407 1.605-2.859 4.503-.98 5.884.653.481 1.53.481 2.332.367.682-.098 1.352-.269 2.017-.436 1.208-.309 2.417-.613 3.62-.922 1.834-.464 3.736-.962 5.191-2.171.653-.544 1.226-1.312 1.163-2.16-.069-.928-.917-1.656-1.822-1.862z" fill="#292929"/><path d="M105.276 163.591l-20.945-12.094 20.813-12.019 20.945 12.094-20.813 12.019z" fill="#4A4A4A"/><path d="M126.089 157.587v-6.016l-20.813 12.02v6.015l20.813-12.019z" fill="#212121"/><path d="M105.276 169.607l-20.945-12.094v-6.015l20.945 12.093v6.016z" fill="#4F3627"/><path d="M99.375 130.402l-.04 37.072-1.393-.721.132-37.227 1.3.876z" fill="#4F3627"/><path d="M99.54 128.724l-1.466.802 1.3.877 1.467-.808-1.3-.871z" fill="#60412F"/><path d="M100.841 129.595l-.04 37.078-1.466.802.04-37.072 1.466-.808z" fill="#3B2619"/><path d="M79.816 139.518l21.025-11.567-1.386-.722-20.95 11.407 1.311.882z" fill="#FFF5F6"/><path d="M78.504 140.309v-1.673l1.312.882v1.673l-1.312-.882z" fill="#A8A8A8"/><path d="M79.816 141.191l21.025-11.567v-1.673l-21.025 11.567v1.673z" fill="#3B2619"/><path d="M127.739 123.884c.109.063.252-.035.286-.155.035-.12-.011-.246-.057-.367a.898.898 0 0 0-.166-.309.852.852 0 0 0-.281-.178 40.521 40.521 0 0 0-5.293-2.022c-.493-.149-.992-.292-1.507-.35-.436-.045-.877-.034-1.312-.108-.613-.109-1.071-.459-1.69-.545a7.127 7.127 0 0 0-2.206.035c.063-.012.453.435.516.492.212.184.429.356.653.522.395.28.917.47 1.209.842.2.258.475.452.75.624 1.684 1.054 3.684 1.461 5.534 2.195.831.326 1.685.733 2.578.641a.561.561 0 0 0 .258-.074c.126-.081.178-.252.126-.396a.335.335 0 0 0-.361-.194c.235.051.476.08.716.08.218 0 .487-.057.533-.269.052-.184-.126-.344-.286-.464z" fill="#FFCEB3"/><path d="M130.025 165.906c-.906-.206-1.857.006-2.745.281-.887.275-1.77.618-2.698.693-.991.074-1.134-.905-2.045-.957-.756-.04-2.486-.04-3.105.476a.775.775 0 0 0-.183.286 7.602 7.602 0 0 1-1.295 1.954c-.911.991-1.765 3.471-.43 4.451.653.481 1.53.481 2.332.367.682-.098 1.352-.27 2.016-.436 1.209-.309 2.418-.613 3.621-.922 1.833-.464 3.735-.963 5.19-2.171.654-.545 1.226-1.312 1.163-2.16-.068-.928-.91-1.656-1.821-1.862z" fill="#292929"/><path d="M132.385 152.208c-.327.877-.768 1.73-1.192 2.567a78.458 78.458 0 0 0-4.669 11.475c-.596 1.885-1.231 3.97-3.374 4.497a4.168 4.168 0 0 1-1.02.143c-1.094-.011-2.097-.779-2.566-1.759-.739-1.546-.241-3.305.183-4.852.229-.836.47-1.673.71-2.498a81.093 81.093 0 0 1 1.192-3.546c.212-.596.424-1.175.653-1.77.441-1.221.877-2.441 1.289-3.661a70.414 70.414 0 0 0 1.364-4.411c.297-1.123.567-2.229 1.048-3.277.453-.991.596-2.154 1.719-2.584.24-.098.498-.155.75-.183a3.91 3.91 0 0 1 2.527.498c3.454 2.039 2.52 6.256 1.386 9.361z" fill="#373C40"/><path d="M132.483 147.682c-.367 1.066-1.175 1.902-1.971 2.71-1.673 1.673-3.363 3.094-5.288 4.342-.538.356-1.106.711-1.69 1.037-.412.23-.825.453-1.232.694-.2.097-.395.212-.595.326-1.335.768-2.664 1.518-4.057 2.183a33.09 33.09 0 0 1-9.132 2.836c-1.151.183-2.343.309-3.477.028-.75-.183-1.472-.584-1.988-1.163a2.675 2.675 0 0 1-.596-1.008c-.269-.825-.126-1.719.086-2.555a16.051 16.051 0 0 1 2.836-5.912c1.048-1.347 2.366-1.73 3.844-2.452 5.46-2.693 10.879-5.237 16.952-6.21.751-.115 1.547-.212 2.297-.184a4.882 4.882 0 0 1 1.96.424c1.753.819 2.704 3.059 2.051 4.904z" fill="#373C40"/><path d="M125.247 155.044c.028.767-.23 1.529-.556 2.228-.905 1.902-2.441 3.42-4.24 4.509a80.646 80.646 0 0 1 1.192-3.546 74.46 74.46 0 0 1 .653-1.771c-.2.098-.395.212-.596.327-1.335.768-2.664 1.518-4.056 2.183a33.054 33.054 0 0 1-9.132 2.835c-1.151.184-2.343.31-3.477.029-.751-.183-1.473-.584-1.988-1.163.298-.498.75-.934 1.249-1.26.979-.625 2.142-.923 3.179-1.45a8.044 8.044 0 0 0 3.489-3.517l-.068.51c.126.395.567.607.962.721a6.286 6.286 0 0 0 4.113-.2c1.175-.481 2.183-1.306 3.335-1.885a8.398 8.398 0 0 1 2.721-.853c.51-.069 1.065-.086 1.558.057.229.04.441.126.625.258.567.366.893 1.008 1.008 1.672.017.115.029.218.029.316z" fill="#CCC"/><path d="M120.893 123.443c-.098 2.068-.98 3.901-1.45 5.872-.51 2.171-1.065 4.721-1.913 6.794-.298.751-.837 1.318-1.134 2.086-.098.269-.184.555-.27.836-.338 1.049-.624 2.343-.424 3.363v.04c.04.201.098.384.184.556.172.367.567.578.779.962.028.04.057.069.069.115.183.441.212.98.171 1.518-.04.47-.126.934-.229 1.346-.739 3.306-2.664 6.199-4.778 8.852-1.134 1.432-2.366 2.853-3.93 3.786-1.335.808-2.864 1.192-4.411.992a2.702 2.702 0 0 1-1.22-.442c-.825-.469-1.364-1.277-2.068-2.096-.992-1.163-2.126-2.172-3.306-3.134-2.796-2.269-5.122-4.595-6.325-8.101-.796-2.314.069-4.68 1.404-6.668.47-.722 1.048-1.375 1.432-2.143 1.123-2.211.413-4.852.097-7.322-.212-1.672-.04-3.179.07-4.806.125-1.77-.287-3.701-.356-5.488-.069-1.719-.596-4.028.27-5.615.796-1.432 2.537-2.354 4.17-2.016.607.126 1.174.395 1.77.584a9.956 9.956 0 0 0 1.816.367c.338.057.665.086.991.126 2.567.309 5.122.853 7.631 1.472.963.241 1.942.51 2.825.991.739.395 1.449.905 2.085 1.449.327.287.722.47 1.123.636.298.126.596.241.882.384.796.413 1.53.894 2.315 1.318.636.367 1.22.934 1.501 1.633.217.561.257 1.168.229 1.753z" fill="#295CAD"/><path d="M117.478 119.095c-.653.24-1.421.309-2.125.326-3.999 0-7.918-1.094-11.773-2.183-.923-.257-1.942-.607-2.338-1.472-.24-.556-.154-1.191-.011-1.77.028-.098.057-.212.097-.309.338.057.665.085.991.126 2.567.309 5.122.853 7.631 1.472.963.241 1.942.51 2.825.991.739.395 1.449.905 2.085 1.449.327.287.722.47 1.123.636.298.126.596.241.882.384.201.109.413.224.613.35z" fill="#D9D9D9"/><path d="M120.893 123.443c-.098 2.068-.98 3.901-1.45 5.872-.509 2.171-1.065 4.721-1.913 6.795-.298.75-.836 1.317-1.134 2.085-.098.269-.184.556-.27.836-.24.837-.383 1.731-.424 2.596-.011.257-.028.51 0 .767v.04c.041.396.155.78.413 1.095.126.154.286.286.441.366.04.012.069.04.115.058.028.04.057.068.068.114.184.441.212.98.172 1.518-.04.47-.126.934-.229 1.347-.739 3.305-2.664 6.198-4.778 8.851-1.134 1.432-2.366 2.853-3.93 3.787-1.335.807-2.864 1.191-4.411.991a2.701 2.701 0 0 1-1.22-.441c1.048-1.702 2.681-2.584 4.153-3.913a24.28 24.28 0 0 0 4.056-4.835c2.211-3.507 3.546-7.591 3.672-11.745.069-2.326.069-4.554.356-6.88.24-2-.356-4.016-.086-6.027.2-1.53.893-2.962 1.747-4.268.441-.693.934-1.392.991-2.211.057-.808-.579-1.731-1.392-1.633l.126-.241c.298.126.596.241.882.384.797.413 1.53.894 2.315 1.318.636.366 1.22.933 1.501 1.632.217.55.257 1.158.229 1.742z" fill="#D9D9D9"/><path d="M115.668 102.768c-.287.67-.584 1.334-.888 1.999-.126.275-.218.51-.43.716-.246.235-.573.424-.842.636-.533.418-1.048.859-1.541 1.323-.407.379-.796.762-1.18 1.163-.321.338-.659.917-1.043 1.163-.321.207-.911.247-1.289.31a8.907 8.907 0 0 1-1.455.149 5.628 5.628 0 0 1-1.415-.155c-.155-.04-1.192-.55-1.237-.521l-.705.383c-.017 1.169-.017 2.418.642 3.386.349.516.859.905 1.403 1.203 1.684.928 3.684 1.043 5.609 1.135.395.017.825.034 1.163-.178.498-.304.636-.962.653-1.547.017-.584-.035-1.209.263-1.713.407-.693 1.318-.928 1.794-1.575.257-.35.36-.785.441-1.209a18.63 18.63 0 0 0 .057-6.668z" fill="#FFCEB3"/><path d="M115.576 102.664c.041.47.041.934-.057 1.432-.183.963-.441 2.045-1.277 2.567-.31.2-.694.286-1.037.441-1.53.693-2.24 2.452-3.449 3.632-.882.836-2.068 1.392-3.289 1.432-2.314.115-2.692-1.065-3.431-2.979-.241-.636-.653-1.203-.882-1.856-.041-.115-.086-.212-.098-.327-.424-1.191-.636-2.44-.796-3.689-.115-.905-.327-1.816-.029-2.693.012-.04.029-.068.04-.114v-.012a7.241 7.241 0 0 1 1.364-2.354c1.191-1.392 2.635-2.269 4.422-2.681 1.347-.31 2.722-.367 4.114-.424 1.249-.058 3.363-.086 4.239 1.02.384.48.47 1.151.482 1.758.028.722-.453 1.26-.528 1.988-.057.47-.028.923.012 1.375.029.269.069.527.115.796.04.218.068.459.085.688z" fill="#522C03"/><path d="M115.439 116.78c-.441-.447-.951-.854-1.444-1.244-.578-.464-1.3-.819-1.999-1.054-1.318-.441-2.773-.223-4.131-.51a13.207 13.207 0 0 1-1.329-.378c-.561-.183-1.128-.361-1.644-.653-.516-.292-.98-.699-1.238-1.232-.332.224-.475.579-.704.888-.264.367-.539.728-.688 1.152-.103.292-.131.63-.04.928.098.309.264.361.539.487.624.292 1.289.498 1.953.676 1.45.39 2.928.67 4.383 1.026 2.022.486 3.97 1.065 6.015 1.443.161.029 1.433.166 1.461.281-.195-.699-.619-1.289-1.134-1.81z" fill="#fff"/><path d="M136.441 131.566c-.028.241-.086.47-.172.694a3.481 3.481 0 0 1-1.037 1.42c-.636.527-1.432.837-2.24 1.009-2.383.481-4.835-.201-7.264-.327-2.114-.114-4.652.413-6.651-.412-1.364-.568-2.567-2.338-2.825-3.73-.011-.086-.028-.155-.028-.24-.172-1.02-.04-2.046.086-3.048.011-.058.011-.115.028-.184.258-1.942.722-6.072 3.317-6.015.413.011.808.229 1.049.556.309.452.556.578.962.922 1.289 1.077 2.836 2.383 4.412 3.008a23.5 23.5 0 0 0 1.999.682c1.151.355 2.326.664 3.46 1.036 1.163.367 2.355.768 3.317 1.501.115.086.229.172.327.287.057.04.114.097.172.155.068.068.126.143.2.212.602.693.974 1.586.888 2.474z" fill="#295CAD"/><path d="M127.647 117.611c-.435-.407-.962-.745-1.443-1.049-.155-.097-.31-.189-.487-.229-.104-.023-.212-.028-.31-.063-.143-.051-.258-.166-.378-.263a2.404 2.404 0 0 0-1.232-.516c-.452-.051-.613-.252-1.037-.418-.355-.138-.888.063-.836.435a1.69 1.69 0 0 0-.871-.722c-.143-.051-.309-.086-.441-.011-.189.097-.241.349-.172.55.069.2.224.355.373.498.796.779 1.592 1.564 2.394 2.343.172.167.756.848.407 1.078-.086.057-.2.057-.304.045-.802-.08-1.415-.721-2.022-1.249-.258-.223-.556-.446-.899-.446a.543.543 0 0 0-.338.103c-.201.154-.212.475-.092.704.12.23.338.384.544.533.373.269.756.504 1.146.751a14 14 0 0 0 2.973 1.409c.493.166.888.223 1.381.252.475.029.607.493 1.043.596.521.12.876-.516 1.306-.705.647-.286 1.209-.252 1.902-.252.017 0 .029 0 .04-.006.046-.023.029-.091.006-.131-.252-.378-.757-.625-1.06-.986-.378-.452-.665-.968-.957-1.478a3.715 3.715 0 0 0-.636-.773z" fill="#FFCEB3"/><path d="M136.682 131.171a2.84 2.84 0 0 1-.413 1.094c-.951 1.576-3.231 1.731-4.451.115l-.04-.04c-.029-.029-.058-.057-.069-.086-.596-.854-.922-1.873-1.472-2.75a5.974 5.974 0 0 0-2.086-1.988l-.057-1.615-.011-.241c-.356-1.02-.711-2.045-1.077-3.048-.338-.962-.115-1.673.825-2.183.498-.257 1.065-.355 1.615-.383.155-.012.327-.012.481.028.596.155.739.751 1.095 1.152.424.481.922.876 1.317 1.403.905 1.135 1.719 2.298 2.555 3.478.04.057.086.126.126.2.384.568.682 1.221.98 1.857.069.171.143.326.229.481.143.286.269.584.355.882.126.527.184 1.094.098 1.644z" fill="#295CAD"/><path d="M100.75 138.778l-21.077-11.876.258 33.343 21.071 11.87-.252-33.337z" fill="#292929"/><path d="M105.253 169.6l-4.251 2.515-.252-33.336 4.251-2.521.252 33.342z" fill="#212121"/><path d="M105.001 136.258l-21.072-11.87-4.256 2.515 21.077 11.876 4.251-2.521z" fill="#4A4A4A"/><path d="M121.666 143.231l-.046 37.072-1.392-.722.138-37.227 1.3.877z" fill="#A8A8A8"/><path d="M121.832 141.552l-1.467.802 1.301.877 1.467-.802-1.301-.877z" fill="#60412F"/><path d="M123.133 142.429l-.041 37.072-1.472.802.046-37.072 1.467-.802z" fill="#999"/><path d="M102.153 152.379l20.98-11.601-1.393-.722-20.899 11.441 1.312.882z" fill="#FFF5F6"/><path d="M100.841 153.17v-1.673l1.312.882v1.673l-1.312-.882z" fill="#A8A8A8"/><path d="M102.153 154.052l20.98-11.601v-1.673l-20.98 11.601v1.673z" fill="#999"/><path d="M115.519 104.096c-.183.963-.441 2.045-1.278 2.567-.309.2-.693.286-1.037.441-1.529.693-2.24 2.452-3.448 3.632-.883.836-2.069 1.392-3.289 1.432-2.314.115-2.692-1.065-3.431-2.979-.241-.636-.654-1.203-.883-1.856-.04-.115-.086-.212-.097-.327-.424-1.191-.636-2.44-.796-3.689-.115-.905-.327-1.816-.029-2.693.011-.04.029-.068.04-.114-.069 1.203.201 2.498.539 3.672.355 1.203.825 2.498 1.902 3.151.635.384 1.42.481 2.154.527 1.615.115 3.391-.011 4.594-1.094.396-.338.722-.779 1.163-1.077.722-.47 1.673-.47 2.395-.934.722-.47 1.077-1.335 1.547-2.085.051.464.051.928-.046 1.426z" fill="#3E2000"/><path d="M136.682 131.171a2.84 2.84 0 0 1-.413 1.094 3.493 3.493 0 0 1-1.037 1.421c-.636.527-1.432.836-2.24 1.008-2.383.481-4.835-.2-7.264-.326-2.114-.115-4.652.412-6.651-.413-1.364-.567-2.567-2.337-2.825-3.729-.011-.086-.028-.155-.028-.241-.172-1.02-.041-2.045.085-3.048.012-.057.012-.114.029-.183.682 1.787 1.828 3.432 3.518 4.285.722.367 1.501.567 2.297.739 3.065.682 6.256.877 9.39.596.068-.011.154-.011.229-.029.934-.097 1.931-.309 2.566-.979.384-.384.608-.883.825-1.375.144-.298.27-.596.396-.894.143-.309.28-.624.424-.934.068.172.143.327.229.481.143.287.269.585.355.883.143.527.201 1.094.115 1.644z" fill="#D9D9D9"/><path d="M198.784 24.745c0-6.87-4.87-15.268-10.857-18.723-5.987-3.454-10.856-.681-10.856 6.188s4.869 15.267 10.856 18.722c2.378 1.37 4.572 1.759 6.365 1.3l-.229.338 1.426-.802.189-.103.081-.046h-.006c1.879-1.157 3.031-3.529 3.031-6.874z" fill="#212121"/><path d="M197.225 25.621c0 5.128-2.71 7.975-6.571 7.654-1.318-.109-2.761-.584-4.285-1.46-4.222-2.436-7.883-7.334-9.682-12.415-.751-2.126-1.175-4.286-1.175-6.314 0-6.869 4.87-9.647 10.857-6.187 5.987 3.449 10.856 11.853 10.856 18.722z" fill="#292929"/><path d="M193.607 31.731c3.947-2.308 3.906-9.72-.091-16.557-3.997-6.837-10.437-10.51-14.384-8.202-3.947 2.308-3.906 9.72.091 16.558 3.997 6.837 10.437 10.508 14.384 8.201z" fill="#fff"/><path d="M187.01 20.454l-1.277-.74v-1.46l1.277.733v1.467z" fill="#212121"/><path d="M186.243 9.591c-.063.058-.155.07-.27.012v-.115c.172.086.247.012.293-.109l.086.052v1.976l-.115-.063V9.591h.006zm1.105.899c0 .568-.618.408-.63.986v.023l.613.355v.12l-.727-.418v-.097c0-.699.63-.487.63-1.025 0-.23-.069-.43-.264-.539-.189-.109-.258.023-.258.235v.137l-.108-.063v-.126c0-.286.103-.446.372-.292.269.143.372.418.372.705zm3.3 2.86c-.063.057-.154.069-.269.012v-.115c.166.086.246.011.292-.109l.086.052v1.976l-.114-.063V13.35h.005zm3.254 5.38c0 .567-.619.406-.63.985v.023l.613.355v.12l-.728-.418v-.097c0-.7.631-.481.631-1.026 0-.229-.069-.43-.264-.538-.189-.109-.258.023-.258.235v.137l-.109-.063v-.126c0-.286.104-.447.373-.292.269.143.372.418.372.705zm.745 4.669v.046c0 .195-.08.303-.229.275a.719.719 0 0 1 .229.533v.154c0 .287-.109.436-.372.287-.264-.15-.373-.424-.373-.71v-.115l.109.063v.12c0 .212.069.418.258.527.189.109.258-.006.258-.235v-.155a.534.534 0 0 0-.258-.48l-.115-.07v-.12l.121.069c.154.08.252.006.252-.183v-.07c0-.223-.069-.423-.258-.532-.189-.109-.258.006-.258.223v.08l-.109-.062v-.069c0-.287.109-.435.373-.287.263.15.372.425.372.71zm-1.266 5.098v.436l-.109-.063v-.436l-.584-.338v-.12l.567-1.088.126.074v1.421l.143.086v.12l-.143-.091zm-.596-.463l.481.28v-1.18l-.481.9zm-2.967.95c.057-.074.149-.063.275.006.235.137.332.401.332.676v.338c0 .286-.109.435-.372.286-.258-.148-.373-.43-.373-.71v-.109l.109.063v.115c0 .212.075.412.258.521.189.109.263-.011.263-.223v-.333c0-.212-.074-.412-.263-.52-.126-.075-.212-.041-.247.085v.034l-.103-.063.046-1.03.648.371v.12l-.545-.314-.028.687zm-3.157-1.031v.023l-.109-.063v-.029c0-.212-.069-.406-.258-.515-.195-.115-.269 0-.269.235v.458c.057-.08.155-.092.304-.006.24.138.338.401.338.676v.241c0 .286-.115.435-.378.28-.264-.154-.379-.429-.379-.715v-1.003c0-.298.115-.441.379-.286.263.149.372.412.372.704zm-.636.413v.24c0 .218.074.418.269.527.189.11.264 0 .264-.217v-.24c0-.213-.075-.413-.264-.522-.195-.115-.269 0-.269.212zm-3.403-4.469l-.63-.366v-.12l.745.429v.12l-.482 1.581-.114-.068.481-1.576zm-2.83-4.469v.058c0 .2-.069.326-.229.28a.73.73 0 0 1 .229.556v.143c0 .292-.126.413-.389.264a.798.798 0 0 1-.39-.71v-.144c0-.206.057-.332.229-.292a.7.7 0 0 1-.229-.55v-.063c0-.292.132-.407.39-.252a.798.798 0 0 1 .389.71zm-.664-.384v.08c0 .224.097.396.275.5.183.102.274.045.274-.178v-.08c0-.23-.097-.419-.274-.522-.184-.109-.275-.029-.275.2zm0 .889v.148c0 .23.091.424.275.533.189.109.274.017.274-.212v-.149c0-.229-.091-.4-.274-.51-.19-.108-.275-.045-.275.19zm-.499-5.781v1.003c0 .292-.109.44-.378.286-.264-.149-.373-.424-.373-.71v-.023l.109.063v.028c0 .212.075.413.264.522.189.109.269-.006.269-.241v-.487c-.051.115-.149.12-.304.034-.24-.137-.338-.4-.338-.676v-.24c0-.292.115-.436.379-.287.263.16.372.436.372.728zm-.642-.378v.24c0 .212.075.419.264.527.189.11.263-.005.263-.217v-.24c0-.213-.074-.42-.263-.528-.184-.114-.264 0-.264.218zm1.879-3.592c-.063.057-.154.069-.269.012v-.115c.172.086.247.011.292-.109l.086.052v1.976l-.114-.063v-1.753h.005zm.355.465c0-.293.115-.436.379-.281.263.149.378.424.378.716v1.008c0 .287-.115.436-.378.281-.264-.149-.379-.43-.379-.716v-1.008zm.109 1.082c0 .218.075.419.264.527.189.11.263-.005.263-.223v-1.025c0-.212-.074-.419-.263-.528-.189-.108-.264.006-.264.218v1.031zm2.241-3.283c-.063.057-.155.069-.27.011v-.114c.172.086.247.011.292-.11l.086.052v1.977l-.114-.063V8.446h.006zm.693.401c-.063.058-.155.069-.269.012v-.115c.171.086.246.012.292-.109l.086.052v1.976l-.115-.063V8.847h.006z" fill="#000"/><path d="M191.405 17.183l-5.804 3.282-.424-.727 5.804-3.283.424.728z" fill="#212121"/><path d="M183.653 15.143l3.65 6.302.418-.24-3.644-6.303-.424.241z" fill="#212121"/><path d="M186.271 17.646v9.115l.195.115.006-9.12-.201-.11z" fill="#212121"/><path d="M186.621 19.79l-.504-.293v-.578l.504.292v.578z" fill="#fff"/><path d="M186.569 9.06l.229.131v-.917l-.229-.131v.916zm.871.572l.229.16.086-.86-.229-.16-.086.86zm.94.734l.229.183.166-.796-.229-.19-.166.803zm.922.83l.218.206.246-.727-.218-.207-.246.728zm.888.917l.206.235.332-.648-.212-.235-.326.648zm.842 1.002l.201.246.401-.555-.201-.252-.401.561zm.791 1.071l.189.264.47-.464-.184-.27-.475.47zm.733 1.129l.172.275.538-.367-.172-.275-.538.367zm.664 1.169l.155.286.596-.263-.155-.287-.596.264zm.591 1.209l.131.292.653-.16-.137-.293-.647.16zm.504 1.22l.114.298.693-.052-.114-.298-.693.052zm.418 1.227l.092.297.733.057-.098-.298-.727-.057zm.321 1.219l.068.292.762.166-.068-.292-.762-.166zm.229 1.198l.046.286.785.27-.052-.287-.779-.27zm.126 1.163l.023.275.796.372-.022-.275-.797-.372zm.029 1.11v.264l.796.47.006-.264-.802-.47zm-.069 1.055l-.029.246.791.561.029-.246-.791-.561zm-.172.979l-.051.23.779.647.051-.23-.779-.647zm-.275.894l-.074.206.756.733.074-.212-.756-.727zm-.361.802l-.097.184.722.802.097-.183-.722-.802zm-.458.7l-.121.16.688.865.12-.16-.687-.866zm-.545.59l-.137.131.642.923.137-.132-.642-.922zm-.618.475l-.161.103.585.962.16-.103-.584-.962zm-.699.355l-.172.069.527.997.172-.075-.527-.99zm-.756.223l-.189.046.458 1.014.189-.046-.458-1.014zm-.82.097l-.2.012.384 1.025.206-.011-.39-1.026zm-.865-.028l-.212-.023.315 1.026.212.017-.315-1.02zm-.899-.16l-.223-.052.235 1.008.217.052-.229-1.008zm-.934-.287l-.223-.086.149.991.229.08-.155-.985zm-.945-.412l-.229-.114.063.956.235.11-.069-.952zm-.957-.533l-.229-.138-.017.906.229.137.017-.905zm-.951-.642l-.229-.166-.103.848.229.166.103-.848zm-.939-.75l-.224-.195-.183.785.223.194.184-.785zm-.917-.854l-.218-.211-.263.71.217.218.264-.716zm-.876-.934l-.212-.234-.338.63.206.235.344-.63zm-.837-1.02l-.195-.252-.418.545.195.252.418-.544zm-.779-1.082l-.184-.263-.487.447.184.269.487-.453zm-.722-1.134l-.166-.28-.55.349.166.28.55-.349zm-.647-1.18l-.149-.287-.608.24.149.293.608-.246zm-.573-1.21l-.132-.297-.659.143.132.292.659-.137zm-.487-1.225l-.109-.298-.705.034.109.293.705-.03zm-.401-1.226l-.086-.298-.739-.075.086.292.739.08zm-.304-1.215l-.063-.292-.768-.189.063.292.768.19zm-.206-1.192l-.046-.286-.785-.292.046.286.785.292zm-.109-1.151l-.017-.275-.796-.395.017.275.796.395zm-.011-1.105l.011-.259-.802-.492-.006.263.797.487zm.091-1.038l.034-.246-.79-.579-.035.247.791.578zm.195-.962l.057-.223-.779-.67-.051.223.773.67zm.286-.876l.081-.207-.751-.744-.08.2.75.75zm.384-.785l.103-.184-.716-.813-.103.183.716.814zm.476-.682l.12-.155-.676-.876-.12.154.676.877zm.561-.567l.138-.126-.625-.928-.143.126.63.928zm.636-.448l.161-.097-.573-.968-.161.097.573.968zm.705-.326l.178-.069-.51-1.002-.178.069.51 1.002zm.773-.206l.195-.034-.447-1.02-.189.04.441 1.014zm.825-.069l.206-.006-.372-1.025-.206.006.372 1.025zm.877.057l.212.023-.292-1.02-.218-.028.298 1.025zm.911.184l.218.057-.212-1.008-.224-.057.218 1.008zm.934.315l.229.086-.138-.98-.229-.092.138.986zm.859.378l.235.114-.052-.945-.235-.115.052.946z" fill="#212121"/><path d="M33.704 70.6l32.328-18.757-10.272-5.964-32.322 18.756L33.703 70.6z" fill="#009EA4"/><path d="M23.438 64.635v2.487l10.266 5.963V70.6l-10.267-5.964z" fill="#1295A5"/><path d="M66.032 51.842v2.48L33.704 73.086V70.6l32.328-18.757z" fill="#007280"/><path d="M10.25 102.154l32.322-18.762-10.266-5.958L-.017 96.19l10.266 5.964z" fill="#009EA4"/><path d="M-.017 96.19v2.481l10.266 5.964v-2.481L-.017 96.19z" fill="#1295A5"/><path d="M42.572 83.392v2.486L10.25 104.635v-2.481l32.323-18.762z" fill="#007280"/><path d="M46.972 60.298c-.057-.051-1.982-1.157-2.154-1.203-.298-.086-.613-.206-.905-.097-.321.114-.493.464-.636.773-.029.058-.058.12-.103.16-.046.04-.103.064-.155.087-.258.097-.51.183-.773.108-.207-.051-.556-.08-.596.213l-.029.315c0-.018.35.2.372.211.155.104.31.201.465.298.498.31 1.054.722 1.65.803.171.022.355.028.515-.046.149-.07.258-.207.384-.315.298-.264.607-.11.957-.063.275.034.567.04.825-.07.257-.108.47-.354.47-.635-.012-.212-.127-.395-.287-.539z" fill="#CCC"/><path d="M46.691 61.06a.74.74 0 0 1-1.002.304l-1.02-.527-1.111-.59a.74.74 0 0 1 .349-1.392.79.79 0 0 1 .35.085l1.065.568 1.066.55a.75.75 0 0 1 .303 1.002z" fill="#6AD3FF"/><path d="M46.691 61.06a.74.74 0 0 1-1.002.304l-1.02-.527a.473.473 0 0 1-.08-.287c0-.36.252-.796.567-.973a.54.54 0 0 1 .172-.07l1.065.55c.35.196.487.642.298 1.003z" fill="#fff"/><path d="M44.44 59.146c-.103-.04-.332-.103-.418 0-.178.212 1.042.837 1.197.911.28.144.573.292.888.321.063.006.143-.006.166-.063.011-.04-.006-.08-.029-.114a.722.722 0 0 0-.194-.178c-.241-.178-.705-.413-.974-.539-.115-.063-.59-.32-.636-.338z" fill="#7A7A7A"/><path d="M44.68 61.461a.74.74 0 0 1-1.002.304l-1.02-.527-1.111-.59a.74.74 0 0 1 .349-1.393c.115 0 .235.029.35.086l1.065.567 1.066.55a.74.74 0 0 1 .303 1.003z" fill="#91F038"/><path d="M44.68 61.46a.74.74 0 0 1-1.002.304l-1.02-.527a.473.473 0 0 1-.08-.286c0-.361.252-.797.567-.974a.543.543 0 0 1 .172-.069l1.065.55a.742.742 0 0 1 .298 1.003z" fill="#fff"/><path d="M42.435 59.547c-.104-.04-.333-.103-.419 0-.177.212 1.043.837 1.198.911.28.143.573.292.888.321.063.006.143-.006.166-.063.011-.04-.006-.08-.029-.115a.722.722 0 0 0-.195-.177c-.24-.178-.704-.413-.973-.539-.12-.063-.59-.32-.636-.338z" fill="#7A7A7A"/><path d="M40.928 58.78a.5.5 0 0 0-.103-.206c-.115-.132-.275-.212-.436-.287a2.047 2.047 0 0 0-.659-.178c-.034 0-.246-.04-.269-.011.155-.178.092-.475-.08-.636-.172-.16-.418-.212-.659-.23-.28-.016-.567 0-.842.058a1.122 1.122 0 0 0-.481.2c-.138.11-.235.281-.218.453.006.058.023.12.006.172-.023.069-.097.103-.16.138a.77.77 0 0 0-.172 1.209l.206.309c.326.063.67.046.99-.04a.715.715 0 0 0 .207-.086c.046-.029.08-.069.126-.092a.35.35 0 0 1 .19-.034c.246.011.44.177.675.223.298.058.642.12.94.04a1.05 1.05 0 0 0 .601-.447c.115-.16.184-.366.138-.555z" fill="#CCC"/><path d="M39.455 57.623v-.321h-.097a.775.775 0 0 0-.218-.178c-.424-.246-1.105-.246-1.524 0a.698.698 0 0 0-.217.183H37.3v.373c.012.155.115.304.315.418.424.246 1.106.246 1.524 0 .224-.132.332-.303.315-.475z" fill="#BFBFBF"/><path d="M39.14 57.783c-.418.24-1.1.24-1.524 0-.424-.246-.424-.636-.005-.877.418-.24 1.1-.24 1.523 0 .424.241.424.636.006.877z" fill="#E6E6E6"/><path d="M39.037 57.64c-.355.206-.94.206-1.295 0-.36-.207-.36-.545-.005-.75.355-.207.94-.207 1.294 0 .361.211.361.543.006.75z" fill="#fff"/><path d="M39.043 57.6l-1.25-.723-.045.03 1.249.72.046-.028z" fill="#A6A6A6"/><path d="M37.794 56.9l1.232.71.017-.01-1.25-.723-.045.03.017.01.029-.017z" fill="#BFBFBF"/><path d="M40.699 59.02v-.32H40.6a.771.771 0 0 0-.217-.178c-.424-.246-1.106-.246-1.524 0a.696.696 0 0 0-.218.184h-.097v.372c.011.154.114.303.315.418.424.246 1.105.246 1.524 0 .223-.132.332-.304.315-.475z" fill="#BF8B8B"/><path d="M40.384 59.181c-.419.24-1.1.24-1.524 0-.424-.246-.424-.636-.006-.877.418-.24 1.1-.24 1.524 0 .424.241.424.636.006.877z" fill="#E6A8A8"/><path d="M40.28 59.038c-.355.206-.939.206-1.294 0-.361-.206-.361-.544-.006-.75.355-.207.94-.207 1.295 0 .36.212.36.544.006.75z" fill="#FFBABA"/><path d="M40.286 58.998l-1.249-.722-.045.023 1.248.727.046-.028z" fill="#BF8B8B"/><path d="M39.037 58.293l1.232.716.017-.011-1.249-.722-.045.023.017.011.028-.017z" fill="#E6A8A8"/><path d="M38.378 59.13v-.321h-.097a.775.775 0 0 0-.218-.178c-.424-.246-1.105-.246-1.524 0a.697.697 0 0 0-.217.183h-.098v.373c.012.154.115.303.316.418.423.246 1.105.246 1.523 0 .23-.132.333-.304.315-.475z" fill="#BFA15C"/><path d="M38.07 59.29c-.42.24-1.1.24-1.525 0-.424-.247-.424-.636-.006-.883.419-.24 1.1-.24 1.524 0 .424.253.424.642.006.883z" fill="#E6C26E"/><path d="M37.966 59.152c-.355.206-.94.206-1.295 0-.36-.206-.36-.544-.005-.75.355-.206.94-.206 1.294 0 .361.206.361.544.006.75z" fill="#FFD77A"/><path d="M37.972 59.112l-1.255-.727-.046.028 1.255.722.046-.023z" fill="#BFA15C"/><path d="M36.717 58.408l1.237.71.018-.006-1.255-.727-.046.028.017.012.029-.017z" fill="#E6C26E"/><path d="M45.242 57.445l5.024-2.95a.419.419 0 0 0 0-.722l-3.386-1.954a.774.774 0 0 0-.78.006l-5.253 3.088 4.395 2.532z" fill="#CCC"/><path d="M46.21 55.938v-8.421h-.315a2.453 2.453 0 0 0-.693-.573c-1.346-.78-3.523-.78-4.864-.012a2.371 2.371 0 0 0-.693.579h-.304v8.582h.006c.028.487.366.968 1.014 1.34 1.346.78 3.523.78 4.864.012.704-.413 1.037-.963.985-1.507z" fill="#FF521C"/><path d="M45.11 57.313c-1.283.739-3.363.733-4.652-.006-1.289-.745-1.294-1.948-.017-2.687 1.283-.739 3.363-.733 4.652.006 1.29.745 1.295 1.948.017 2.687z" fill="#FF9473"/><path d="M45.213 55.342c-1.34.774-3.517.768-4.864-.011-.647-.372-.98-.854-1.014-1.34v-3.426c.035.486.367.968 1.014 1.34 1.347.78 3.524.785 4.864.011.625-.355.951-.819.997-1.294v3.208c.051.55-.275 1.1-.997 1.512zm0-6.284c-1.34.773-3.517.767-4.864-.012-1.346-.779-1.352-2.033-.017-2.807 1.34-.773 3.518-.768 4.864.012 1.352.773 1.358 2.033.017 2.807z" fill="#fff"/><path d="M46.691 48.748V48.1h-.36a2.8 2.8 0 0 0-.791-.653c-1.536-.888-4.022-.893-5.551-.011a2.728 2.728 0 0 0-.791.659h-.35v.836h.006c.035.556.418 1.106 1.157 1.53 1.536.888 4.022.894 5.552.011.813-.47 1.191-1.1 1.128-1.724z" fill="#CCC"/><path d="M45.557 49.865c-1.53.883-4.016.877-5.551-.011-1.536-.888-1.547-2.32-.017-3.203 1.53-.882 4.015-.876 5.55.012 1.542.882 1.548 2.32.018 3.202z" fill="#fff"/><path d="M46.542 48.01v-1.13h-.349a2.665 2.665 0 0 0-.762-.624c-1.478-.853-3.867-.86-5.334-.011a2.688 2.688 0 0 0-.761.636h-.333v1.306h.006c.034.533.4 1.06 1.111 1.466 1.478.854 3.867.86 5.334.012.785-.453 1.146-1.06 1.088-1.656z" fill="#CCC"/><path d="M45.448 48.57c-1.466.849-3.855.843-5.333-.01-1.479-.854-1.484-2.235-.018-3.083 1.467-.848 3.856-.842 5.334.012 1.478.853 1.49 2.234.017 3.082z" fill="#F2F2F2"/><path d="M40.802 56.15a.246.246 0 1 0 0-.492.246.246 0 0 0 0 .492z" fill="#EB3A02"/><path d="M40.997 55.84c0 .081-.069.15-.15.15a.152.152 0 0 1-.148-.15c0-.08.069-.148.149-.148.08 0 .149.063.149.149z" fill="#FFAF96"/><path d="M40.882 55.824a.046.046 0 1 0 0-.091.046.046 0 0 0 0 .091z" fill="#FFFDDB"/><path d="M45.356 56.242a.245.245 0 0 1-.246.246.244.244 0 0 1-.246-.246c0-.138.109-.247.246-.247a.241.241 0 0 1 .246.247z" fill="#EB3A02"/><path d="M45.305 56.173c0 .08-.069.15-.149.15a.152.152 0 0 1-.149-.15c0-.08.069-.149.149-.149.08 0 .149.07.149.15z" fill="#FFAF96"/><path d="M45.19 56.161a.046.046 0 1 0 0-.091.046.046 0 0 0 0 .091z" fill="#FFFDDB"/><path d="M45.998 56.242a.245.245 0 0 1-.246.246.244.244 0 0 1-.247-.246c0-.138.11-.247.247-.247a.245.245 0 0 1 .246.247z" fill="#EB3A02"/><path d="M45.947 56.173c0 .08-.07.15-.15.15a.152.152 0 0 1-.148-.15c0-.08.068-.149.149-.149.08 0 .149.07.149.15z" fill="#FFAF96"/><path d="M45.832 56.161a.046.046 0 1 0 0-.091.046.046 0 0 0 0 .091z" fill="#FFFDDB"/><path d="M45.442 55.938a.246.246 0 1 0 0-.493.246.246 0 0 0 0 .493z" fill="#EB3A02"/><path d="M45.637 55.623c0 .08-.069.149-.149.149a.152.152 0 0 1-.149-.15c0-.08.069-.148.15-.148a.15.15 0 0 1 .148.149z" fill="#FFAF96"/><path d="M45.522 55.612a.046.046 0 1 0 0-.092.046.046 0 0 0 0 .092z" fill="#FFFDDB"/><path d="M44.864 56.895a.245.245 0 0 1-.247.246.244.244 0 0 1-.246-.246c0-.138.109-.247.246-.247.138 0 .247.11.247.247z" fill="#EB3A02"/><path d="M44.812 56.826c0 .08-.069.149-.149.149a.152.152 0 0 1-.149-.15c0-.08.069-.148.15-.148.08 0 .148.069.148.149z" fill="#FFAF96"/><path d="M44.698 56.814a.046.046 0 1 0 0-.091.046.046 0 0 0 0 .091z" fill="#FFFDDB"/><path d="M44.76 56.282a.245.245 0 0 1-.246.246.245.245 0 0 1-.246-.246c0-.138.109-.247.246-.247.138 0 .246.109.246.247z" fill="#EB3A02"/><path d="M44.56 56.368a.149.149 0 1 0 0-.298.149.149 0 0 0 0 .298z" fill="#FFAF96"/><path d="M44.64 56.161a.045.045 0 0 1-.046.046.045.045 0 0 1-.045-.046c0-.023.023-.046.045-.046.023-.006.046.017.046.046z" fill="#FFFDDB"/><path d="M44.136 57.628a.246.246 0 1 0 0-.492.246.246 0 0 0 0 .492z" fill="#EB3A02"/><path d="M44.331 57.319c0 .08-.069.149-.149.149a.152.152 0 0 1-.149-.15c0-.08.069-.148.15-.148.08-.006.148.063.148.149z" fill="#FFAF96"/><path d="M44.262 57.256a.045.045 0 0 1-.045.046.045.045 0 0 1-.046-.046.05.05 0 0 1 .046-.046c.028 0 .045.023.045.046z" fill="#FFFDDB"/><path d="M41.839 57.674a.246.246 0 1 0 0-.493.246.246 0 0 0 0 .493z" fill="#EB3A02"/><path d="M42.04 57.365c0 .08-.07.149-.15.149a.152.152 0 0 1-.148-.15.149.149 0 1 1 .298.001z" fill="#FFAF96"/><path d="M41.925 57.347a.046.046 0 1 0 0-.091.046.046 0 0 0 0 .091z" fill="#FFFDDB"/><path d="M41.49 57.193a.246.246 0 1 0 0-.493.246.246 0 0 0 0 .493z" fill="#EB3A02"/><path d="M41.684 56.878c0 .08-.069.149-.149.149a.152.152 0 0 1-.149-.149c0-.08.069-.149.15-.149.085 0 .148.069.148.149z" fill="#FFAF96"/><path d="M41.57 56.867a.046.046 0 1 0 0-.092.046.046 0 0 0 0 .092z" fill="#FFFDDB"/><path d="M42.704 57.193a.245.245 0 0 1-.246.246.245.245 0 0 1-.247-.246c0-.138.109-.247.247-.247.137 0 .246.11.246.247z" fill="#EB3A02"/><path d="M42.503 57.273a.149.149 0 1 0 0-.298.149.149 0 0 0 0 .297z" fill="#FFAF96"/><path d="M42.59 57.067a.045.045 0 0 1-.047.046.045.045 0 0 1-.045-.046c0-.029.023-.046.045-.046.023 0 .046.017.046.046z" fill="#FFFDDB"/><path d="M42.194 56.5a.244.244 0 0 1-.246.246.245.245 0 0 1-.247-.247c0-.137.11-.246.247-.246a.245.245 0 0 1 .246.246z" fill="#EB3A02"/><path d="M42.137 56.431c0 .08-.069.15-.15.15a.152.152 0 0 1-.148-.15c0-.08.069-.149.149-.149.086 0 .149.069.149.15z" fill="#FFAF96"/><path d="M42.022 56.42a.046.046 0 1 0 0-.092.046.046 0 0 0 0 .091z" fill="#FFFDDB"/><path d="M41.037 57.078a.245.245 0 0 1-.246.246.244.244 0 0 1-.247-.246c0-.138.109-.247.247-.247.137 0 .246.11.246.247z" fill="#EB3A02"/><path d="M40.837 57.158a.149.149 0 1 0 0-.298.149.149 0 0 0 0 .298z" fill="#FFAF96"/><path d="M40.87 56.998a.046.046 0 1 0 0-.092.046.046 0 0 0 0 .092z" fill="#FFFDDB"/><path d="M43.237 56.9a.245.245 0 0 1-.247.247.245.245 0 0 1-.246-.246c0-.138.109-.247.246-.247.138 0 .247.11.247.247z" fill="#EB3A02"/><path d="M43.036 56.98a.149.149 0 1 0 0-.297.149.149 0 0 0 0 .297z" fill="#FFAF96"/><path d="M43.117 56.775a.045.045 0 0 1-.046.046.045.045 0 0 1-.046-.046.05.05 0 0 1 .046-.046c.023-.006.046.017.046.046z" fill="#FFFDDB"/><path d="M44.09 56.843a.245.245 0 0 1-.246.246.245.245 0 0 1-.246-.246c0-.138.108-.246.246-.246.137 0 .246.108.246.246z" fill="#EB3A02"/><path d="M43.89 56.93a.149.149 0 1 0 0-.299.149.149 0 0 0 0 .298z" fill="#FFAF96"/><path d="M43.976 56.717a.045.045 0 0 1-.046.046.045.045 0 0 1-.046-.046c0-.028.023-.046.046-.046a.05.05 0 0 1 .046.046z" fill="#FFFDDB"/><path d="M44.274 56.218a.245.245 0 0 1-.247.247.245.245 0 0 1-.246-.247c0-.137.109-.246.246-.246.132 0 .247.109.247.246z" fill="#EB3A02"/><path d="M44.222 56.156c0 .08-.069.149-.149.149a.152.152 0 0 1-.149-.15c0-.08.07-.148.15-.148.08-.006.148.063.148.149z" fill="#FFAF96"/><path d="M44.108 56.139a.046.046 0 1 0 0-.092.046.046 0 0 0 0 .092z" fill="#FFFDDB"/><path d="M45.236 57.096a.246.246 0 1 0 0-.493.246.246 0 0 0 0 .493z" fill="#EB3A02"/><path d="M45.431 56.78c0 .081-.069.15-.149.15a.152.152 0 0 1-.149-.15c0-.08.069-.148.15-.148.08 0 .148.069.148.149z" fill="#FFAF96"/><path d="M45.317 56.77a.046.046 0 1 0 0-.092.046.046 0 0 0 0 .091z" fill="#FFFDDB"/><path d="M42.956 56.403a.245.245 0 0 1-.246.246.245.245 0 0 1-.247-.246c0-.138.11-.247.247-.247s.246.11.246.247z" fill="#EB3A02"/><path d="M42.755 56.483a.149.149 0 1 0 0-.298.149.149 0 0 0 0 .298z" fill="#FFAF96"/><path d="M42.836 56.277a.045.045 0 0 1-.046.046.045.045 0 0 1-.046-.046c0-.029.023-.046.046-.046s.046.017.046.046z" fill="#FFFDDB"/><path d="M41.701 56.121a.245.245 0 0 1-.246.247.245.245 0 0 1-.246-.247c0-.137.109-.246.246-.246a.241.241 0 0 1 .246.246z" fill="#EB3A02"/><path d="M41.5 56.202a.149.149 0 1 0 0-.298.149.149 0 0 0 0 .298z" fill="#FFAF96"/><path d="M41.535 56.041a.046.046 0 1 0 0-.091.046.046 0 0 0 0 .091z" fill="#FFFDDB"/><path d="M40.31 55.812a.244.244 0 0 1-.247.246.244.244 0 0 1-.246-.246c0-.138.108-.247.246-.247.137 0 .246.11.246.247z" fill="#EB3A02"/><path d="M40.258 55.743c0 .08-.069.149-.15.149a.152.152 0 0 1-.148-.15c0-.08.069-.148.149-.148.08 0 .149.069.149.149z" fill="#FFAF96"/><path d="M40.143 55.732a.046.046 0 1 0 0-.092.046.046 0 0 0 0 .092z" fill="#FFFDDB"/><path d="M40.492 56.403a.245.245 0 0 1-.246.246.245.245 0 0 1-.246-.246c0-.138.109-.247.246-.247.138 0 .246.11.246.247z" fill="#EB3A02"/><path d="M40.292 56.483a.149.149 0 1 0 0-.298.149.149 0 0 0 0 .298z" fill="#FFAF96"/><path d="M40.372 56.277a.045.045 0 0 1-.046.046.05.05 0 0 1-.045-.046c0-.029.022-.046.045-.046a.05.05 0 0 1 .046.046z" fill="#FFFDDB"/><path d="M41.215 56.494a.245.245 0 0 1-.247.246.245.245 0 0 1-.246-.246.246.246 0 1 1 .493 0z" fill="#EB3A02"/><path d="M41.163 56.425c0 .08-.069.149-.149.149a.152.152 0 0 1-.149-.15c0-.08.069-.148.15-.148.08 0 .148.069.148.149z" fill="#FFAF96"/><path d="M41.094 56.368a.045.045 0 0 1-.046.045.045.045 0 0 1-.045-.045.05.05 0 0 1 .045-.046c.023 0 .046.017.046.046z" fill="#FFFDDB"/><path d="M43.392 56.626a.246.246 0 1 0 0-.493.246.246 0 0 0 0 .492z" fill="#EB3A02"/><path d="M43.586 56.31c0 .08-.069.15-.149.15a.152.152 0 0 1-.149-.15c0-.08.07-.148.15-.148a.15.15 0 0 1 .148.149z" fill="#FFAF96"/><path d="M43.518 56.253a.045.045 0 0 1-.046.046.045.045 0 0 1-.046-.046.05.05 0 0 1 .046-.045c.029 0 .046.017.046.045z" fill="#FFFDDB"/><path d="M43.57 57.44a.245.245 0 0 1-.247.246.245.245 0 0 1-.247-.247c0-.137.11-.246.247-.246a.24.24 0 0 1 .246.246z" fill="#EB3A02"/><path d="M43.368 57.52a.149.149 0 1 0 0-.298.149.149 0 0 0 0 .298z" fill="#FFAF96"/><path d="M43.449 57.313a.045.045 0 0 1-.046.046.045.045 0 0 1-.046-.046.05.05 0 0 1 .046-.046c.028-.006.046.017.046.046z" fill="#FFFDDB"/><path d="M49.418 58.299c.103-.063.138-.166.075-.292a.387.387 0 0 0-.04-.063c.005-.104.12-.201.257-.27.144-.069.31-.12.453-.189.264-.12.447-.286.63-.452.19-.166.373-.338.562-.51.086-.08.172-.184.086-.258-.127-.046-.31 0-.447.051-.292.11-.585.218-.877.327-.28.103-.573.212-.779.361-.115.086-.2.178-.32.264a.843.843 0 0 1-.465.148c-.034-.005-.069-.017-.103-.022-.246-.04-.435-.012-.539.068-.166.126-.372.212-.55.315-.085.052-.177.103-.263.155-.086.052-.12.092-.143.19a.537.537 0 0 0 .097.463.822.822 0 0 0 .184.16 1.289 1.289 0 0 0 .825.27c.194-.006.372-.155.538-.252.252-.15.51-.292.762-.441a.498.498 0 0 0 .057-.035v.012z" fill="#CCC"/><path d="M48.502 55.245H46.8v3.329c-.006.131.075.263.246.366.333.195.871.195 1.203 0 .172-.097.253-.229.247-.355h.006v-3.34z" fill="#7DFFEE"/><path d="M48.244 55.6c-.333.19-.871.19-1.203 0-.333-.194-.333-.504-.006-.693.332-.189.87-.189 1.203 0 .338.19.338.505.006.694z" fill="#91FFF0"/><path d="M48.404 58.58v-2.304h-1.518v2.275c-.012.12.063.24.223.338.298.172.78.172 1.077 0 .144-.08.218-.19.218-.298v-.012z" fill="#4BCCBC"/><path d="M48.186 56.592c-.298.172-.779.172-1.077 0-.298-.172-.298-.453-.006-.625.298-.172.78-.172 1.078 0 .303.172.303.453.005.625zm.092-1.599c-.029-.046-.08-.086-.115-.12-.108-.109-.131-.275-.12-.424.011-.15.057-.298.075-.453.028-.275-.03-.55-.086-.819-.063-.28-.12-.556-.184-.836-.028-.126-.086-.281-.206-.31-.12.029-.178.184-.206.31-.063.28-.12.555-.184.836-.057.27-.12.544-.085.82.017.148.063.297.074.452.011.149-.017.315-.12.424-.04.04-.086.074-.115.12-.132.143-.097.327.115.453.143.08.332.12.521.108a.971.971 0 0 0 .521-.108c.207-.126.247-.31.115-.453z" fill="#91FFF0"/><path d="M50.656 60.012c.103-.063.137-.166.074-.293a.38.38 0 0 0-.04-.063c.006-.103.12-.2.258-.269.143-.069.31-.12.452-.189.264-.12.447-.286.63-.453.19-.166.373-.337.562-.51.086-.08.172-.183.086-.257-.126-.046-.31 0-.447.051-.292.11-.584.218-.877.327-.28.103-.572.212-.779.36-.114.087-.2.178-.32.264a.843.843 0 0 1-.465.15c-.034-.006-.068-.018-.103-.024-.246-.04-.435-.011-.538.07-.166.125-.373.211-.55.314-.086.052-.178.103-.264.155-.086.051-.12.092-.143.189a.537.537 0 0 0 .097.464.822.822 0 0 0 .184.16 1.29 1.29 0 0 0 .825.27c.195-.006.372-.155.538-.252.252-.15.51-.292.762-.441.006 0 .058-.035.058-.035v.012z" fill="#CCC"/><path d="M49.642 57.056H47.94v3.328c-.006.132.075.264.246.367.333.195.871.195 1.203 0 .166-.098.252-.23.247-.355h.005v-3.34z" fill="#FFF28D"/><path d="M49.39 57.411c-.333.19-.871.19-1.203 0-.333-.195-.333-.504-.006-.693.332-.19.87-.19 1.203 0 .332.189.332.498.005.693z" fill="#FFF4A1"/><path d="M49.544 60.39s0-.006 0 0v-2.303h-1.518v2.274c-.011.12.063.24.223.338.298.172.78.172 1.078 0 .143-.08.217-.189.217-.298v-.011z" fill="#E6D33E"/><path d="M49.332 58.402c-.298.172-.779.172-1.077 0-.298-.172-.298-.452-.006-.624.298-.172.78-.172 1.078 0 .297.172.303.452.005.624zm.086-1.598c-.028-.046-.08-.086-.114-.12-.11-.11-.132-.276-.12-.425.01-.148.057-.297.074-.452.029-.275-.029-.55-.086-.82-.063-.28-.12-.555-.183-.836-.029-.126-.086-.286-.207-.31-.12.03-.177.184-.206.31-.063.28-.12.556-.183.837-.057.269-.12.544-.086.819.017.149.063.298.074.452.012.15-.017.316-.12.424-.04.04-.086.075-.114.12-.132.144-.098.327.114.453.143.08.332.12.521.11a.971.971 0 0 0 .522-.11c.212-.126.252-.31.114-.452z" fill="#FFF4A1"/><path d="M17.657 83.816l7.087 4.21 2.664.533-4.664-7.774-1.42.848a6.367 6.367 0 0 0-1.565.24c-.32.092-.733.224-1.036.482a1.228 1.228 0 0 0-.453 1.1l-.613.36zm2.876-1.719l-1.753 1.049a.846.846 0 0 1 .303-.539c.224-.19.556-.298.82-.367a5.1 5.1 0 0 1 .63-.143z" fill="#CCC"/><path d="M22.613 88.09a9.585 9.585 0 0 1 3.924 1.678c.183.132.367.28.544.418.464.361.94.734 1.49.997a3.17 3.17 0 0 0 1.34.315c.424 0 .86-.103 1.226-.366.722-.516 1.026-1.541.74-2.504a3.266 3.266 0 0 0-.637-1.146c-.051-.063-.137-.171-.24-.286-.16-.178-.361-.367-.544-.424l-.344.2c0 .11.114.201.206.27a4.038 4.038 0 0 1 .441.418c.292.32.533.693.659 1.111.195.648.063 1.53-.556 1.971-.618.441-1.484.298-2.085.012-.498-.235-.934-.579-1.398-.94a28.235 28.235 0 0 0-.561-.43 10.078 10.078 0 0 0-4.12-1.764l-.085.47zM18 96.305l-3.31.212-6.285-3.862 12.741-7.029-3.145 10.679z" fill="#CCC"/><path d="M20.55 83.076l.24-.412c-.343-.2-.796-.55-1.008-1.06-.189-.458-.126-.974.16-1.289.201-.223.51-.344.757-.43 1.037-.349 2.057-.303 2.802.132l.24-.412c-.865-.504-2.028-.567-3.197-.172-.297.103-.676.258-.956.561-.407.447-.505 1.169-.247 1.8.207.492.625.939 1.21 1.282z" fill="#2A2A2A"/><path d="M24.738 78.55l.607.356 7.47 4.365.402-.045-8.055-4.687-.023-.011-.006-.006c-.103-.069-.24-.063-.395.029z" fill="#E3E3E3"/><path d="M19.095 82.624v.55a.81.81 0 0 0 .035.252l.051.12.092.11 8.158 4.731.017-1.884-6.308-3.696-1.764-1.037c-.172.247-.28.568-.28.854z" fill="#B3B3B3"/><path d="M19.376 81.776l1.764 1.037 6.308 3.695.332-.338-6.193-3.62-1.879-1.1a1.116 1.116 0 0 0-.332.326z" fill="#E3E3E3"/><path d="M27.78 88.353l5.03-2.904c.338-.195.613-.717.613-1.17v-.55c0-.452-.275-.658-.613-.463l-5.03 2.904c-.338.195-.613.716-.613 1.169v.55c0 .453.275.659.613.464z" fill="#F2F2F2"/><path d="M27.54 88.227c.04 0 .091-.017.143-.046l5.03-2.904c.275-.16.51-.619.51-.997v-.55c0-.155-.046-.338-.172-.338a.319.319 0 0 0-.143.046l-5.03 2.904c-.275.16-.51.62-.51.997v.55c0 .16.046.338.172.338z" fill="#B3B3B3"/><path d="M27.883 87.929c.035 0 .08-.017.126-.04l4.509-2.607c.246-.143.458-.55.458-.894v-.498c0-.137-.04-.304-.149-.304a.318.318 0 0 0-.126.04l-4.508 2.607c-.247.143-.459.55-.459.894v.498c0 .144.04.304.15.304z" fill="#F2F2F2"/><path d="M28.187 87.626a.256.256 0 0 0 .114-.035l3.942-2.274c.218-.126.401-.481.401-.78v-.435c0-.12-.034-.263-.132-.263a.256.256 0 0 0-.114.034l-3.942 2.275c-.218.126-.4.48-.4.779v.435c0 .12.034.264.13.264z" fill="#B3B3B3"/><path d="M28.462 87.362a.182.182 0 0 0 .097-.034l3.42-1.977c.19-.109.35-.418.35-.676v-.378c0-.103-.029-.23-.114-.23a.182.182 0 0 0-.098.035l-3.42 1.977c-.19.109-.35.418-.35.676v.378c0 .109.03.229.115.229z" fill="#F2F2F2"/><path d="M28.663 87.133a.17.17 0 0 0 .08-.029l2.899-1.673c.16-.091.297-.355.297-.573v-.32c0-.092-.022-.195-.097-.195a.17.17 0 0 0-.08.028l-2.899 1.673c-.16.092-.298.356-.298.573v.321c0 .092.029.195.098.195z" fill="#B3B3B3"/><path d="M29.04 86.325v.235c0 .069.018.143.075.143a.15.15 0 0 0 .063-.017l1.38-.797.442-.257.332-.19c.12-.068.218-.263.218-.423v-.235c0-.069-.017-.143-.074-.143a.15.15 0 0 0-.063.017l-.963.555-.344.201-.848.493c-.12.063-.217.258-.217.418z" fill="#F2F2F2"/><path d="M27.78 86.17l5.03-2.904-8.072-4.715-5.03 2.904 8.072 4.715z" fill="#fff"/><path d="M30.903 83.26l-6.17-3.603-3.117 1.804 6.17 3.604 3.117-1.805z" fill="#2A2A2A"/><path d="M30.588 83.26l-5.855-3.415-2.802 1.616 5.855 3.414 2.802-1.615z" fill="#fff"/><path d="M22.613 86.531a9.585 9.585 0 0 1 3.924 1.68c.183.13.367.28.544.417.464.361.94.734 1.49.997.383.183.859.315 1.34.315.424 0 .86-.103 1.226-.366.722-.516 1.026-1.541.74-2.504a3.266 3.266 0 0 0-.637-1.146c-.051-.063-.137-.172-.24-.286-.16-.178-.361-.367-.544-.424l-.344.2c0 .11.114.2.206.27a3.71 3.71 0 0 1 .441.418c.292.32.533.693.659 1.111.195.648.063 1.53-.556 1.971-.618.441-1.484.298-2.085.011-.498-.234-.934-.578-1.398-.94-.183-.142-.367-.285-.561-.429a10.078 10.078 0 0 0-4.12-1.764l-.085.47z" fill="#2A2A2A"/><path d="M18 95.807l9.809-5.65-5.936-6.083-9.808 5.648 5.936 6.085z" fill="#fff"/><path d="M26.932 90.037l-5.156-5.282-8.84 5.088 5.156 5.287 8.84-5.093z" fill="#D2D5DA"/><path d="M21.776 84.796l-8.811 5.075-.029-.028 8.84-5.088 5.156 5.282-.023.018-5.133-5.26z" fill="gray"/><path d="M12.065 89.722v3.042l5.936 3.54v-.498l-5.936-6.084z" fill="#B3B3B3"/><path d="M27.808 90.158v.498L18 96.305v-.499l9.808-5.648z" fill="#F2F2F2"/><path d="M26.181 90.072l-4.497-4.6-3.976 2.2 4.492 4.606 3.981-2.206z" fill="#A0A0A0"/><path d="M21.684 85.626l-3.878 2.149-.098-.103 3.976-2.2 4.497 4.6-.097.057-4.4-4.503z" fill="gray"/><path d="M23.752 87.276l-1.374-1.403-.15.103 1.37 1.398.154-.098z" fill="#E82426"/><path d="M26.038 89.62l-1.369-1.404-.155.097 1.37 1.404.154-.098z" fill="#2EB848"/><path d="M24.67 88.215l-.917-.94-.155.098.917.94.154-.098z" fill="#FED136"/><path d="M18.27 91.911l-1.323-1.335-1.77.986 1.323 1.334 1.77-.985z" fill="#A0A0A0"/><path d="M18.27 91.733l-1.323-1.335-1.77.986 1.323 1.34 1.77-.99z" fill="#475CFF"/><path d="M15.176 91.384v.177l1.324 1.335v-.172l-1.324-1.34z" fill="#0014B0"/><path d="M18.27 91.733v.178l-1.77.985v-.171l1.77-.992z" fill="#2030B0"/><path d="M17.949 88.68l-.556-.568-.75.419.555.567.751-.418z" fill="#A0A0A0"/><path d="M17.949 88.605l-.556-.567-.75.418.555.567.751-.418z" fill="#475CFF"/><path d="M16.643 88.456v.075l.555.567v-.075l-.555-.567z" fill="#0014B0"/><path d="M17.949 88.606v.074l-.75.418v-.074l.75-.418z" fill="#2030B0"/><path d="M18.67 89.43l-.56-.567-.745.418.555.562.75-.413z" fill="#A0A0A0"/><path d="M18.67 89.356l-.56-.567-.745.418.555.561.75-.412z" fill="#475CFF"/><path d="M17.364 89.207v.075l.556.56v-.073l-.556-.562z" fill="#0014B0"/><path d="M18.67 89.356v.074l-.75.412v-.074l.75-.412z" fill="#2030B0"/><path d="M20.796 91.774l-.555-.567-.75.418.56.561.745-.412z" fill="#A0A0A0"/><path d="M20.796 91.699l-.555-.567-.75.418.56.562.745-.413z" fill="#475CFF"/><path d="M19.49 91.55v.074l.562.562v-.075l-.562-.561z" fill="#0014B0"/><path d="M20.797 91.699v.074l-.745.413v-.075l.745-.412z" fill="#2030B0"/><path d="M21.518 92.518l-.561-.567-.745.418.556.568.75-.419z" fill="#A0A0A0"/><path d="M21.518 92.444l-.561-.568-.745.419.556.567.75-.418z" fill="#475CFF"/><path d="M20.212 92.294v.075l.556.567v-.074l-.556-.568z" fill="#0014B0"/><path d="M21.518 92.443v.075l-.75.418v-.074l.75-.419z" fill="#2030B0"/><path d="M17.113 90.92c.091-.052.183-.029.263.052.143.143-.051.275.063.39.046.045.098.062.143.034.046-.029.046-.07 0-.115l-.034-.034.063-.035.029.029c.074.08.086.155-.012.206-.091.052-.189.029-.263-.051-.143-.144.051-.275-.063-.39-.046-.046-.092-.063-.143-.034-.046.028-.04.068.005.114l.017.017-.063.035-.011-.012c-.08-.074-.086-.154.006-.206zm.16.722l-.458-.464-.115.063-.051-.051.292-.167.051.052-.114.063.458.464-.063.04zm-.453.097l.08.114-.068.04-.39-.584.098-.057.624.447-.063.034-.126-.092-.155.098zm-.263-.39l.223.338.138-.08-.361-.258zm-.287.064l.505.515-.07.04-.217-.217-.046.028c-.057.035-.068.069-.011.126l.08.08c.034.035.046.052.052.07l-.07.04c-.005-.024-.028-.046-.045-.07l-.08-.08c-.057-.057-.069-.103-.029-.149-.063.018-.126-.005-.177-.063l-.04-.04c-.075-.074-.075-.143.017-.194l.131-.086zm.172.28l-.189-.189-.069.04c-.051.029-.045.063 0 .11l.046.05c.058.058.104.052.155.024l.057-.035zm-.16.522l-.458-.464-.115.063-.051-.052.292-.166.051.052-.114.063.458.464-.063.04z" fill="#fff"/><path d="M21.335 88.394l-.137.08-1.037-1.054.097-.058c.103.058.212.092.35.017l.097.098a.505.505 0 0 1-.218.051l.848.865zm-1.667-.705c.19-.109.384-.057.539.103l.045.046-.131.074-.052-.051c-.092-.098-.195-.126-.298-.069-.103.057-.091.138.017.246l.046.046c.092.092.195.11.292.057l.08-.045.104.103-.075.046c-.103.063-.103.143 0 .246l.08.08c.104.109.207.138.304.08.098-.057.092-.143-.006-.234l-.08-.08.132-.075.069.074c.16.16.171.315-.018.43-.189.109-.383.057-.544-.103l-.08-.08c-.103-.103-.137-.212-.063-.304-.132.029-.258-.023-.367-.132l-.028-.028c-.143-.166-.155-.321.034-.43zm.389 1.043c.16.16.167.32-.022.43-.19.108-.39.057-.55-.104l-.533-.544c-.16-.16-.166-.32.023-.43.189-.108.383-.063.544.103l.538.545zm-.676-.476c-.097-.097-.2-.126-.297-.069-.104.058-.092.144.005.241l.55.556c.092.097.195.126.298.069.098-.058.092-.144 0-.235l-.556-.562zm1.455.859c.155-.091.321-.057.447.075l.029.029c.086.086.114.171.057.246.115-.017.212.029.298.114l.063.064c.132.131.132.263-.029.355-.16.091-.32.057-.452-.075l-.063-.063c-.086-.086-.12-.172-.063-.252-.103.023-.206-.023-.292-.109l-.029-.028c-.126-.138-.126-.264.034-.356zm.453.465c-.086.051-.086.114-.006.2l.069.075c.092.085.178.103.258.057.08-.046.086-.115 0-.207l-.069-.074c-.08-.086-.166-.103-.252-.052zm-.372-.379c-.08.046-.086.115 0 .2l.04.041c.08.086.166.092.246.046.08-.046.092-.109.012-.195l-.04-.04c-.087-.086-.178-.097-.258-.052zm.234.768c.132.132.138.264-.017.355-.154.092-.32.052-.447-.08l-.435-.447c-.132-.132-.137-.263.023-.35.155-.091.315-.05.447.08l.43.442zm-.555-.384c-.08-.08-.16-.103-.247-.057-.085.046-.074.114.006.195l.447.458c.075.08.16.103.24.057.08-.046.075-.114 0-.195l-.446-.458zm1.272.876c.126-.074.246-.034.35.069l.056.057-.085.046-.058-.063c-.057-.063-.126-.086-.195-.046-.068.04-.057.092.012.16.189.19.504.075.722.299l.057.057-.355.206-.069-.069.264-.154-.012-.012c-.155-.154-.498-.074-.705-.275-.097-.103-.103-.206.018-.275zm.257.671c.104.103.11.206-.017.28-.126.075-.252.04-.355-.063L21.41 91c-.103-.103-.108-.206.018-.275.12-.069.252-.04.355.063l.343.344zm-.435-.304c-.063-.063-.126-.08-.195-.046-.063.04-.057.092 0 .155l.356.36c.063.064.126.081.194.047.063-.04.058-.092 0-.155l-.355-.36z" fill="#0D0D0D"/><path d="M17.748 88.525l-.647-.2.069.532.578-.332zm-.166.762l.67.218-.091-.55-.579.332zm2.945 2.979l.384-.086-.012-.011.08-.046.218.224-.08.045-.006-.005-.212.257-.372-.378zm-.659-.481a.476.476 0 0 0 .493 0c.143-.092.149-.24.017-.332a.476.476 0 0 0-.492 0c-.138.091-.15.24-.018.332zm.058-.28l.172.12-.178.114c-.086-.069-.08-.166.006-.235zm.028.251l.206-.137-.2-.138a.367.367 0 0 1 .36.006c.104.069.098.183-.01.258a.372.372 0 0 1-.356.011z" fill="#fff"/><path d="M21.46 86.996l.849-.47.642.647-.848.47-.642-.647zm.826-.338l-.653.36.481.487.653-.36-.481-.487zm.338 1.569l.848-.47.641.648-.847.47-.642-.648zm.825-.338l-.653.361.481.487.653-.36-.481-.488zm.395 1.553l.848-.47.642.648-.848.47-.642-.648zm.83-.332l-.652.36.48.487.654-.36-.481-.487z" fill="#0D0D0D"/><path d="M233.323 103.855l-29.527-17.049V32.135l29.527 17.05v54.67z" fill="#FFF5F6"/><path d="M231.432 56.128l-25.745-14.93v.74l25.745 14.935v-.745zm0 4.148L205.687 45.34v.74l25.745 14.935v-.74zm0 4.142l-25.745-14.936v.74l25.745 14.935v-.74zm0 4.142l-25.745-14.936v.745l25.745 14.93v-.74zm0 4.142l-25.745-14.935v.744l25.745 14.93v-.739zm0 4.142l-25.745-14.93v.74l25.745 14.934v-.744zm0 4.142l-25.745-14.93v.74l25.745 14.934v-.744zm0 4.148l-25.745-14.936v.74l25.745 14.935v-.74zm0 4.141L205.687 74.34v.739l25.745 14.935v-.739zm0 4.142l-25.745-14.935v.745l25.745 14.93v-.74zm0 4.143l-25.745-14.93v.74l25.745 14.929v-.739z" fill="#292929"/><path d="M30.977 135.433l24.605-15.394-.647-18.178-24.6 15.394.642 18.178z" fill="#8F0000"/><path d="M30.977 135.434l-4.83-2.498-.647-18.178 4.835 2.498.642 18.178z" fill="#A51212"/><path d="M25.5 114.757l4.835 2.498 24.6-15.393-4.83-2.498L25.5 114.757z" fill="#CF1616"/><path d="M29.813 115.961l4.12-2.561-.023-.665-4.12 2.561.023.665z" fill="#171717"/><path d="M29.814 115.961l-2.206-1.134-.023-.671 2.206 1.14.023.665z" fill="#292929"/><path d="M27.585 114.156l2.206 1.14 4.119-2.561-2.206-1.14-4.119 2.561z" fill="#4F4F4F"/><path d="M48.8 104.394l4.118-2.561-.023-.665-4.119 2.561.023.665z" fill="#171717"/><path d="M48.8 104.394l-2.206-1.135-.023-.664 2.205 1.134.023.665z" fill="#292929"/><path d="M46.57 102.595l2.206 1.134 4.12-2.561-2.206-1.134-4.12 2.561z" fill="#4F4F4F"/><path d="M44.222 107.023l-1.318-.756-.108-2.933 1.323.756.103 2.933z" fill="#292929"/><path d="M36.408 107.402l.154 4.428 1.484-.928-.103-2.933 6.176-3.873.103 2.933 1.484-.928-.155-4.428-9.143 5.729z" fill="#171717"/><path d="M36.563 111.824l-1.318-.756-.16-4.423 1.323.756.154 4.423z" fill="#292929"/><path d="M36.408 107.402l-1.324-.757 9.144-5.728 1.317.75-9.137 5.735z" fill="#4F4F4F"/><path d="M39.18 120.956l3.152-1.914v-3.655l.95-.573-.005 3.656 3.15-1.914v1.1l-3.15 1.913v3.656l-.951.578.006-3.661-3.151 1.914v-1.1z" fill="#FFF5F6"/><path d="M42.956 126.445c-3.426 1.982-6.216.389-6.216-3.546 0-3.936 2.79-8.749 6.216-10.725 3.426-1.982 6.216-.39 6.216 3.546.006 3.93-2.784 8.743-6.216 10.725zm0-12.942c-2.79 1.61-5.053 5.523-5.053 8.72 0 3.196 2.269 4.491 5.053 2.881 2.79-1.61 5.053-5.523 5.053-8.719 0-3.197-2.263-4.486-5.053-2.882z" fill="#FFF5F6"/></svg>